<svg xmlns="http://www.w3.org/2000/svg" viewBox="0 0 127.395 90.818">
  <g id="Group_74" data-name="Group 74" transform="translate(-1066 -888.676)">
    <path id="Path_363" data-name="Path 363" d="M1140.289,979.493c-.067,0-.132,0-.2,0a6.593,6.593,0,0,1-4.786-2.291c-5.348-6.093-11.728-11.364-17.9-16.462q-2.195-1.813-4.379-3.639c-5.964-5.013-11.706-10.037-16.406-16.371-4.579-6.171-7.083-12.293-7.655-18.716-.991-11.13,2.311-20.053,9.812-26.522a28.853,28.853,0,0,1,14.933-6.48c8.57-1.321,16.333,1.26,24.424,8.129.762.646,1.473,1.306,2.16,1.953q.605-.484,1.2-.968c1.869-1.507,3.8-3.066,5.8-4.476,12.816-9.039,30.018-4.6,38.044,5.215a28.862,28.862,0,0,1,6.267,14.524c1.474,10.619-1.564,20.316-9.286,29.644-5.251,6.343-11.612,11.6-17.224,16.233l-1.643,1.356a176.635,176.635,0,0,0-15.505,13.834c-.384.4-.754.82-1.123,1.237-.483.544-.983,1.108-1.525,1.654A7.119,7.119,0,0,1,1140.289,979.493Zm-22.412-86.438a22.89,22.89,0,0,0-3.5.274,24.623,24.623,0,0,0-12.744,5.47c-6.465,5.575-9.184,13.041-8.313,22.824.5,5.6,2.726,10.994,6.811,16.5,4.418,5.954,9.952,10.791,15.709,15.63q2.165,1.82,4.351,3.616c6.3,5.208,12.821,10.592,18.4,16.948a2.237,2.237,0,0,0,1.634.8,2.648,2.648,0,0,0,1.974-.854c.455-.46.894-.954,1.357-1.477.406-.457.813-.915,1.235-1.357a179.883,179.883,0,0,1,15.883-14.186l1.639-1.353c5.464-4.513,11.655-9.627,16.641-15.651,6.9-8.331,9.62-16.919,8.324-26.255a24.559,24.559,0,0,0-5.321-12.358c-6.782-8.294-21.315-12.046-32.14-4.41-1.884,1.329-3.677,2.776-5.576,4.307-.893.719-1.794,1.447-2.719,2.171a2.185,2.185,0,0,1-2.831-.113c-.33-.3-.671-.626-1.02-.957-.763-.721-1.552-1.466-2.367-2.158C1129.4,895.462,1123.786,893.055,1117.877,893.055Z" transform="translate(-8.559 0)" fill="#2e2e2e"/>
    <path id="Path_364" data-name="Path 364" d="M1139.119,968.873l-.1,0a2.185,2.185,0,0,1-1.887-1.264l-16.078-34.668-8.373,12.78a2.187,2.187,0,0,1-1.828.988h-42.67a2.186,2.186,0,0,1,0-4.371h41.489l9.882-15.083a2.185,2.185,0,0,1,3.811.278l15.959,34.41,10.642-18.509a2.185,2.185,0,0,1,1.895-1.1h39.346a2.186,2.186,0,0,1,0,4.371h-38.081l-12.115,21.069A2.185,2.185,0,0,1,1139.119,968.873Z" transform="translate(0 -14.115)" fill="#00a399"/>
  </g>
</svg>
