<svg xmlns="http://www.w3.org/2000/svg" viewBox="0 0 185.56 184.46"><defs><style>.cls-1{fill:#2e2e2e;}.cls-2{fill:#00a399;}</style></defs><g id="Layer_2" data-name="Layer 2"><g id="Calque_1" data-name="Calque 1"><path class="cls-1" d="M80,184.46l-.47,0H79.5a5.1,5.1,0,0,1-.77,0,50.19,50.19,0,0,1-16.94-4.17,92.77,92.77,0,1,1,65.78-1.43,11,11,0,1,1-8.25-20.39,70.75,70.75,0,1,0-50.55,1c.31.09.61.19.92.31a73.5,73.5,0,0,0,10.59,2.73,4.69,4.69,0,0,0,1-.13,6.47,6.47,0,0,0,.51-2.5c0-.19,0-.45,0-.71V135.8a3.5,3.5,0,0,1,7,0v23.31a2.44,2.44,0,0,0,0,.27c0,.07.31,6-3.39,8.64A9.15,9.15,0,0,1,80,169.46a4.34,4.34,0,0,1-.61-.06,79,79,0,0,1-12.06-3.08l-.15-.06a3.45,3.45,0,0,0-.42-.14l-.25-.08a77.81,77.81,0,1,1,55.41-1.13,4,4,0,0,0-2.18,2.14,3.92,3.92,0,0,0,0,3.06,4,4,0,0,0,5.2,2.21,85.76,85.76,0,1,0-60.73,1.35l.18.07a43.46,43.46,0,0,0,14.69,3.68l.26,0H80a16.6,16.6,0,0,0,10-2.94c6.83-4.89,6.8-13.73,6.72-15.45V135.8a3.5,3.5,0,0,1,7,0v23c.1,2.54,0,14.45-9.64,21.36A23.69,23.69,0,0,1,80,184.46Z"/><path class="cls-2" d="M124.25,82.36H113.34V51.61a3.5,3.5,0,1,0-7,0V82.36H79.22V51.61a3.5,3.5,0,0,0-7,0V82.36H61.31a4.51,4.51,0,0,0-4.5,4.5v28.32A24.14,24.14,0,0,0,80.92,139.3h23.72a24.14,24.14,0,0,0,24.11-24.12V86.86A4.51,4.51,0,0,0,124.25,82.36Zm-2.5,32.82a17.14,17.14,0,0,1-17.11,17.12H80.92a17.14,17.14,0,0,1-17.11-17.12V89.36h57.94Z"/></g></g></svg>