<svg xmlns="http://www.w3.org/2000/svg" viewBox="0 0 122.42 158.18"><defs><style>.cls-1{fill:#00a399;}.cls-2{fill:#2e2e2e;}</style></defs><g id="Layer_2" data-name="Layer 2"><g id="Calque_1" data-name="Calque 1"><path class="cls-1" d="M31.42,55.8A14.08,14.08,0,1,1,45.5,41.72,14.1,14.1,0,0,1,31.42,55.8Zm0-23.16a9.08,9.08,0,1,0,9.08,9.08A9.09,9.09,0,0,0,31.42,32.64Z"/><path class="cls-1" d="M31.42,95.54A14.08,14.08,0,1,1,45.5,81.46,14.1,14.1,0,0,1,31.42,95.54Zm0-23.16a9.08,9.08,0,1,0,9.08,9.08A9.09,9.09,0,0,0,31.42,72.38Z"/><path class="cls-1" d="M31.42,137.54A14.08,14.08,0,1,1,45.5,123.46,14.1,14.1,0,0,1,31.42,137.54Zm0-23.16a9.08,9.08,0,1,0,9.08,9.08A9.09,9.09,0,0,0,31.42,114.38Z"/><path class="cls-2" d="M122.24,33.51a3.46,3.46,0,0,0-.95-2.23L92.87,1.1A3.49,3.49,0,0,0,90.11,0H4.5A4.51,4.51,0,0,0,0,4.5V153.68a4.51,4.51,0,0,0,4.5,4.5H117.92a4.5,4.5,0,0,0,4.5-4.5V34.59A3.49,3.49,0,0,0,122.24,33.51ZM93.82,12.32l16.82,17.86H93.82ZM7,151.18V7H86.82V30.3H57.18a3.5,3.5,0,0,0,0,7l58.24-.12v114Z"/><path class="cls-2" d="M57.18,51.45H92.33a3.5,3.5,0,0,0,0-7H57.18a3.5,3.5,0,1,0,0,7Z"/><path class="cls-2" d="M98.66,72.48H57.18a3.5,3.5,0,1,0,0,7H98.66a3.5,3.5,0,0,0,0-7Z"/><path class="cls-2" d="M57.18,93.63H84.67a3.5,3.5,0,1,0,0-7H57.18a3.5,3.5,0,0,0,0,7Z"/><path class="cls-2" d="M96.66,114.48H57.18a3.5,3.5,0,1,0,0,7H96.66a3.5,3.5,0,0,0,0-7Z"/><path class="cls-2" d="M84.67,128.63H57.18a3.5,3.5,0,0,0,0,7H84.67a3.5,3.5,0,1,0,0-7Z"/></g></g></svg>