<svg xmlns="http://www.w3.org/2000/svg" viewBox="0 0 180.4 182.98"><defs><style>.cls-1{fill:#00a399;}.cls-2{fill:#2e2e2e;}</style></defs><g id="Layer_2" data-name="Layer 2"><g id="Calque_1" data-name="Calque 1"><path class="cls-1" d="M100.23,77.93H80.14a3.5,3.5,0,0,0-3.5,3.5v20.08a3.5,3.5,0,0,0,3.5,3.5h20.09a3.5,3.5,0,0,0,3.5-3.5V81.43A3.5,3.5,0,0,0,100.23,77.93ZM98.73,100H81.64V82.93H98.73Z"/><path class="cls-1" d="M124.53,94a2.5,2.5,0,0,0,0-5h-6.86V84.08h6.86a2.5,2.5,0,0,0,0-5h-6.86V76.83A12.86,12.86,0,0,0,104.83,64h-2V57.39a2.5,2.5,0,0,0-5,0V64H93V57.39a2.5,2.5,0,0,0-5,0V64H83.07V57.39a2.5,2.5,0,1,0-5,0V64H75.55A12.87,12.87,0,0,0,62.7,76.83v2.25H56.38a2.5,2.5,0,0,0,0,5H62.7V89H56.38a2.5,2.5,0,1,0,0,5H62.7v4.89H56.38a2.5,2.5,0,0,0,0,5H62.7v2.25A12.87,12.87,0,0,0,75.55,119h2.52v6.59a2.5,2.5,0,0,0,5,0V119H88v6.59a2.5,2.5,0,0,0,5,0V119h4.88v6.59a2.5,2.5,0,0,0,5,0V119h2a12.86,12.86,0,0,0,12.84-12.85v-2.25h6.86a2.5,2.5,0,0,0,0-5h-6.86V94Zm-11.86,12.14a7.85,7.85,0,0,1-7.84,7.85H75.55a7.86,7.86,0,0,1-7.85-7.85V76.83A7.86,7.86,0,0,1,75.55,69h29.28a7.85,7.85,0,0,1,7.84,7.85Z"/><path class="cls-2" d="M161.24,95.23a10,10,0,1,0-.3-7l-19.62,0V83.37H147a3.5,3.5,0,0,0,0-7h-5.64v-4l12.84,0h0a3.51,3.51,0,0,0,2.93-1.59L162.18,63a10.19,10.19,0,0,0,2.15.24,10,10,0,1,0-8-4.06l-4,6.19-11,0V60.78a20.46,20.46,0,0,0-20.44-20.44H117.3l0-15.55,6.41-5.53a10,10,0,1,0-4.8-8.52,9.67,9.67,0,0,0,.47,3l-7.87,6.79a3.52,3.52,0,0,0-1.21,2.64l0,17.16h-4.08V35a3.5,3.5,0,0,0-7,0v5.38H94.48l0-12.05a10,10,0,1,0-7,.3l0,11.75H82.64V35a3.5,3.5,0,1,0-7,0v5.38h-4l0-20.19a3.52,3.52,0,0,0-1.58-2.94l-7.8-5.08A9.51,9.51,0,0,0,62.55,10a10,10,0,1,0-4.06,8L64.69,22l0,18.3H59.49A20.46,20.46,0,0,0,39.05,60.78V65l-8.17,0-5.54-6.41a9.89,9.89,0,1,0-5.5,4.34l6.78,7.86a3.5,3.5,0,0,0,2.64,1.21l9.79,0V76H33.44a3.5,3.5,0,1,0,0,7h5.61v4.74l-19.89,0a10,10,0,1,0,.3,7l19.59,0v4.84H33.44a3.5,3.5,0,1,0,0,7h5.61v4l-12.81,0h0a3.51,3.51,0,0,0-2.93,1.59l-5.09,7.79a9.51,9.51,0,0,0-2.15-.24,10,10,0,1,0,8,4.06l4-6.2,10.93,0v4.57A20.46,20.46,0,0,0,59.49,142.6h3.6l0,15.58-6.42,5.54a9.89,9.89,0,0,0-5.17-1.46,10,10,0,1,0,9.51,7l7.86-6.78a3.55,3.55,0,0,0,1.22-2.65l0-17.19h4.08V148a3.5,3.5,0,0,0,7,0V142.6h4.74l0,12.09a10,10,0,1,0,7-.3l0-11.79h4.84V148a3.5,3.5,0,0,0,7,0V142.6h4l0,20.23a3.48,3.48,0,0,0,1.58,2.93l7.79,5.09a10.12,10.12,0,0,0-.24,2.15,10,10,0,1,0,4.06-8l-6.19-4,0-18.34h5.15a20.46,20.46,0,0,0,20.44-20.44V118l8.2,0,5.54,6.42a9.83,9.83,0,0,0-1.47,5.17,10,10,0,1,0,7-9.51l-6.79-7.86a3.47,3.47,0,0,0-2.64-1.21l-9.81,0V107H147a3.5,3.5,0,0,0,0-7h-5.64V95.21Zm9.18-6.88a3,3,0,1,1-3,3A3,3,0,0,1,170.42,88.35Zm-6.09-38a3,3,0,1,1-3,3A3,3,0,0,1,164.33,50.32ZM128.92,7.76a3,3,0,1,1-3,3A3,3,0,0,1,128.92,7.76ZM90.61,16.13a3,3,0,1,1-3,3A3,3,0,0,1,90.61,16.13ZM52.58,13a3,3,0,1,1,3-3A3,3,0,0,1,52.58,13ZM13.85,53.34a3,3,0,1,1,3,3A3,3,0,0,1,13.85,53.34ZM10,94.62a3,3,0,1,1,3-3A3,3,0,0,1,10,94.62Zm6.08,38a3,3,0,1,1,3-3A3,3,0,0,1,16.06,132.66Zm35.42,42.56a3,3,0,1,1,3-3A3,3,0,0,1,51.48,175.22Zm38.31-8.37a3,3,0,1,1,3-3A3,3,0,0,1,89.79,166.85Zm38,3.17a3,3,0,1,1-3,3A3,3,0,0,1,127.82,170Zm38.73-40.38a3,3,0,1,1-3-3A3,3,0,0,1,166.55,129.64Zm-32.23-7.48a13.45,13.45,0,0,1-13.44,13.44H59.49a13.45,13.45,0,0,1-13.44-13.44V60.78A13.46,13.46,0,0,1,59.49,47.34h61.39a13.46,13.46,0,0,1,13.44,13.44Z"/></g></g></svg>