<svg xmlns="http://www.w3.org/2000/svg" viewBox="0 0 181.44 181.44"><defs><style>.cls-1{fill:#00a399;}.cls-2{fill:#2e2e2e;}</style></defs><g id="Layer_2" data-name="Layer 2"><g id="Calque_1" data-name="Calque 1"><path class="cls-1" d="M80.58,78.29a3.51,3.51,0,0,1-3-1.75L53.68,35.07a3.5,3.5,0,0,1,1.13-4.68c20.41-13.19,50.48-13.27,71.49-.18A3.51,3.51,0,0,1,127.48,35L103.36,76.33a3.49,3.49,0,0,1-4.62,1.35c-5.69-2.9-10.93-2.84-16.49.19A3.45,3.45,0,0,1,80.58,78.29ZM61.46,34.56,82,70.26a22.77,22.77,0,0,1,16.87-.15l20.78-35.66C102.05,25,78.6,25,61.46,34.56Z"/><path class="cls-1" d="M123.66,152.31a3.49,3.49,0,0,1-2.77-1.36l-.16-.2a7.59,7.59,0,0,1-.89-1.23c-6.91-12-13.83-24.06-20.9-36.39L97.15,110a3.51,3.51,0,0,1,1.14-4.69,17.13,17.13,0,0,0,8.34-13.87,3.51,3.51,0,0,1,3.49-3.19h47.61A3.5,3.5,0,0,1,161.14,91c4.25,18.91-16,53.15-36.2,61.06A3.58,3.58,0,0,1,123.66,152.31Zm-18.88-43.06.23.39c6.75,11.76,13.34,23.25,19.94,34.73,15.24-8,30.77-33.72,29.75-49.1H113.15A23.65,23.65,0,0,1,104.78,109.25Z"/><path class="cls-1" d="M57.76,152.35a3.45,3.45,0,0,1-1.52-.35c-18.45-8.92-36.93-32.48-36.52-60.25a3.5,3.5,0,0,1,3.5-3.45H71a3.5,3.5,0,0,1,3.48,3.11c.72,6.37,3.39,10.76,8.41,13.81A3.49,3.49,0,0,1,84.13,110L60.8,150.59A3.48,3.48,0,0,1,57.76,152.35Zm-31-57c1,21.9,14.95,40.42,29.63,48.88l20.06-34.94A23.71,23.71,0,0,1,68.05,95.3Z"/><path class="cls-1" d="M90.59,102.6h-.1a11.21,11.21,0,0,1,.14-22.42h0a11,11,0,0,1,11.19,11.17A11,11,0,0,1,90.59,102.6Zm0-15.42a4.21,4.21,0,0,0-.08,8.42h0a4,4,0,0,0,4.25-4.24,4,4,0,0,0-4.2-4.18h0Z"/><path class="cls-2" d="M90.72,181.44a90.72,90.72,0,1,1,90.72-90.72A90.83,90.83,0,0,1,90.72,181.44ZM90.72,7a83.72,83.72,0,1,0,83.72,83.72A83.82,83.82,0,0,0,90.72,7Z"/></g></g></svg>