<svg xmlns="http://www.w3.org/2000/svg" viewBox="0 0 174.82 174.81"><defs><style>.cls-1{fill:#2e2e2e;}.cls-2{fill:#00a399;}</style></defs><g id="Layer_2" data-name="Layer 2"><g id="Calque_2" data-name="Calque 2"><path class="cls-1" d="M171.09,148.66,119,96.53a64.06,64.06,0,0,0-9.81-77.8h0a63.94,63.94,0,1,0-90.43,90.43A64,64,0,0,0,96.54,119l52.12,52.11a12.76,12.76,0,0,0,18,0l4.42-4.42A12.74,12.74,0,0,0,171.09,148.66ZM23.68,104.21a56.94,56.94,0,1,1,40.26,16.68A56.57,56.57,0,0,1,23.68,104.21Zm142.46,57.51-4.42,4.42a5.76,5.76,0,0,1-8.11,0L102.46,115a65.66,65.66,0,0,0,6.7-5.83,64.13,64.13,0,0,0,5.82-6.71l51.16,51.16A5.73,5.73,0,0,1,166.14,161.72Z"/><path class="cls-2" d="M98.32,91.77H28.8a3.5,3.5,0,0,1-3-5.25L60.53,26.31a3.5,3.5,0,0,1,6.06,0l34.76,60.21a3.5,3.5,0,0,1-3,5.25Zm-63.46-7h57.4L63.56,35.06Z"/><path class="cls-2" d="M63.56,69.26a3.5,3.5,0,0,1-3.5-3.5V52.17a3.5,3.5,0,0,1,7,0V65.76A3.5,3.5,0,0,1,63.56,69.26Z"/><path class="cls-2" d="M63.57,79.26h0a3.5,3.5,0,1,1,3.5-3.5A3.5,3.5,0,0,1,63.56,79.26Z"/></g></g></svg>