<?xml version="1.0" encoding="UTF-8"?><svg id="Layer_1" xmlns="http://www.w3.org/2000/svg" viewBox="0 0 150 150"><defs><style>.cls-1{fill:#00a49b;}.cls-2{fill:none;stroke:#000;stroke-miterlimit:10;stroke-width:4.7px;}</style></defs><path d="m60.66,73.59,52.61,0c8.92-.04,17.84-.03,26.76-.02,2.33,0,3.03.7,3.03,3.01,0,4.27,0,8.53,0,12.8,0,2.91-2.09,5.07-5,5.1-3.78.04-7.56.04-11.34,0-.87-.01-1.29.27-1.58,1.09-.8,2.29-1.85,4.48-3.08,6.56-.5.84-.36,1.32.31,1.97,2.66,2.54,5.28,5.14,7.89,7.74,2.46,2.45,2.48,5.22.03,7.64-4.72,4.67-9.45,9.33-14.19,13.98-2.6,2.54-5.32,2.53-7.91,0-2.81-2.74-5.63-5.47-8.38-8.27-.78-.79-1.41-.87-2.4-.43-1.85.83-3.74,1.58-5.67,2.2-.93.3-1.2.75-1.19,1.65.03,3.88.01,7.76.02,11.64,0,4-1.88,5.9-5.84,5.89-6.5-.01-12.99,0-19.49-.01-3.88,0-5.79-1.91-5.8-5.79,0-3.93-.03-7.85.03-11.78.02-.99-.38-1.33-1.23-1.62-1.96-.68-3.91-1.4-5.79-2.26-.93-.42-1.51-.25-2.17.42-2.77,2.78-5.57,5.54-8.36,8.29-2.64,2.6-5.35,2.63-8.02.03-4.75-4.64-9.48-9.3-14.2-13.98-2.44-2.42-2.4-5.21.06-7.65,2.59-2.55,5.16-5.12,7.81-7.61.78-.74.85-1.33.31-2.22-1.22-1.98-2.16-4.11-2.95-6.29-.33-.91-.85-1.22-1.83-1.21-3.63.06-7.27.04-10.91.03-3.17-.01-5.24-2.11-5.24-5.3,0-4.31,0-8.63,0-12.94,0-1.92.8-2.69,2.75-2.69m83.8.03c4.12-.07,8.24-.08,12.36,0m-38.43-.02c6.4-.04,12.8-.04,19.2,0m-58.49,4.35h0c-5.19,0-10.38.02-15.56-.03-1.03-.01-1.31.31-1.29,1.31.06,2.81.02,5.62.02,8.44q0,2.48,2.42,2.48c3.3,0,6.59,0,9.89,0,2.66,0,4.2,1.06,5.21,3.57.9,2.25,1.91,4.44,3.09,6.56,1.46,2.62,1.19,4.55-.94,6.68-2.61,2.6-5.23,5.19-7.89,7.73-.77.73-.81,1.19,0,1.97,4.64,4.48,9.24,8.99,13.8,13.55.86.85,1.36.69,2.13-.07,2.83-2.85,5.71-5.66,8.6-8.47,1.92-1.87,3.83-2.2,6.23-1.11,1.89.86,3.82,1.61,5.8,2.25,3.14,1.02,4.25,2.61,4.25,5.91,0,3.88.02,7.76-.02,11.63-.01,1.07.36,1.41,1.43,1.4,6.5-.05,12.99-.05,19.49-.02,1.07,0,1.42-.31,1.4-1.41-.06-3.97-.03-7.95-.01-11.93.01-2.88,1.17-4.46,3.87-5.45,1.99-.73,3.99-1.47,5.94-2.31,2.71-1.16,4.48-.91,6.59,1.15,2.81,2.74,5.64,5.46,8.39,8.27.89.91,1.43.94,2.34.03,4.49-4.49,9.01-8.94,13.59-13.34.92-.88.84-1.36-.02-2.17-2.67-2.53-5.3-5.12-7.9-7.72-1.97-1.97-2.26-3.88-.96-6.32,1.23-2.31,2.33-4.67,3.31-7.09.86-2.13,2.45-3.29,4.82-3.29,3.68,0,7.37-.04,11.05.03,1.24.02,1.59-.43,1.57-1.6-.06-2.66-.02-5.33-.02-8q0-2.63-2.67-2.64c-9.84,0-19.68.02-29.52-.03-1.08,0-1.4.29-1.45,1.34-.06,1.25-.15,2.49-.36,3.74-3.69,21.24-29.1,32.17-47.61,18.74-7.62-5.53-11.66-13.14-12.19-22.56-.06-1-.36-1.27-1.36-1.26-5.14.05-10.28.02-15.42.02Zm46.83,0h0c-8.14,0-16.28.01-24.42-.03-1.02,0-1.29.25-1.24,1.28.13,3.03.8,5.93,2.02,8.69,4.84,10.98,16.44,16.92,28.44,14.84,11.11-1.92,20.36-11.56,20.92-23.27.06-1.18-.2-1.55-1.45-1.54-8.09.06-16.18.03-24.27.03Z"/><path d="m84.75,146.26h-.02c-4.33,0-8.66,0-12.99,0h-6.5c-3.92,0-5.92-1.99-5.92-5.92v-2.16c-.01-3.15-.02-6.42.03-9.62.02-.93-.36-1.22-1.15-1.5-1.61-.56-3.73-1.32-5.8-2.26-.83-.38-1.36-.28-2.03.39-2.44,2.45-4.93,4.91-7.35,7.29l-1.02,1c-2.68,2.64-5.51,2.65-8.19.03-4.46-4.35-9.1-8.93-14.2-13.98-1.23-1.22-1.85-2.52-1.85-3.87,0-1.36.66-2.72,1.91-3.95l1.26-1.24c2.13-2.11,4.33-4.28,6.55-6.38.73-.69.81-1.21.29-2.06-1.1-1.79-2.06-3.85-2.96-6.32-.31-.85-.75-1.13-1.71-1.12-3.22.06-6.49.04-9.65.03h-1.26c-3.26-.02-5.36-2.14-5.37-5.43,0-4.84,0-9.07,0-12.94,0-2,.84-2.81,2.87-2.81h6.14c7.71,0,15.69,0,23.53.02v.25c-7.84-.03-15.82-.03-23.53-.02h-6.14c-1.88,0-2.62.72-2.62,2.56,0,3.87,0,8.1,0,12.94,0,3.13,2.01,5.16,5.12,5.17h1.26c3.16.02,6.43.03,9.65-.03.03,0,.05,0,.08,0,1.01,0,1.54.37,1.88,1.29.89,2.45,1.85,4.5,2.94,6.27.58.96.5,1.6-.33,2.38-2.21,2.09-4.42,4.27-6.55,6.37l-1.26,1.24c-1.22,1.2-1.83,2.47-1.84,3.78,0,1.28.59,2.53,1.77,3.7,5.1,5.05,9.74,9.62,14.2,13.97,2.6,2.54,5.24,2.54,7.84-.03l1.02-1c2.42-2.38,4.91-4.85,7.35-7.29.74-.74,1.38-.86,2.31-.45,2.07.94,4.18,1.7,5.78,2.25.87.3,1.33.67,1.32,1.74-.05,3.21-.05,6.47-.04,9.62v2.16c.01,3.81,1.87,5.66,5.68,5.67h6.5c4.33,0,8.66,0,12.99.01h.02c1.95,0,3.35-.46,4.29-1.4.95-.95,1.41-2.38,1.41-4.37,0-1.39,0-2.79,0-4.18,0-2.44,0-4.97-.02-7.45,0-1,.33-1.47,1.28-1.77,1.81-.58,3.66-1.3,5.66-2.2,1.06-.48,1.75-.35,2.54.46,2.37,2.41,4.83,4.81,7.21,7.12l1.17,1.14c2.54,2.47,5.21,2.47,7.74,0,4.36-4.26,9-8.83,14.19-13.98,1.19-1.18,1.79-2.42,1.79-3.7,0-1.29-.61-2.56-1.82-3.76-2.91-2.89-5.33-5.29-7.89-7.73-.75-.72-.84-1.27-.34-2.12,1.27-2.14,2.3-4.34,3.07-6.54.3-.85.75-1.17,1.65-1.17h.05c3.68.04,7.49.05,11.34,0,2.82-.03,4.87-2.12,4.88-4.98.01-4.51,0-9,0-12.8,0-2.24-.65-2.89-2.91-2.89h-4.52c-7.29,0-14.83-.01-22.24.02v-.25c7.41-.03,14.95-.03,22.24-.03h4.52c2.39,0,3.15.77,3.16,3.14,0,3.8,0,8.29,0,12.8,0,3-2.16,5.19-5.12,5.23-3.85.04-7.66.04-11.35,0h-.05c-.79,0-1.15.26-1.41,1.01-.77,2.21-1.81,4.43-3.09,6.58-.44.75-.38,1.17.29,1.81,2.56,2.45,4.99,4.85,7.89,7.74,1.26,1.25,1.9,2.58,1.9,3.94,0,1.35-.63,2.66-1.87,3.88-5.2,5.14-9.84,9.72-14.19,13.98-2.64,2.59-5.44,2.59-8.09,0l-1.17-1.14c-2.38-2.32-4.84-4.72-7.21-7.13-.72-.74-1.29-.84-2.26-.4-2.01.9-3.87,1.62-5.68,2.21-.85.27-1.11.64-1.11,1.53.02,2.48.02,5.01.02,7.45,0,1.39,0,2.79,0,4.18,0,2.06-.48,3.55-1.48,4.55s-2.45,1.47-4.46,1.47Zm-19.52-4.4c-.58,0-.95-.11-1.18-.34-.24-.24-.34-.61-.33-1.19.03-2.64.03-5.33.02-7.93,0-1.23,0-2.47,0-3.7,0-3.27-1.08-4.79-4.16-5.79-1.94-.63-3.9-1.39-5.81-2.26-2.35-1.06-4.23-.73-6.09,1.09-2.93,2.85-5.79,5.64-8.59,8.47-.48.49-.82.68-1.18.68h0c-.34,0-.7-.19-1.12-.61-4.44-4.43-9.09-8.99-13.8-13.54-.43-.42-.62-.75-.62-1.08,0-.33.19-.65.63-1.07,2.73-2.61,5.4-5.26,7.89-7.73,2.08-2.08,2.35-3.97.92-6.53-1.1-1.98-2.12-4.13-3.1-6.57-1-2.48-2.47-3.49-5.09-3.49-2.54,0-5.07,0-7.61,0h-2.28c-1.24,0-1.87,0-2.21-.35-.34-.35-.34-.99-.34-2.26,0-.79,0-1.59,0-2.38,0-1.99.02-4.04-.03-6.05-.01-.58.07-.92.29-1.13.21-.21.54-.31,1.08-.31h.05c3.84.04,7.75.03,11.53.03,1.34,0,2.69,0,4.04,0h.12c1.29,0,2.58,0,3.87,0,3.75,0,7.62.01,11.42-.03h.05c1.03,0,1.38.34,1.44,1.38.53,9.44,4.61,17,12.14,22.46,8.57,6.22,19.49,7.57,29.23,3.62,9.64-3.91,16.44-12.24,18.18-22.28.22-1.26.3-2.54.36-3.73.05-1.1.43-1.46,1.55-1.46h.02c7.33.04,14.77.03,21.99.03,2.51,0,5.03,0,7.54,0,2.74,0,2.79.05,2.8,2.76,0,.84,0,1.68,0,2.52,0,1.8-.02,3.65.03,5.48.01.67-.1,1.09-.36,1.36-.25.25-.65.37-1.24.37-.03,0-.06,0-.09,0-2.52-.05-5.09-.04-7.57-.03-1.16,0-2.33,0-3.48,0h0c-2.25,0-3.83,1.08-4.69,3.21-.97,2.41-2.09,4.8-3.32,7.1-1.28,2.4-1,4.24.93,6.17,2.49,2.48,5.17,5.14,7.9,7.72.51.48.71.82.71,1.18,0,.36-.21.71-.69,1.18-4.27,4.1-8.72,8.47-13.59,13.34-.49.49-.87.7-1.25.7h0c-.39,0-.76-.22-1.26-.73-2.3-2.35-4.7-4.68-7.02-6.94l-1.37-1.33c-2.05-2-3.74-2.3-6.45-1.13-2.02.87-4.13,1.65-5.94,2.31-2.68.98-3.78,2.53-3.79,5.33v1.67c-.02,3.36-.04,6.83.01,10.25,0,.6-.09.97-.32,1.2-.23.23-.58.33-1.17.33h-.03c-6.41-.03-12.97-.02-19.49.02h-.04Zm-13.96-22.07c.81,0,1.66.21,2.59.63,1.91.86,3.85,1.62,5.79,2.25,3.16,1.03,4.34,2.67,4.33,6.03,0,1.23,0,2.47,0,3.7,0,2.6,0,5.29-.02,7.93,0,.51.08.82.26,1.01.19.19.5.27,1,.27h.03c6.52-.05,13.08-.05,19.49-.02h.03c.51,0,.82-.08,1-.26.18-.18.26-.5.25-1.02-.05-3.42-.04-6.89-.02-10.26v-1.67c.02-2.89,1.2-4.55,3.96-5.56,1.81-.66,3.92-1.44,5.93-2.31,2.79-1.2,4.62-.88,6.73,1.18l1.37,1.33c2.32,2.26,4.72,4.59,7.02,6.94.45.46.77.66,1.09.66h0c.31,0,.64-.19,1.07-.63,4.87-4.87,9.32-9.24,13.6-13.34.43-.41.62-.72.62-1,0-.28-.19-.57-.64-1-2.73-2.59-5.41-5.24-7.91-7.73-2-1.99-2.3-3.99-.98-6.46,1.23-2.3,2.34-4.68,3.3-7.08.9-2.24,2.56-3.37,4.92-3.37h0c1.16,0,2.32,0,3.48,0,2.48,0,5.05-.02,7.58.03.59.02.94-.08,1.15-.29.21-.21.3-.58.29-1.18-.04-1.83-.03-3.69-.03-5.49,0-.84,0-1.68,0-2.51q0-2.51-2.55-2.51c-2.51,0-5.03,0-7.54,0-7.21,0-14.66,0-21.99-.03h-.03c-.98,0-1.25.25-1.3,1.22-.06,1.2-.14,2.48-.36,3.76-1.76,10.12-8.61,18.52-18.33,22.47-9.81,3.98-20.83,2.62-29.47-3.65-7.59-5.51-11.71-13.13-12.24-22.65-.05-.91-.28-1.14-1.18-1.14h-.05c-3.81.04-7.68.03-11.43.03-1.33,0-2.66,0-3.99,0h-.12c-1.3,0-2.61,0-3.91,0-3.78,0-7.69,0-11.53-.03h-.04c-.46,0-.74.07-.9.23-.17.17-.23.45-.22.95.05,2.02.04,4.07.03,6.06,0,.79,0,1.58,0,2.38,0,1.21,0,1.81.27,2.09.27.27.85.27,2.03.27h2.28c2.54,0,5.07,0,7.61,0,2.71,0,4.3,1.09,5.32,3.65.98,2.43,1.98,4.57,3.08,6.54,1.5,2.68,1.22,4.66-.96,6.83-2.49,2.48-5.16,5.13-7.89,7.74-.39.37-.55.64-.55.89,0,.25.17.53.55.9,4.72,4.55,9.36,9.11,13.8,13.55.37.37.67.54.94.54h0c.29,0,.58-.18,1.01-.61,2.81-2.83,5.67-5.62,8.6-8.47,1.21-1.18,2.44-1.76,3.78-1.76Zm23.7-16.53c-4.27,0-8.41-1-12.18-2.96-5.2-2.7-9.21-6.98-11.59-12.38-1.21-2.76-1.9-5.7-2.03-8.74-.02-.58.05-.91.25-1.12.2-.21.54-.3,1.12-.29,6.2.03,12.51.03,18.6.03,1.94,0,3.88,0,5.81,0h.12c1.95,0,3.89,0,5.84,0,6,0,12.21.01,18.31-.03h.04c.64,0,1.01.1,1.24.34.24.25.32.63.29,1.33-.27,5.62-2.59,11.08-6.54,15.39-3.86,4.21-9.01,7.06-14.49,8-1.61.28-3.22.42-4.81.42Zm-24.46-25.23c-.49,0-.76.07-.9.22-.15.15-.2.43-.18.93.13,3.01.8,5.92,2.01,8.64,4.82,10.93,16.2,16.87,28.3,14.77,11.33-1.96,20.28-11.92,20.82-23.16.03-.62-.03-.95-.22-1.14-.18-.19-.52-.26-1.1-.27-6.1.04-12.31.04-18.31.03-1.99,0-3.98,0-5.96,0h-.12c-3.8,0-7.59,0-11.45,0-4.26,0-8.58,0-12.84-.03h-.03Zm55.34-4.31c-3.73-.08-7.77-.08-12.36,0v-.25c4.59-.08,8.63-.08,12.36,0v.25Zm-45.19,0c-4.7-.06-9.49-.06-14.25,0v-.25c4.75-.05,9.55-.05,14.25,0v.25Zm25.96,0c-6.86-.04-13.14-.04-19.2,0v-.25c6.06-.04,12.34-.04,19.2,0v.25Z"/><rect x="28.18" y="45.24" width="5" height="28.5"/><rect x="76.18" y="49.74" width="5" height="26"/><path d="m57.18,74.74h-5V14.95c0-1.77,1.44-3.21,3.21-3.21h13.79v5h-12v58Z"/><path d="m104.07,74.74h-3.15c-.51,0-.93-.41-.93-.93v-15.65c0-1.26,1.02-2.29,2.29-2.29h19.47c.51,0,.93-.41.93-.93v-6.79c0-.51.41-.93.93-.93h3.15c.51,0,.93.41.93.93v8.68c0,2.23-1.81,4.04-4.04,4.04h-18.65v12.93c0,.51-.41.93-.93.93Z"/><path class="cls-1" d="m124.68,49.74c-6.07,0-11-4.93-11-11s4.93-11,11-11,11,4.93,11,11-4.93,11-11,11Zm0-17c-3.31,0-6,2.69-6,6s2.69,6,6,6,6-2.69,6-6-2.69-6-6-6Z"/><path class="cls-1" d="m78.68,25.74c-6.07,0-11-4.93-11-11s4.93-11,11-11,11,4.93,11,11-4.93,11-11,11Zm0-17c-3.31,0-6,2.69-6,6s2.69,6,6,6,6-2.69,6-6-2.69-6-6-6Z"/><path class="cls-1" d="m30.68,47.74c-6.07,0-11-4.93-11-11s4.93-11,11-11,11,4.93,11,11-4.93,11-11,11Zm0-17c-3.31,0-6,2.69-6,6s2.69,6,6,6,6-2.69,6-6-2.69-6-6-6Z"/><path class="cls-1" d="m78.68,53.74c-6.07,0-11-4.93-11-11s4.93-11,11-11,11,4.93,11,11-4.93,11-11,11Zm0-17c-3.31,0-6,2.69-6,6s2.69,6,6,6,6-2.69,6-6-2.69-6-6-6Z"/><line class="cls-2" x1="11.27" y1="75.74" x2="135.68" y2="75.74"/></svg>