<svg xmlns="http://www.w3.org/2000/svg" viewBox="0 0 122.52 109.701">
  <g id="Group_71" data-name="Group 71" transform="translate(-409.5 -855.705)">
    <g id="Group_69" data-name="Group 69" transform="translate(448.275 865.74)">
      <path id="Path_336" data-name="Path 336" d="M507.216,969.743a2.075,2.075,0,0,0-1.869-1.174H495.069l7.875-13.124a2.074,2.074,0,0,0-1.779-3.142H488.616a2.074,2.074,0,0,0-1.862,1.161l-11.619,23.7A2.074,2.074,0,0,0,477,980.154h10.157l-5.623,17.268a2.074,2.074,0,0,0,3.6,1.934l21.844-27.42A2.075,2.075,0,0,0,507.216,969.743ZM489.027,987.8l2.956-9.079a2.074,2.074,0,0,0-1.972-2.717h-9.686l9.585-19.554H497.5l-7.875,13.124a2.074,2.074,0,0,0,1.779,3.142h9.638Z" transform="translate(-474.923 -905.086)" fill="#2e2e2e"/>
      <path id="Path_337" data-name="Path 337" d="M539.127,972.89a2.076,2.076,0,0,0-2.127.663c-1.561,1.846-6.706,8.058-7.377,10.532a6.241,6.241,0,1,0,12.046,3.269c.671-2.473-.628-10.435-1.042-12.816A2.076,2.076,0,0,0,539.127,972.89Zm-1.462,13.377a2.092,2.092,0,0,1-4.039-1.095,29.917,29.917,0,0,1,3.612-5.323A29.923,29.923,0,0,1,537.665,986.267Z" transform="translate(-497.115 -913.443)" fill="#2e2e2e"/>
      <path id="Path_338" data-name="Path 338" d="M525.363,1008.57a2.074,2.074,0,0,0-2.127.662c-1.561,1.846-6.706,8.059-7.377,10.532a6.241,6.241,0,0,0,4.389,7.657,6.272,6.272,0,0,0,1.644.22,6.249,6.249,0,0,0,6.013-4.61c.671-2.473-.628-10.434-1.042-12.815A2.076,2.076,0,0,0,525.363,1008.57Zm-1.462,13.377a2.092,2.092,0,0,1-4.038-1.095,29.9,29.9,0,0,1,3.612-5.324A29.974,29.974,0,0,1,523.9,1021.947Z" transform="translate(-491.508 -927.976)" fill="#2e2e2e"/>
      <path id="Path_339" data-name="Path 339" d="M569.923,985.4a2.074,2.074,0,0,0-2.834-.759l-3.127,1.805v-3.611a2.074,2.074,0,0,0-4.149,0v3.611l-3.127-1.805a2.074,2.074,0,1,0-2.074,3.593l3.126,1.805-3.126,1.805a2.074,2.074,0,1,0,2.074,3.593l3.127-1.805v3.611a2.074,2.074,0,0,0,4.149,0v-3.611l3.127,1.805a2.074,2.074,0,1,0,2.074-3.593l-3.127-1.805,3.127-1.805A2.075,2.075,0,0,0,569.923,985.4Z" transform="translate(-506.96 -916.679)" fill="#2e2e2e"/>
      <path id="Path_340" data-name="Path 340" d="M564.047,959a2.074,2.074,0,0,0,2.834.76l3.127-1.806v3.611a2.074,2.074,0,1,0,4.149,0v-3.611l3.127,1.805a2.075,2.075,0,0,0,2.074-3.593l-3.127-1.805,3.127-1.805a2.074,2.074,0,0,0-2.074-3.593l-3.127,1.805v-3.611a2.074,2.074,0,0,0-4.149,0v3.611l-3.127-1.805a2.074,2.074,0,1,0-2.074,3.593l3.126,1.805-3.126,1.805A2.075,2.075,0,0,0,564.047,959Z" transform="translate(-511.112 -902.145)" fill="#2e2e2e"/>
      <path id="Path_341" data-name="Path 341" d="M552.324,903.6a33.581,33.581,0,0,0-33.616-30.965,32.3,32.3,0,0,0-26.066,12.76,2.074,2.074,0,1,0,3.281,2.538,27.869,27.869,0,0,1,22.785-11.149,29.456,29.456,0,0,1,29.562,28.582l.057,1.7,1.682.274a13.755,13.755,0,0,1-2.206,27.333,2.074,2.074,0,0,0,0,4.149,17.9,17.9,0,0,0,4.52-35.225Z" transform="translate(-481.964 -872.636)" fill="#2e2e2e"/>
    </g>
    <g id="Group_70" data-name="Group 70" transform="translate(409.5 855.705)">
      <path id="Path_342" data-name="Path 342" d="M471.558,870.6a2.074,2.074,0,0,0,2.074-2.074V857.779a2.074,2.074,0,1,0-4.149,0v10.744A2.074,2.074,0,0,0,471.558,870.6Z" transform="translate(-433.933 -855.705)" fill="#00a399"/>
      <path id="Path_343" data-name="Path 343" d="M471.558,957.545a2.074,2.074,0,0,0-2.074,2.074v10.744a2.074,2.074,0,0,0,4.149,0V959.619A2.074,2.074,0,0,0,471.558,957.545Z" transform="translate(-433.933 -897.187)" fill="#00a399"/>
      <path id="Path_344" data-name="Path 344" d="M429.723,936.18l-5.262,2.861a2.074,2.074,0,1,0,1.982,3.645l5.262-2.861a2.074,2.074,0,0,0-1.982-3.645Z" transform="translate(-415.152 -888.382)" fill="#00a399"/>
      <path id="Path_345" data-name="Path 345" d="M448.285,951.557a2.075,2.075,0,0,0-2.857.668l-3.322,5.349a2.074,2.074,0,1,0,3.524,2.189l3.322-5.348A2.075,2.075,0,0,0,448.285,951.557Z" transform="translate(-422.654 -894.621)" fill="#00a399"/>
      <path id="Path_346" data-name="Path 346" d="M446.914,878.65a2.075,2.075,0,1,0,3.606-2.053l-3.115-5.472a2.075,2.075,0,1,0-3.606,2.052Z" transform="translate(-423.36 -861.559)" fill="#00a399"/>
      <path id="Path_347" data-name="Path 347" d="M432.921,892.377l-5.412-3.218a2.075,2.075,0,0,0-2.121,3.567l5.412,3.218a2.075,2.075,0,0,0,2.12-3.567Z" transform="translate(-415.559 -869.213)" fill="#00a399"/>
      <path id="Path_348" data-name="Path 348" d="M424.392,917.762a2.074,2.074,0,0,0-2.074-2.074H411.574a2.074,2.074,0,0,0,0,4.149h10.743A2.074,2.074,0,0,0,424.392,917.762Z" transform="translate(-409.5 -880.138)" fill="#00a399"/>
      <path id="Path_349" data-name="Path 349" d="M516.37,939.041l-5.262-2.861a2.074,2.074,0,0,0-1.981,3.645l5.262,2.861a2.074,2.074,0,0,0,1.982-3.645Z" transform="translate(-449.639 -888.382)" fill="#00a399"/>
      <path id="Path_350" data-name="Path 350" d="M492.564,879.427a2.072,2.072,0,0,0,2.829-.778l3.114-5.472a2.074,2.074,0,1,0-3.606-2.051l-3.114,5.472A2.074,2.074,0,0,0,492.564,879.427Z" transform="translate(-442.907 -861.559)" fill="#00a399"/>
      <path id="Path_351" data-name="Path 351" d="M509.926,895.944l5.412-3.218a2.075,2.075,0,0,0-2.121-3.567l-5.412,3.218a2.075,2.075,0,1,0,2.121,3.567Z" transform="translate(-449.129 -869.213)" fill="#00a399"/>
      <path id="Path_352" data-name="Path 352" d="M525.488,915.688H514.744a2.074,2.074,0,0,0,0,4.149h10.744a2.074,2.074,0,0,0,0-4.149Z" transform="translate(-451.524 -880.138)" fill="#00a399"/>
      <path id="Path_353" data-name="Path 353" d="M459.779,885.828A19.971,19.971,0,1,0,479.75,905.8,19.994,19.994,0,0,0,459.779,885.828Zm0,35.794A15.823,15.823,0,1,1,475.6,905.8,15.84,15.84,0,0,1,459.779,921.622Z" transform="translate(-421.845 -867.975)" fill="#00a399"/>
    </g>
  </g>
</svg>
