<svg xmlns="http://www.w3.org/2000/svg" viewBox="0 0 217.79 103.65"><defs><style>.cls-1{fill:#2e2e2e;}.cls-2{fill:#00a399;}</style></defs><g id="Layer_2" data-name="Layer 2"><g id="Calque_1" data-name="Calque 1"><path class="cls-1" d="M214.29,89.72H197.88a3.5,3.5,0,0,0,0,7h16.41a3.5,3.5,0,0,0,0-7Z"/><path class="cls-1" d="M177.22,89.72H151.39V82.06a3.5,3.5,0,0,0-7,0v7.66h-33V77.06a3.5,3.5,0,0,0-7,0V89.72h-33V82.06a3.5,3.5,0,0,0-7,0v7.66h-33V77.06a3.5,3.5,0,0,0-7,0V89.72H3.5a3.5,3.5,0,0,0,0,7H177.22a3.5,3.5,0,0,0,0-7Z"/><path class="cls-1" d="M81.86,35.23a35.25,35.25,0,0,0,7.68,17.1c4.11,4.82,9.62,8.46,16.82,11.12a4.27,4.27,0,0,0,1.48.26,5,5,0,0,0,1.94-.4l1.06-.44c1.29-.54,2.64-1.1,4-1.77a34.21,34.21,0,0,0,15-14,40.84,40.84,0,0,0,4.81-18.24c.17-3.76.16-7.55.16-11.22,0-1.57,0-3.14,0-4.71a5,5,0,0,0-.13-1.14,3.51,3.51,0,0,0-3.32-2.9c-8.48-.34-15.41-2.95-21.16-8a3.5,3.5,0,0,0-4.62,0c-5.75,5.05-12.74,7.67-21.37,8a3.51,3.51,0,0,0-3.36,3.5v2.51c0,1.79,0,3.55,0,5.3A83.63,83.63,0,0,0,81.86,35.23Zm6-19.6a39,39,0,0,0,20-7.62,39.52,39.52,0,0,0,19.92,7.61v2c0,3.59,0,7.3-.15,10.9a34.08,34.08,0,0,1-4,15.18,27,27,0,0,1-12,11.14c-1.1.56-2.26,1-3.5,1.55l-.3.13c-5.65-2.21-9.79-5-13-8.74A28.41,28.41,0,0,1,88.75,34a77.54,77.54,0,0,1-.92-13.78C87.84,18.69,87.83,17.17,87.83,15.63Z"/><path class="cls-1" d="M1.86,35.23a35.25,35.25,0,0,0,7.68,17.1c4.11,4.82,9.62,8.46,16.82,11.12a4.27,4.27,0,0,0,1.48.26,5,5,0,0,0,1.94-.4l1.06-.44c1.29-.54,2.64-1.1,4-1.77a34.21,34.21,0,0,0,15-14,40.84,40.84,0,0,0,4.81-18.24c.17-3.76.16-7.55.16-11.22,0-1.57,0-3.14,0-4.71a5,5,0,0,0-.13-1.14,3.51,3.51,0,0,0-3.32-2.9c-8.48-.34-15.41-2.95-21.16-8a3.5,3.5,0,0,0-4.62,0c-5.75,5.05-12.74,7.67-21.37,8a3.51,3.51,0,0,0-3.36,3.5v2.51c0,1.79,0,3.55,0,5.3A83.63,83.63,0,0,0,1.86,35.23Zm6-19.6A39,39,0,0,0,27.87,8a39.52,39.52,0,0,0,19.92,7.61v2c0,3.59,0,7.3-.15,10.9a34.08,34.08,0,0,1-4,15.18,27,27,0,0,1-12,11.14c-1.1.56-2.26,1-3.5,1.55l-.3.13c-5.65-2.21-9.79-5-13-8.74A28.41,28.41,0,0,1,8.75,34a77.54,77.54,0,0,1-.92-13.78C7.84,18.69,7.83,17.17,7.83,15.63Z"/><path class="cls-1" d="M99,34.36h18.48a3.5,3.5,0,0,0,0-7H99a3.5,3.5,0,0,0,0,7Z"/><path class="cls-1" d="M18.23,39.86a3.49,3.49,0,0,0,4.95,0l4.06-4,4.06,4a3.49,3.49,0,0,0,4.95,0,3.51,3.51,0,0,0,0-5l-4.06-4,4.06-4.06a3.5,3.5,0,0,0-4.95-4.95l-4.06,4.06-4.06-4.06a3.5,3.5,0,0,0-4.95,4.95l4.06,4.06-4.06,4A3.51,3.51,0,0,0,18.23,39.86Z"/><path class="cls-2" d="M214.79,12.91a5,5,0,0,0-.13-1.14,3.51,3.51,0,0,0-3.32-2.9c-8.48-.34-15.41-2.95-21.16-8a3.5,3.5,0,0,0-4.62,0c-5.75,5.05-12.74,7.67-21.37,8a3.51,3.51,0,0,0-3.36,3.5v2.51c0,1.79,0,3.55,0,5.3a83.63,83.63,0,0,0,1,15,35.25,35.25,0,0,0,7.68,17.1c4.11,4.82,9.62,8.46,16.82,11.12a4.27,4.27,0,0,0,1.48.26,5,5,0,0,0,1.94-.4l1.06-.44c1.29-.54,2.64-1.1,4-1.77a34.21,34.21,0,0,0,15-14,40.84,40.84,0,0,0,4.81-18.24c.17-3.76.16-7.55.16-11.22C214.79,16.05,214.78,14.48,214.79,12.91Zm-7.15,15.62a34.08,34.08,0,0,1-3.95,15.18,27,27,0,0,1-12,11.14c-1.1.56-2.26,1-3.5,1.55l-.3.13c-5.65-2.21-9.79-5-13-8.74A28.41,28.41,0,0,1,168.75,34a77.54,77.54,0,0,1-.92-13.78c0-1.52,0-3,0-4.58a39,39,0,0,0,20-7.62,39.52,39.52,0,0,0,19.92,7.61v2C207.79,21.22,207.8,24.93,207.64,28.53Z"/><path class="cls-2" d="M202.65,20a3.49,3.49,0,0,0-4.88.79l-10.2,14.11-5.29-7.24a3.5,3.5,0,1,0-5.65,4.13l8.13,11.13a3.51,3.51,0,0,0,2.82,1.44h0a3.55,3.55,0,0,0,2.83-1.45l13-18A3.5,3.5,0,0,0,202.65,20Z"/><path class="cls-2" d="M191.27,74.77a3.5,3.5,0,0,0-6.06,0L171.57,98.4a3.5,3.5,0,0,0,3,5.25h27.28a3.5,3.5,0,0,0,3-5.25ZM180.66,96.65l7.58-13.13,7.58,13.13Z"/></g></g></svg>