<?xml version="1.0" encoding="utf-8"?>
<!-- Generator: Adobe Illustrator 25.3.1, SVG Export Plug-In . SVG Version: 6.00 Build 0)  -->
<svg width="2400px" height="1148px" version="1.1" id="Layer_1" xmlns="http://www.w3.org/2000/svg" xmlns:xlink="http://www.w3.org/1999/xlink" x="0px" y="0px"
	 viewBox="0 0 600 287" style="background-color:rgba(0,0,0,0.2)" xml:space="preserve">
<style type="text/css">
	.yellow{fill:#FFDE1B;stroke-width:2px;stroke:#fff}
	.red{fill:#EF492F;stroke-width:2px;stroke:#fff}
	.black{fill:#231F20;stroke-width:2px;stroke:#fff}
	.green{fill:rgb(0, 164, 154);stroke-width:2px;stroke:#fff}
	.transparent{fill:none;stroke-width:3px;stroke:#fff}
	.overlay{fill:rgb(0, 164, 154);stroke:rgb(0, 164, 154);stroke-width:0px}
</style>
<g transform="translate(-30 0) scale(0.5 0.5)">
	<!-- <polygon class="transparent" points="-82.9,144.5 0,1 82.9,144.5" transform="translate(283 446) rotate(-120 0 0)"/>
	<polygon class="transparent" points="-82.9,144.5 0,1 82.9,144.5" transform="translate(535 300) rotate(-120 0 0)"/>
	<polygon class="transparent" points="-82.9,144.5 0,1 82.9,144.5" transform="translate(702 300) rotate(-120 0 0)"/> -->
<g id="bottom-left">
	<path class="transparent" d="M 83.9,-145.2 L -83.9,-145.2 L -167,0 L -83.9,145.2 L 83.9,145.2 L 167,0 L 0,0 L 83.9,-145.2 L -83.9,-145.2" transform="translate(200 300)"/>
	<path class="transparent" d="M 0,0 168.2,0 L 252 146"  transform="translate(200 300)" />
	<polygon class="yellow" points="-82.9,144.5 0,1 82.9,144.5" transform="translate(200 300)"/>
	<polygon class="red" points="-82.9,144.5 0,1 82.9,144.5" transform="translate(200 300) rotate(-60 0 0)"/>
	<polygon class="black" points="-82.9,144.5 0,1 82.9,144.5" transform="translate(200 300) rotate(-180 0 0)"/>
	<polygon class="black" points="-82.9,144.5 0,1 82.9,144.5" transform="translate(200 300) rotate(-240 0 0)"/>
	<polygon class="yellow" points="-82.9,144.5 0,1 82.9,144.5" transform="translate(200 300) rotate(-300 0 0)"/>
</g>
<g id="top-right" transform="translate(251 -145.5)">
	<path class="transparent" d="M 83.9,-145.2 L -83.9,-145.2 L -167,0 L -83.9,145.2 L 83.9,145.2 L 167,0 L 0,0 L 83.9,-145.2 L -83.9,-145.2" transform="translate(200 300)"/>
	<path class="transparent" d="M 0,0 168.2,0 L 252 146"  transform="translate(200 300)" />
	<polygon class="yellow" points="-82.9,144.5 0,1 82.9,144.5" transform="translate(200 300)"/>
	<polygon class="red" points="-82.9,144.5 0,1 82.9,144.5" transform="translate(200 300) rotate(-60 0 0)"/>
	<polygon class="black" points="-82.9,144.5 0,1 82.9,144.5" transform="translate(200 300) rotate(-180 0 0)"/>
	<polygon class="black" points="-82.9,144.5 0,1 82.9,144.5" transform="translate(200 300) rotate(-240 0 0)"/>
	<polygon class="yellow" points="-82.9,144.5 0,1 82.9,144.5" transform="translate(200 300) rotate(-300 0 0)"/>
</g>
<g id="bottom-left" transform="translate(167 290)">
	<path class="transparent" d="M 83.9,-145.2 L -83.9,-145.2 L -167,0 L -83.9,145.2 L 83.9,145.2 L 167,0 L 0,0 L 83.9,-145.2 L -83.9,-145.2" transform="translate(200 300)"/>
	<polygon class="yellow" points="-82.9,144.5 0,1 82.9,144.5" transform="translate(200 300)"/>
	<polygon class="red" points="-82.9,144.5 0,1 82.9,144.5" transform="translate(200 300) rotate(-60 0 0)"/>
	<polygon class="black" points="-82.9,144.5 0,1 82.9,144.5" transform="translate(200 300) rotate(-180 0 0)"/>
	<polygon class="black" points="-82.9,144.5 0,1 82.9,144.5" transform="translate(200 300) rotate(-240 0 0)"/>
	<polygon class="yellow" points="-82.9,144.5 0,1 82.9,144.5" transform="translate(200 300) rotate(-300 0 0)"/>
</g>
<g id="bottom-right" transform="translate(418 145.5)">
	<path class="transparent" d="M 83.9,-145.2 L -83.9,-145.2 L -167,0 L -83.9,145.2 L 83.9,145.2 L 167,0 L 0,0 L 83.9,-145.2 L -83.9,-145.2" transform="translate(200 300)"/>
	<path class="transparent" d="M 0,0 168.2,0 L 252 146"  transform="translate(200 300)" />
	<polygon class="yellow" points="-82.9,144.5 0,1 82.9,144.5" transform="translate(200 300)"/>
	<polygon class="red" points="-82.9,144.5 0,1 82.9,144.5" transform="translate(200 300) rotate(-60 0 0)"/>
	<polygon class="black" points="-82.9,144.5 0,1 82.9,144.5" transform="translate(200 300) rotate(-180 0 0)"/>
	<polygon class="black" points="-82.9,144.5 0,1 82.9,144.5" transform="translate(200 300) rotate(-240 0 0)"/>
	<polygon class="yellow" points="-82.9,144.5 0,1 82.9,144.5" transform="translate(200 300) rotate(-300 0 0)"/>
</g>
	</g>
</svg>
