<svg id="Layer_1" data-name="Layer 1" xmlns="http://www.w3.org/2000/svg" viewBox="0 0 123.95 110.46"><defs><style>.cls-1{fill:#2e2e2e;stroke:#2e2e2e;}.cls-1,.cls-2{stroke-miterlimit:10;stroke-width:0.75px;}.cls-2{fill:#00a399;stroke:#00a39a;}</style></defs><g id="Layer_2" data-name="Layer 2"><g id="Calque_1" data-name="Calque 1"><path class="cls-1" d="M42.59,99.08a1.86,1.86,0,0,1-1.86-1.86V84.8c0-2.56,1.14-4.2,2.24-5.79s1.93-2.78,1.93-4.64S44,72,41,71.62c-1.56-.17-3.33-.37-4.54-1.59a14.27,14.27,0,0,1-2-3.11c-1.5-2.7-3.55-6.43-8.6-7.2a1.86,1.86,0,0,1,.36-3.7l.17,0c6.91,1.07,9.67,6.09,11.33,9.11a12.13,12.13,0,0,0,1.43,2.26,6.14,6.14,0,0,0,2.32.53c2,.22,7.18.8,7.18,6.44a11.34,11.34,0,0,1-2.59,6.75c-1,1.38-1.59,2.28-1.59,3.68V97.23A1.86,1.86,0,0,1,42.59,99.08Zm43.8-6.16a4,4,0,0,1-2.93-1.31c-.88-1-5.19-6-5.19-11a8.4,8.4,0,0,1,1.9-5.71l.17-.23c0-.06,0-.14,0-.32A5.56,5.56,0,0,0,79.67,72c-.11-.25-.23-.47-.36-.71a7.31,7.31,0,0,1-1-2.94,94.32,94.32,0,0,0-10.72-.41c-6.7,0-10.2-4.08-10.2-8.12,0-.42,0-.93-.1-1.47v-.1c-.25-2.86-.67-7.63,3.35-11.64C65.29,42,72.23,41.28,76,41.28a13.12,13.12,0,0,1,6.49,1.37,7.34,7.34,0,0,0,3.94.72c.84,0,1.68,0,2.5,0a11.24,11.24,0,0,0,6-2.32c-.53-1.54-6-6.38-12.22-7.55a4.58,4.58,0,0,1,.4,3.57,2.64,2.64,0,0,1-1.59,1.53c-3.34,1.27-5.55-1.82-6.61-3.31l-.13-.18c-.22.07-.58.18-.69.23a3,3,0,0,0-.37.86c-.53,1.53-1.38,4.08-6,4.52a3.73,3.73,0,0,1-3-1.15,7.53,7.53,0,0,1-1.93-6.42c.66-4.17,4.3-5.88,7.52-7.39L72.1,25c.27-.14.53-.27.7-.38a3.94,3.94,0,0,1,.38-5.15c1.65-1.65,4.81-2.89,9.67-3.8a1.86,1.86,0,0,1,.69,3.65c-5.32,1-7.12,2.17-7.73,2.78a.23.23,0,0,0-.07.17.3.3,0,0,0,.08.16,7.55,7.55,0,0,1,1.12,1.21,1.33,1.33,0,0,1,.14.19,1.84,1.84,0,0,1,.1,1.79c-.4.86-1.52,1.75-3.4,2.7L72,29.17c-3.15,1.48-5.09,2.53-5.42,4.6A3.86,3.86,0,0,0,67.47,37l.08.06c2.09-.22,2.29-.82,2.69-2a4.55,4.55,0,0,1,2.29-3,9.45,9.45,0,0,1,1.26-.45c.23-.06.53-.16.67-.21,1.69-.76,2.79.78,3.52,1.8a13.56,13.56,0,0,0,1.15,1.45c-.1-.2-.19-.4-.26-.53-.62-1.29-1.15-2.42-.46-3.53a2.09,2.09,0,0,1,1.78-1c5.31,0,10.06,2.65,12.42,4.25,1,.64,6.06,4.19,6.06,7.18a3.29,3.29,0,0,1-.94,2.55,14.44,14.44,0,0,1-8.89,3.54l-2.45,0A11.08,11.08,0,0,1,80.86,46,9.38,9.38,0,0,0,76,45c-3.15,0-9,.53-12.68,4.26C60.5,52,60.79,55.3,61,57.93V58c.06.62.11,1.21.11,1.8,0,3.22,3.88,4.39,6.48,4.39,11,0,13.07.43,14,1.82A1.83,1.83,0,0,1,82,67.12a4.1,4.1,0,0,0,.61,2.41c.18.32.34.65.49,1a8.89,8.89,0,0,1,1,3.88,3.88,3.88,0,0,1-1,2.82A4.8,4.8,0,0,0,82,80.65c0,3,2.66,6.74,4.26,8.5a.2.2,0,0,0,.16.07h0c.43-.11,10.6-2.78,10.6-8.56a5.77,5.77,0,0,1,2.38-5.13,3.91,3.91,0,0,0,1.79-3.19c0-3.39,6.14-10.21,6.2-10.27a.3.3,0,0,0,.06-.18.24.24,0,0,0-.08-.15c-.08-.11-6.23-4.91-8.19-10.17a1.86,1.86,0,0,1,2.6-2.31A13.59,13.59,0,0,1,105,51.6a1.59,1.59,0,0,0,1.29.45c.58,0,2.91-.53,7.65-5.81a1.86,1.86,0,0,1,2.85,2.39l-.09.09c-4.11,4.59-7.44,6.91-10.23,7.05h0a31,31,0,0,0,3.19,3,3.94,3.94,0,0,1,.74,5.52c-.07.08-.13.17-.21.25-3,3.35-5.15,6.91-5.23,7.8a7.44,7.44,0,0,1-3.07,6,2.23,2.23,0,0,0-1.1,2.33c0,3.62-2.23,6.85-6.46,9.32a28.55,28.55,0,0,1-6.94,2.84A4.15,4.15,0,0,1,86.39,92.92Zm8.75-52ZM77,23.67Zm-1.47-.73a1.81,1.81,0,0,1,1.33.57A1.81,1.81,0,0,0,75.5,22.94Z"/><path class="cls-1" d="M41.84,24.38a48.14,48.14,0,1,1-14,18.05l3.8.64a44.54,44.54,0,1,0,12-15.41Z"/></g></g><g id="Layer_2-2" data-name="Layer 2"><g id="Calque_1-2" data-name="Calque 1"><path class="cls-2" d="M28.65,36.49h0a1.61,1.61,0,0,1,0-3.22,1.62,1.62,0,0,1,1.63,1.6h0a1.61,1.61,0,0,1-1.61,1.61Z"/><path class="cls-2" d="M52.1,43.86H5.18a1.62,1.62,0,0,1-1.6-1.63,1.67,1.67,0,0,1,.22-.79L27.28.8a1.61,1.61,0,0,1,2.78,0L53.54,41.44a1.61,1.61,0,0,1-.59,2.2,1.67,1.67,0,0,1-.79.22ZM8,40.64H49.31L28.64,4.83Z"/><path class="cls-2" d="M28.64,30.48A1.61,1.61,0,0,1,27,28.87V18.58a1.61,1.61,0,0,1,3.22,0V28.87A1.61,1.61,0,0,1,28.64,30.48Z"/></g></g></svg>