<?xml version="1.0" encoding="UTF-8" standalone="no"?>
<!-- Created with Inkscape (http://www.inkscape.org/) -->

<svg
   version="1.1"
   id="svg2"
   width="2857.3333"
   height="1020"
   viewBox="0 0 2857.3333 1020">
  <defs
     id="defs6">
    <clipPath
       clipPathUnits="userSpaceOnUse"
       id="clipPath16">
      <path
         d="M 0,765 H 2143 V 0 H 0 Z"
         id="path14" />
    </clipPath>
  </defs>
  <g
     id="g8"
     transform="matrix(1.3333333,0,0,-1.3333333,0,1020)">
    <g
       id="g10">
      <g
         id="g12"
         clip-path="url(#clipPath16)">
        <g
           id="g18"
           transform="translate(994.0208,291.3252)">
          <path
             d="m 0,0 h 49.592 c 16.736,0 28.813,3.21 36.23,9.632 7.415,6.421 11.124,14.685 11.124,24.796 0,7.539 -1.864,14.355 -5.592,20.445 -3.729,6.091 -9.033,10.896 -15.91,14.418 -6.879,3.521 -15.082,5.282 -24.609,5.282 H 0 Z m 0,107.759 h 45.614 c 7.955,0 15.121,1.47 21.503,4.412 6.379,2.94 11.413,7.125 15.101,12.554 3.686,5.425 5.531,11.869 5.531,19.327 0,9.859 -3.461,17.978 -10.378,24.36 -6.92,6.38 -17.174,9.57 -30.762,9.57 H 0 Z M -46.111,-38.53 v 254.546 h 97.443 c 18.395,0 33.702,-2.881 45.925,-8.639 12.222,-5.76 21.378,-13.609 27.468,-23.553 6.09,-9.943 9.135,-21.213 9.135,-33.806 0,-10.36 -1.988,-19.204 -5.965,-26.537 -3.978,-7.333 -9.323,-13.279 -16.034,-17.835 -6.712,-4.558 -14.212,-7.831 -22.497,-9.819 v -2.486 c 9.032,-0.497 17.712,-3.253 26.039,-8.265 8.327,-5.014 15.142,-12.078 20.446,-21.191 5.301,-9.116 7.955,-20.135 7.955,-33.062 0,-13.175 -3.192,-25.004 -9.571,-35.484 -6.381,-10.484 -15.993,-18.748 -28.835,-24.796 -12.844,-6.05 -29.002,-9.073 -48.473,-9.073 z"
             style="fill:#ffffff;fill-opacity:1;fill-rule:nonzero;stroke:none"
             id="path20" />
        </g>
        <g
           id="g22"
           transform="translate(1387.1448,507.3408)">
          <path
             d="m 0,0 v -254.546 h -41.016 l -119.939,173.384 h -2.113 V -254.546 H -209.18 V 0 h 41.265 L -48.1,-173.509 h 2.237 V 0 Z"
             style="fill:#ffffff;fill-opacity:1;fill-rule:nonzero;stroke:none"
             id="path24" />
        </g>
        <g
           id="g26"
           transform="translate(1568.7278,368.1357)">
          <path
             d="M 0,0 63.015,-115.341 H 11.559 L -50.338,0 Z m -131.499,-115.341 v 254.546 h 95.455 c 19.554,0 35.982,-3.399 49.28,-10.192 C 26.535,122.218 36.603,112.71 43.438,100.488 50.274,88.266 53.692,74.034 53.692,57.795 53.692,41.47 50.232,27.322 43.314,15.35 36.396,3.375 26.225,-5.863 12.802,-12.367 c -13.424,-6.505 -29.913,-9.756 -49.468,-9.756 h -67.986 v 38.281 h 61.772 c 11.435,0 20.797,1.594 28.089,4.785 7.291,3.189 12.697,7.87 16.22,14.044 3.521,6.172 5.282,13.776 5.282,22.808 0,9.03 -1.782,16.758 -5.344,23.18 -3.564,6.421 -8.992,11.31 -16.282,14.666 -7.292,3.356 -16.697,5.034 -28.214,5.034 h -42.259 v -216.016 z"
             style="fill:#ffffff;fill-opacity:1;fill-rule:nonzero;stroke:none"
             id="path28" />
        </g>
        <path
           d="m 1699.228,352.6 h 134.233 v -37.038 h -134.233 z m -1.615,-99.805 h -49.219 l 89.612,254.546 h 56.925 l 89.737,-254.546 h -49.219 l -67.986,202.344 h -1.988 z"
           style="fill:#ffffff;fill-opacity:1;fill-rule:nonzero;stroke:none"
           id="path30" />
        <g
           id="g32"
           transform="translate(753.6999,190.7229)">
          <path
             d="m 0,0 -66.39,27.863 150.538,358.691 66.39,-27.863 z"
             style="fill:#f0492e;fill-opacity:1;fill-rule:nonzero;stroke:none"
             id="path34" />
        </g>
        <g
           id="g36"
           transform="translate(522.6973,207.0119)">
          <path
             d="m 0,0 -50.912,50.912 275.065,275.064 50.912,-50.911 z"
             style="fill:#ffdf1c;fill-opacity:1;fill-rule:nonzero;stroke:none"
             id="path38" />
        </g>
        <g
           id="g40"
           transform="translate(294.3318,224.5731)">
          <path
             d="m 0,0 -36,62.354 336.884,194.5 36,-62.354 z"
             style="fill:#000000;fill-opacity:1;fill-rule:nonzero;stroke:none"
             id="path42" />
        </g>
      </g>
    </g>
  </g>
</svg>
