<svg xmlns="http://www.w3.org/2000/svg" viewBox="0 0 150.21 148.37"><defs><style>.cls-1{fill:#00a399;}.cls-2{fill:#2e2e2e;}</style></defs><g id="Layer_2" data-name="Layer 2"><g id="Calque_1" data-name="Calque 1"><path class="cls-1" d="M122.32,32.44a25.35,25.35,0,0,0-19-7.44,26.14,26.14,0,0,0-52.25,1.14V54.72a3.78,3.78,0,0,0-.69.52L28.15,77.46a3.5,3.5,0,0,0,4.94,5l18-18V97.77a3.5,3.5,0,0,0,7,0V26.14A19.13,19.13,0,0,1,96.27,25,25.5,25.5,0,0,0,69.49,55.67a3.5,3.5,0,0,0,2.72,2.72,25.8,25.8,0,0,0,5.23.54A25.48,25.48,0,0,0,99.37,46.4a26.05,26.05,0,0,0,3.93,5.06,25.44,25.44,0,0,0,18,7.47,25.8,25.8,0,0,0,5.23-.54,3.49,3.49,0,0,0,2.71-2.72A25.41,25.41,0,0,0,122.32,32.44ZM90.5,46.51A18.45,18.45,0,0,1,76,51.87,18.5,18.5,0,0,1,95.86,32c0,.09,0,.17,0,.26a22.65,22.65,0,0,0,0,2.33A18.41,18.41,0,0,1,90.5,46.51Zm32.24,5.36a18.46,18.46,0,0,1-19.85-17.26,22.44,22.44,0,0,0,0-2.32c0-.09,0-.18,0-.27a18.5,18.5,0,0,1,19.85,19.85Z"/><path class="cls-2" d="M145.71,97.72H4.5a4.51,4.51,0,0,0-4.5,4.5v41.65a4.51,4.51,0,0,0,4.5,4.5H145.71a4.51,4.51,0,0,0,4.5-4.5V102.22A4.51,4.51,0,0,0,145.71,97.72Zm-43.17,43.65,8.45-8.45a3.48,3.48,0,0,0,1-2.47V116.07a3.5,3.5,0,0,0-7,0V129L92.65,141.37H56.71l-3.26-6.51,4.48-16.35a3.5,3.5,0,1,0-6.75-1.85l-4,14.53L25.27,127a3.5,3.5,0,1,0-1.3,6.88l23.4,4.43,1.52,3H7V104.72H23.17L36.47,118a3.44,3.44,0,0,0,2.47,1,3.51,3.51,0,0,0,2.48-6l-8.35-8.34H78.78l-6.92,17a3.5,3.5,0,0,0,3.25,4.82H93.5a3.5,3.5,0,0,0,0-7H80.31l6-14.82h56.87v5.72l-12.38,9.87a3.5,3.5,0,0,0,2.19,6.23,3.53,3.53,0,0,0,2.18-.76l8-6.39v22Z"/><path class="cls-2" d="M15.71,119.59a3.5,3.5,0,0,0,0,7h0a3.5,3.5,0,0,0,0-7Z"/><path class="cls-2" d="M65.71,127.59a3.5,3.5,0,1,0,0,7h0a3.5,3.5,0,0,0,0-7Z"/><path class="cls-2" d="M129.71,130.59a3.5,3.5,0,0,0,0,7h0a3.5,3.5,0,0,0,0-7Z"/><path class="cls-2" d="M121.71,109.59a3.5,3.5,0,0,0,0,7h0a3.5,3.5,0,0,0,0-7Z"/></g></g></svg>