<svg xmlns="http://www.w3.org/2000/svg" viewBox="0 0 152.13 182.27"><defs><style>.cls-1{fill:#2e2e2e;}.cls-2{fill:#00a399;}</style></defs><g id="Layer_2" data-name="Layer 2"><g id="Calque_2" data-name="Calque 2"><path class="cls-1" d="M76.14,182.27a5.83,5.83,0,0,1-2-.34c-21.06-7.78-37.07-18.33-48.95-32.28-11.26-13.21-18.48-29.36-22.1-49.39C.33,85,0,69.56,0,55.1c0-5.46,0-10.92,0-16.49V30.94a3.51,3.51,0,0,1,3.36-3.5C31.77,26.3,54.86,17.61,73.94.87a3.5,3.5,0,0,1,4.62,0c19.09,16.75,42,25.43,69.94,26.53a3.5,3.5,0,0,1,3.32,2.91c0,.16.06.3.09.44a7.88,7.88,0,0,1,.22,1.8c0,4.86,0,9.72,0,14.58,0,11.26,0,22.9-.48,34.36-.92,20.39-5.49,37.78-14,53.17C128.2,151.87,114,165.06,94.39,175c-3.87,2-7.89,3.63-11.78,5.24l-3.32,1.39A8.43,8.43,0,0,1,76.14,182.27Zm.4-6.91h0ZM7,34.27v4.34c0,5.58,0,11,0,16.5C7,69.24,7.31,84.34,10,99c3.39,18.77,10.11,33.85,20.54,46.09,11,12.95,26,22.81,45.76,30.14l.3-.09,3.37-1.41c3.77-1.56,7.67-3.18,11.31-5,18.34-9.27,31.53-21.52,40.3-37.45,7.94-14.43,12.22-30.82,13.1-50.12.51-11.3.49-22.85.47-34,0-4.31,0-8.61,0-12.91C118,32.63,95.39,24.06,76.25,8.1,57.15,24,34.44,32.59,7,34.27Z"/><path class="cls-2" d="M131.62,110.2a29.49,29.49,0,0,0-17.94-22.09A16.62,16.62,0,1,0,91.56,88a29.79,29.79,0,0,0-5.47,2.89,10.55,10.55,0,0,0-20.7-.44,29.56,29.56,0,0,0-4.62-2.36A16.61,16.61,0,1,0,38.67,88a29.48,29.48,0,0,0-18.16,22.25,3.5,3.5,0,0,0,2.83,4.06,3.26,3.26,0,0,0,.62.06,3.51,3.51,0,0,0,3.44-2.89A22.58,22.58,0,0,1,65.73,99.68,17.46,17.46,0,0,0,58.59,110a3.49,3.49,0,1,0,6.79,1.66,10.55,10.55,0,0,1,20.48,0,3.5,3.5,0,0,0,3.39,2.67,3.44,3.44,0,0,0,.84-.1A3.49,3.49,0,0,0,92.65,110a17.45,17.45,0,0,0-6.6-9.92,22.58,22.58,0,0,1,38.69,11.38,3.49,3.49,0,0,0,3.44,2.87,3.34,3.34,0,0,0,.62-.06A3.48,3.48,0,0,0,131.62,110.2Zm-55.92-21a3.56,3.56,0,1,1-3.56,3.56A3.57,3.57,0,0,1,75.7,89.18ZM49.77,66.08a9.62,9.62,0,1,1-9.61,9.62A9.63,9.63,0,0,1,49.77,66.08Zm52.89,0A9.62,9.62,0,1,1,93,75.7,9.64,9.64,0,0,1,102.66,66.08Z"/></g></g></svg>