<svg xmlns="http://www.w3.org/2000/svg" viewBox="0 0 127 139.8"><defs><style>.cls-1{fill:#00a399;}.cls-2{fill:#2e2e2e;}</style></defs><g id="Layer_2" data-name="Layer 2"><g id="Calque_2" data-name="Calque 2"><path class="cls-1" d="M97.22,42.85a2.51,2.51,0,0,1-2.42-3.16l7.45-27.33L74.92,4.91A2.5,2.5,0,1,1,76.23.09L104,7.66a4.53,4.53,0,0,1,3.17,5.54L99.63,41A2.5,2.5,0,0,1,97.22,42.85Zm5.5-30.36h0Z"/><path class="cls-1" d="M19.37,62.4a2.5,2.5,0,0,1-1.23-4.67l75.4-42.56A2.5,2.5,0,0,1,96,19.53L20.6,62.08A2.48,2.48,0,0,1,19.37,62.4Z"/><path class="cls-2" d="M19.37,139.8H3.5A3.5,3.5,0,0,1,0,136.3V104.72a3.5,3.5,0,0,1,3.5-3.5H19.37a3.5,3.5,0,0,1,3.5,3.5V136.3A3.5,3.5,0,0,1,19.37,139.8ZM7,132.8h8.87V108.22H7Z"/><path class="cls-2" d="M45.4,139.8H29.53a3.5,3.5,0,0,1-3.5-3.5V89.72a3.5,3.5,0,0,1,3.5-3.5H45.4a3.5,3.5,0,0,1,3.5,3.5V136.3A3.5,3.5,0,0,1,45.4,139.8ZM33,132.8H41.9V93.22H33Z"/><path class="cls-2" d="M71.44,139.8H55.56a3.5,3.5,0,0,1-3.5-3.5V74.72a3.5,3.5,0,0,1,3.5-3.5H71.44a3.5,3.5,0,0,1,3.5,3.5V136.3A3.5,3.5,0,0,1,71.44,139.8Zm-12.38-7h8.88V78.22H59.06Z"/><path class="cls-2" d="M97.47,139.8H81.6a3.5,3.5,0,0,1-3.5-3.5V59.72a3.5,3.5,0,0,1,3.5-3.5H97.47a3.5,3.5,0,0,1,3.5,3.5V136.3A3.5,3.5,0,0,1,97.47,139.8Zm-12.37-7H94V63.22H85.1Z"/><path class="cls-2" d="M123.5,139.8H107.63a3.5,3.5,0,0,1-3.5-3.5V44.72a3.5,3.5,0,0,1,3.5-3.5H123.5a3.5,3.5,0,0,1,3.5,3.5V136.3A3.5,3.5,0,0,1,123.5,139.8Zm-12.37-7H120V48.22h-8.87Z"/></g></g></svg>