<svg xmlns="http://www.w3.org/2000/svg" viewBox="0 0 222.37 157.25"><defs><style>.cls-1{fill:#2e2e2e;}.cls-2{fill:#00a399;}</style></defs><g id="Layer_2" data-name="Layer 2"><g id="Calque_1" data-name="Calque 1"><path class="cls-1" d="M163.4,45.46a37,37,0,0,0-13.81-8.71A20.42,20.42,0,1,0,125,36.66a37.06,37.06,0,0,0-12.85,7.65,36.83,36.83,0,0,0-12.6-7.56A20.42,20.42,0,1,0,75,36.66a37,37,0,0,0-13.76,8.49,3.5,3.5,0,0,0,4.88,5,30.15,30.15,0,0,1,42.3.25,3.49,3.49,0,0,0,2.47,1,3.41,3.41,0,0,0,2-.61,3.48,3.48,0,0,0,3.43-.81,30.14,30.14,0,0,1,42.14.4,3.5,3.5,0,0,0,4.94-5ZM87.37,7A13.42,13.42,0,1,1,74,20.42,13.43,13.43,0,0,1,87.37,7Zm50,0A13.42,13.42,0,1,1,124,20.42,13.43,13.43,0,0,1,137.37,7Z"/><path class="cls-2" d="M88.4,90.46a37,37,0,0,0-13.81-8.71A20.42,20.42,0,1,0,50,81.66a37,37,0,0,0-13.76,8.49,3.5,3.5,0,1,0,4.88,5,30.15,30.15,0,0,1,42.3.25,3.5,3.5,0,0,0,4.94-5ZM62.37,52A13.42,13.42,0,1,1,49,65.42,13.43,13.43,0,0,1,62.37,52Z"/><path class="cls-1" d="M222.27,152.92a37,37,0,0,0-23.68-26.17A20.39,20.39,0,0,0,188,90.08a37,37,0,0,0-13.41-8.33A20.42,20.42,0,1,0,150,81.66a37.06,37.06,0,0,0-12.85,7.65,36.83,36.83,0,0,0-12.6-7.56A20.42,20.42,0,1,0,100,81.66,37,37,0,0,0,86.47,90l0,0h-.07A20.4,20.4,0,0,0,74,126.66a37.15,37.15,0,0,0-12.85,7.61,36.94,36.94,0,0,0-12.59-7.52A20.42,20.42,0,1,0,24,126.66,37,37,0,0,0,.1,152.92a3.5,3.5,0,0,0,6.8,1.66,30.18,30.18,0,0,1,49.57-15.13,37.23,37.23,0,0,0-6.37,13.47,3.5,3.5,0,1,0,6.8,1.66,30.35,30.35,0,0,1,4.28-9.67,30.15,30.15,0,0,1,4.29,9.67,3.5,3.5,0,0,0,3.39,2.67,3.44,3.44,0,0,0,.84-.1,3.5,3.5,0,0,0,2.57-4.23,37.23,37.23,0,0,0-6.37-13.47,30.22,30.22,0,0,1,40.57,0,37.23,37.23,0,0,0-6.37,13.47,3.5,3.5,0,1,0,6.8,1.66,30.35,30.35,0,0,1,4.28-9.67,30.15,30.15,0,0,1,4.29,9.67,3.5,3.5,0,0,0,3.39,2.67,3.44,3.44,0,0,0,.84-.1,3.5,3.5,0,0,0,2.57-4.23,37.23,37.23,0,0,0-6.37-13.47,30.22,30.22,0,0,1,40.57,0,37.23,37.23,0,0,0-6.37,13.47,3.5,3.5,0,0,0,6.8,1.66,30.35,30.35,0,0,1,4.28-9.67,30.15,30.15,0,0,1,4.29,9.67,3.5,3.5,0,0,0,3.39,2.67,3.44,3.44,0,0,0,.84-.1,3.5,3.5,0,0,0,2.57-4.23,37.23,37.23,0,0,0-6.37-13.47,30.18,30.18,0,0,1,49.57,15.13,3.5,3.5,0,0,0,3.39,2.67,3.44,3.44,0,0,0,.84-.1A3.5,3.5,0,0,0,222.27,152.92ZM136.37,97A13.42,13.42,0,1,1,123,110.42,13.43,13.43,0,0,1,136.37,97Zm20.42,13.42A20.42,20.42,0,0,0,145.06,92a30.15,30.15,0,0,1,33.59-.45A20.39,20.39,0,0,0,174,126.66a37.15,37.15,0,0,0-12.85,7.61,36.94,36.94,0,0,0-12.59-7.52A20.38,20.38,0,0,0,156.79,110.42Zm43,0A13.42,13.42,0,1,1,186.37,97,13.43,13.43,0,0,1,199.79,110.42ZM162.37,52A13.42,13.42,0,1,1,149,65.42,13.43,13.43,0,0,1,162.37,52Zm-50,0A13.42,13.42,0,1,1,99,65.42,13.43,13.43,0,0,1,112.37,52Zm-.19,34.63a29.92,29.92,0,0,1,16.47,4.89A20.39,20.39,0,0,0,124,126.66a37.15,37.15,0,0,0-12.85,7.61,36.94,36.94,0,0,0-12.59-7.52A20.37,20.37,0,0,0,95.06,92,30,30,0,0,1,112.18,86.63ZM86.37,97A13.42,13.42,0,1,1,73,110.42,13.43,13.43,0,0,1,86.37,97Zm-50,0A13.42,13.42,0,1,1,23,110.42,13.43,13.43,0,0,1,36.37,97Z"/></g></g></svg>