<?xml version="1.0" encoding="UTF-8"?>
<svg id="Layer_1" xmlns="http://www.w3.org/2000/svg" version="1.1" viewBox="0 0 430 430">
  <!-- Generator: Adobe Illustrator 29.5.0, SVG Export Plug-In . SVG Version: 2.1.0 Build 137)  -->
  <defs>
    <style>
      .st0 {
        stroke: #121331;
        stroke-width: 12px;
      }

      .st0, .st1 {
        fill: none;
        stroke-miterlimit: 15;
      }

      .st1 {
        stroke: #00a49a;
        stroke-width: 10px;
      }

      .st2 {
        fill: #00a49a;
      }
    </style>
  </defs>
  <path class="st0" d="M401,278.6c0-9.7-7.8-17.6-17.6-17.6H46.6c-9.7,0-17.6,7.8-17.6,17.6v56.8c0,9.7,7.8,17.6,17.6,17.6h336.9c9.7,0,17.6-7.8,17.6-17.6v-56.8Z"/>
  <path class="st2" d="M205.1,287.2c4.8,0,8.8,3.7,8.8,8.4s-4,8.4-8.8,8.4-8.8-3.7-8.8-8.4,4-8.4,8.8-8.4M232.4,287.2c4.8,0,8.8,3.7,8.8,8.4s-4,8.4-8.8,8.4-8.8-3.7-8.8-8.4,4-8.4,8.8-8.4M259.8,287.2c4.8,0,8.8,3.7,8.8,8.4s-4,8.4-8.8,8.4-8.8-3.7-8.8-8.4,3.9-8.4,8.8-8.4M287.1,287.2c4.8,0,8.8,3.7,8.8,8.4s-4,8.4-8.8,8.4-8.8-3.7-8.8-8.4,4-8.4,8.8-8.4M314.5,287.2c4.8,0,8.8,3.7,8.8,8.4s-4,8.4-8.8,8.4-8.8-3.7-8.8-8.4,4-8.4,8.8-8.4M341.9,287.2c4.8,0,8.8,3.7,8.8,8.4s-4,8.4-8.8,8.4-8.8-3.7-8.8-8.4,4-8.4,8.8-8.4M369.3,287.2c4.8,0,8.8,3.7,8.8,8.4s-4,8.4-8.8,8.4-8.8-3.7-8.8-8.4,3.9-8.4,8.8-8.4M205.1,314.6c4.8,0,8.8,3.7,8.8,8.4s-4,8.4-8.8,8.4-8.8-3.7-8.8-8.4,4-8.4,8.8-8.4M232.4,314.6c4.8,0,8.8,3.7,8.8,8.4s-4,8.4-8.8,8.4-8.8-3.7-8.8-8.4,4-8.4,8.8-8.4M259.8,314.6c4.8,0,8.8,3.7,8.8,8.4s-4,8.4-8.8,8.4-8.8-3.7-8.8-8.4,3.9-8.4,8.8-8.4M287.1,314.6c4.8,0,8.8,3.7,8.8,8.4s-4,8.4-8.8,8.4-8.8-3.7-8.8-8.4,4-8.4,8.8-8.4M314.5,314.6c4.8,0,8.8,3.7,8.8,8.4s-4,8.4-8.8,8.4-8.8-3.7-8.8-8.4,4-8.4,8.8-8.4M341.9,314.6c4.8,0,8.8,3.7,8.8,8.4s-4,8.4-8.8,8.4-8.8-3.7-8.8-8.4,4-8.4,8.8-8.4M369.3,314.6c4.8,0,8.8,3.7,8.8,8.4s-4,8.4-8.8,8.4-8.8-3.7-8.8-8.4,3.9-8.4,8.8-8.4"/>
  <path class="st1" d="M82.5,291.6c9.7,0,17.6,7.8,17.6,17.6s-7.8,17.6-17.6,17.6-17.6-7.8-17.6-17.6,7.8-17.6,17.6-17.6Z"/>
  <path class="st0" d="M401,186.6c0-9.7-7.8-17.6-17.6-17.6H46.6c-9.7,0-17.6,7.8-17.6,17.6v56.8c0,9.7,7.8,17.6,17.6,17.6h336.9c9.7,0,17.6-7.8,17.6-17.6v-56.8Z"/>
  <path class="st2" d="M205.1,195.3c4.8,0,8.8,3.7,8.8,8.4s-4,8.4-8.8,8.4-8.8-3.7-8.8-8.4,4-8.4,8.8-8.4M232.4,195.3c4.8,0,8.8,3.7,8.8,8.4s-4,8.4-8.8,8.4-8.8-3.7-8.8-8.4,4-8.4,8.8-8.4M259.8,195.3c4.8,0,8.8,3.7,8.8,8.4s-4,8.4-8.8,8.4-8.8-3.7-8.8-8.4,3.9-8.4,8.8-8.4M287.1,195.3c4.8,0,8.8,3.7,8.8,8.4s-4,8.4-8.8,8.4-8.8-3.7-8.8-8.4c.1-4.7,4-8.4,8.8-8.4M314.5,195.3c4.8,0,8.8,3.7,8.8,8.4s-4,8.4-8.8,8.4-8.8-3.7-8.8-8.4,4-8.4,8.8-8.4M341.9,195.3c4.8,0,8.8,3.7,8.8,8.4s-4,8.4-8.8,8.4-8.8-3.7-8.8-8.4,4-8.4,8.8-8.4M369.3,195.3c4.8,0,8.8,3.7,8.8,8.4s-4,8.4-8.8,8.4-8.8-3.7-8.8-8.4,3.9-8.4,8.8-8.4M205.1,222.7c4.8,0,8.8,3.7,8.8,8.4s-4,8.4-8.8,8.4-8.8-3.7-8.8-8.4,4-8.4,8.8-8.4M232.4,222.7c4.8,0,8.8,3.7,8.8,8.4s-4,8.4-8.8,8.4-8.8-3.7-8.8-8.4,4-8.4,8.8-8.4M259.8,222.7c4.8,0,8.8,3.7,8.8,8.4s-4,8.4-8.8,8.4-8.8-3.7-8.8-8.4,3.9-8.4,8.8-8.4M287.1,222.7c4.8,0,8.8,3.7,8.8,8.4s-4,8.4-8.8,8.4-8.8-3.7-8.8-8.4c.1-4.7,4-8.4,8.8-8.4M314.5,222.7c4.8,0,8.8,3.7,8.8,8.4s-4,8.4-8.8,8.4-8.8-3.7-8.8-8.4,4-8.4,8.8-8.4M341.9,222.7c4.8,0,8.8,3.7,8.8,8.4s-4,8.4-8.8,8.4-8.8-3.7-8.8-8.4,4-8.4,8.8-8.4M369.3,222.7c4.8,0,8.8,3.7,8.8,8.4s-4,8.4-8.8,8.4-8.8-3.7-8.8-8.4,3.9-8.4,8.8-8.4"/>
  <path class="st1" d="M82.5,199.7c9.7,0,17.6,7.8,17.6,17.6s-7.8,17.6-17.6,17.6-17.6-7.8-17.6-17.6,7.8-17.6,17.6-17.6Z"/>
  <path class="st0" d="M401,94.7c0-9.7-7.8-17.6-17.6-17.6H46.6c-9.7,0-17.6,7.8-17.6,17.6v56.8c0,9.7,7.8,17.6,17.6,17.6h336.9c9.7,0,17.6-7.8,17.6-17.6v-56.8Z"/>
  <path class="st2" d="M205.1,103.3c4.8,0,8.8,3.7,8.8,8.4s-4,8.4-8.8,8.4-8.8-3.7-8.8-8.4,4-8.4,8.8-8.4M232.4,103.3c4.8,0,8.8,3.7,8.8,8.4s-4,8.4-8.8,8.4-8.8-3.7-8.8-8.4,4-8.4,8.8-8.4M259.8,103.3c4.8,0,8.8,3.7,8.8,8.4s-4,8.4-8.8,8.4-8.8-3.7-8.8-8.4,3.9-8.4,8.8-8.4M287.1,103.3c4.8,0,8.8,3.7,8.8,8.4s-4,8.4-8.8,8.4-8.8-3.7-8.8-8.4c.1-4.6,4-8.4,8.8-8.4M314.5,103.3c4.8,0,8.8,3.7,8.8,8.4s-4,8.4-8.8,8.4-8.8-3.7-8.8-8.4,4-8.4,8.8-8.4M341.9,103.3c4.8,0,8.8,3.7,8.8,8.4s-4,8.4-8.8,8.4-8.8-3.7-8.8-8.4,4-8.4,8.8-8.4M369.3,103.3c4.8,0,8.8,3.7,8.8,8.4s-4,8.4-8.8,8.4-8.8-3.7-8.8-8.4,3.9-8.4,8.8-8.4"/>
  <path class="st2" d="M369.3,103.3c4.8,0,8.8,3.7,8.8,8.4s-4,8.4-8.8,8.4-8.8-3.7-8.8-8.4,3.9-8.4,8.8-8.4M205.1,130.7c4.8,0,8.8,3.7,8.8,8.4s-4,8.4-8.8,8.4-8.8-3.7-8.8-8.4,4-8.4,8.8-8.4M232.4,130.7c4.8,0,8.8,3.7,8.8,8.4s-4,8.4-8.8,8.4-8.8-3.7-8.8-8.4,4-8.4,8.8-8.4M259.8,130.7c4.8,0,8.8,3.7,8.8,8.4s-4,8.4-8.8,8.4-8.8-3.7-8.8-8.4,3.9-8.4,8.8-8.4"/>
  <path class="st2" d="M259.8,130.7c4.8,0,8.8,3.7,8.8,8.4s-4,8.4-8.8,8.4-8.8-3.7-8.8-8.4,3.9-8.4,8.8-8.4M287.1,130.7c4.8,0,8.8,3.7,8.8,8.4s-4,8.4-8.8,8.4-8.8-3.7-8.8-8.4c.1-4.7,4-8.4,8.8-8.4M314.5,130.7c4.8,0,8.8,3.7,8.8,8.4s-4,8.4-8.8,8.4-8.8-3.7-8.8-8.4,4-8.4,8.8-8.4M341.9,130.7c4.8,0,8.8,3.7,8.8,8.4s-4,8.4-8.8,8.4-8.8-3.7-8.8-8.4,4-8.4,8.8-8.4M369.3,130.7c4.8,0,8.8,3.7,8.8,8.4s-4,8.4-8.8,8.4-8.8-3.7-8.8-8.4,3.9-8.4,8.8-8.4"/>
  <path class="st1" d="M82.5,107.7c9.7,0,17.6,7.8,17.6,17.6s-7.8,17.6-17.6,17.6-17.6-7.8-17.6-17.6,7.8-17.6,17.6-17.6Z"/>
</svg>