<?xml version="1.0" encoding="UTF-8"?>
<svg id="Layer_1" data-name="Layer 1" xmlns="http://www.w3.org/2000/svg" viewBox="0 0 351.42 372">
  <defs>
    <style>
      .cls-1 {
        stroke-width: 12px;
      }

      .cls-1, .cls-2, .cls-3 {
        fill: none;
        stroke-linecap: round;
        stroke-linejoin: round;
      }

      .cls-1, .cls-3 {
        stroke: #000;
      }

      .cls-2 {
        stroke: #00a49a;
      }

      .cls-2, .cls-3 {
        stroke-width: 6px;
      }
    </style>
  </defs>
  <path class="cls-1" d="M175.71,366c187.99-90.47,169.19-227.8,169.19-310.68-54.22-7.81-169.19-49.32-169.19-49.32,0,0-114.96,41.51-169.19,49.31,0,82.89-18.81,220.21,169.19,310.69"/>
  <g>
    <path class="cls-2" d="M103.16,160.35h-11.02v3.78c0,5.91,4.81,10.72,10.72,10.72h3.89c5.91,0,10.72-4.81,10.72-10.72v-3.78h-14.3Z"/>
    <path class="cls-3" d="M104.84,150.7h10.45c2.9,0,5.23-2.33,5.23-5.23v-5.45c0-2.86,1.26-5.57,3.43-7.44,6.75-5.76,21.09-20.29,21.09-39.67,0-22.47-11.82-39.37-40.2-39.37s-40.2,16.9-40.2,39.37c0,19.38,14.34,33.91,21.09,39.67,2.17,1.87,3.43,4.58,3.43,7.44v5.45c0,2.9,2.33,5.23,5.23,5.23h10.45Z"/>
    <path class="cls-2" d="M112.54,130.78l7.32-35.78-7.32,10.07-7.71-8.96-7.71,9-7.32-10.07,7.32,35.78"/>
  </g>
  <g>
    <path class="cls-2" d="M250.11,180.71c20.56,0,37.22-16.67,37.22-37.22s-16.67-37.22-37.22-37.22-37.22,16.67-37.22,37.22,16.67,37.22,37.22,37.22"/>
    <path class="cls-3" d="M249.96,95c26.69,0,48.33,21.64,48.33,48.33s-21.64,48.33-48.33,48.33-48.33-21.64-48.33-48.33,21.64-48.33,48.33-48.33"/>
    <path class="cls-2" d="M251.53,148.06h-22.56M251.53,139.2h-22.56M262.02,131.06c-2.86-2.48-6.62-3.96-10.68-3.96-9.08,0-16.44,7.4-16.44,16.53s7.36,16.53,16.44,16.53c4.06,0,7.82-1.49,10.68-3.96"/>
  </g>
  <g>
    <path class="cls-3" d="M197.78,212.57h12.22v22.76h-12.22M186.87,212.57h-36.83M186.87,235.33h-36.83M139.09,235.33h-12.18v-22.76h12.18M197.78,249.69h12.22v22.76h-12.22M139.09,272.46h-12.18v-22.76h12.18M186.87,272.46h-36.83M186.87,249.69h-36.83M197.78,286.82h12.22v22.76h-12.22M150.41,309.58h36.23M139.09,309.58h-12.18v-22.76h12.18M186.87,286.82h-36.83"/>
    <path class="cls-2" d="M197.78,203.33h-10.91v116.43h10.91v-116.43ZM150,203.33h-10.91v116.43h10.91v-116.43Z"/>
  </g>
</svg>