<svg xmlns="http://www.w3.org/2000/svg" width="430" height="430" fill="none" viewBox="0 0 430 430"><g stroke-linecap="round" stroke-linejoin="round" stroke-width="12"><path stroke="#121331" d="M89.2 324.29v-22.82l-48.46-54.68A26.8 26.8 0 0 1 34 229.02v-89.99c0-9.71 7.87-17.58 17.58-17.58 9.72 0 17.6 7.89 17.58 17.62l-.18 85.17m0 0 35.98 40.43s-16.21-18.22-35.98-40.43m0 0c-.58-8.74 4.78-12.77 11.13-14.52 9.7-2.67 20.08.58 26.94 7.94l48.28 51.81v54.82m-5.24 50.37H81.83a6.68 6.68 0 0 1-6.68-6.68v-37a6.68 6.68 0 0 1 6.68-6.68h77.31c4.33 0 7.52 4.06 6.49 8.27l-9.06 37a6.676 6.676 0 0 1-6.49 5.09zm190.05-50.37v-22.82l48.46-54.68c4.34-4.9 6.74-11.22 6.74-17.77v-89.99c0-9.71-7.87-17.58-17.58-17.58-9.72 0-17.6 7.89-17.58 17.62l.18 85.17m0 0-35.98 40.43s16.21-18.22 35.98-40.43m0 0c.58-8.74-4.78-12.77-11.13-14.52-9.7-2.67-20.08.58-26.94 7.94l-48.28 51.81v54.82m5.24 50.37h68.25a6.68 6.68 0 0 0 6.68-6.68v-37a6.68 6.68 0 0 0-6.68-6.68h-77.31c-4.33 0-7.52 4.06-6.49 8.27l9.06 37a6.676 6.676 0 0 0 6.49 5.09"/><path stroke="#00a49a" d="m224.029 295.06-.07-188.3m3.451 18.55c79.21 53.67 114.62-83.8 114.62-83.8s-141.74-7.96-114.62 83.8m0 0 72.18-52.76m-22.8-4.99-3.87 24.89m8.28 15.6-24.89-3.87m-36.93 102.59c31.84-90.23-110.12-89.63-110.12-89.63s28.23 139.13 110.12 89.63m0 0-69.34-56.44m.96 23.32 25.06-2.57m12.99-11.96 2.57 25.06"/></g></svg>