<svg xmlns="http://www.w3.org/2000/svg" width="430" height="430" fill="none" viewBox="0 0 430 430"><g stroke-linecap="round" stroke-linejoin="round" stroke-width="12"><path stroke="#00a49a" d="M305 55v55M125 55v55"/><path stroke="#121331" d="M248.945 124.585c8.566-27.483 1.965-58.675-19.803-80.443L215 30l-14.142 14.142c-21.768 21.768-28.369 52.96-19.803 80.443"/><path stroke="#121331" d="M215 200v-10c0-44.183-35.817-80-80-80h-10v70"/><path stroke="#121331" d="M215 270v-10c0-44.183-35.817-80-80-80h-10v70m90-70v230"/><path stroke="#121331" d="M125 250h10c44.183 0 80 35.817 80 80v10h-10c-44.183 0-80-35.817-80-80zm90-50v-10c0-44.183 35.817-80 80-80h10v70"/><path stroke="#121331" d="M215 270v-10c0-44.183 35.817-80 80-80h10v70"/><path stroke="#121331" d="M305 250h-10c-44.183 0-80 35.817-80 80v10h10c44.183 0 80-35.817 80-80z"/></g></svg>