<svg xmlns="http://www.w3.org/2000/svg" width="430" height="430" fill="none" viewBox="0 0 430 430"><mask id="iHRtxZVMAJa" width="320" height="320" x="55" y="55" maskUnits="userSpaceOnUse" style="mask-type:alpha"><path fill="#fff" d="M55 162.425V375h11.77A19.95 19.95 0 0 1 60 360V162.509h-3.325a17 17 0 0 1-1.675-.084M93.23 375h248.54a19.95 19.95 0 0 1-6.77-15v-95h-16.52V109.029c0-25.422 16.783-46.923 39.874-54.029H119.805v91.029c0 9.1-7.38 16.48-16.48 16.48H100V360a19.95 19.95 0 0 1-6.77 15M375 360a19.95 19.95 0 0 1-6.771 15H375z"/></mask><g mask="url(#iHRtxZVMAJa)"><path stroke="#00a49a" stroke-linecap="round" stroke-linejoin="round" stroke-miterlimit="10" stroke-width="12" d="M215.12 361.17c80.081 0 145-64.919 145-145s-64.919-145-145-145-145 64.919-145 145 64.919 145 145 145"/></g><path stroke="#00a49a" stroke-linecap="round" stroke-linejoin="round" stroke-miterlimit="10" stroke-width="12" d="M215.12 296.17c44.183 0 80-35.817 80-80s-35.817-80-80-80-80 35.817-80 80 35.817 80 80 80"/><path stroke="#121331" stroke-linecap="round" stroke-linejoin="round" stroke-miterlimit="10" stroke-width="12" d="M40.195 52.509v93.52c0 9.1 7.38 16.48 16.48 16.48h46.65c9.1 0 16.48-7.38 16.48-16.48v-93.52m-39.816-.05v59.26m39.793.091H40.195M60 162.509V360c0 11.046 8.954 20 20 20v0c11.046 0 20-8.954 20-20V162.509m275-110c-31.215 0-56.52 25.305-56.52 56.52V265H375zM335 265v95c0 11.046 8.954 20 20 20s20-8.954 20-20v-95"/></svg>