<?xml version="1.0" encoding="UTF-8"?>
<svg id="Layer_1" xmlns="http://www.w3.org/2000/svg" version="1.1" viewBox="0 0 430 430">
  <!-- Generator: Adobe Illustrator 29.5.0, SVG Export Plug-In . SVG Version: 2.1.0 Build 137)  -->
  <defs>
    <style>
      .st0 {
        stroke: #121331;
      }

      .st0, .st1 {
        fill: none;
        stroke-linecap: round;
        stroke-linejoin: round;
        stroke-width: 12px;
      }

      .st1 {
        stroke: #00a49a;
      }
    </style>
  </defs>
  <path class="st1" d="M181.9,171.7c.5-1.1,1.1-2.1,1.7-3,2.7-4.3,2.1-9.8-1.2-13.7-10.1-11.7-15-27.8-11.7-44.1,4.4-22.4,22.7-38.5,44.1-41.3,2.9-.4,5.2-2.3,6.2-5,5.4-14.4,20.6-23.1,36.1-20,3.4.7,6.5,1.8,9.3,3.4,6-13.2,20.4-21,35.3-18,17.3,3.4,28.5,20.2,25.1,37.5h0c-.7,3.4,2.4,6.1,5.6,5.1,5.6-1.7,11.8-1.8,18-.2,15.7,4.1,26.3,19.4,24.7,35.5-1.6,16.1-14,28-28.8,30,11.9,6.8,18.4,20.2,16.6,33.7"/>
  <path class="st1" d="M288,92.8s-12.8,16.5-24.5,49.7c-4,11.3-7.8,24.4-11,39.5"/>
  <path class="st1" d="M298.7,126.3c-24.9,2.8-35.1,16.4-35.1,16.4M308.3,165c-12.3,2.4-22.6,6.7-30.9,11.6"/>
  <path class="st1" d="M242.7,105.2c18.7,14.8,20.9,37.5,20.9,37.5M239.3,170.4c-4.8-11.8-11.6-23.9-20.7-31M145.8,101.5l14.7-67.8c.7-3.4-3.4-5.8-6-3.5l-21.4,19.3-28.3-18.6-18.8,27.9-27.1-9.7c-3.3-1.2-6.2,2.6-4.2,5.5l39.3,57.1"/>
  <path class="st1" d="M162.5,182.5l-9-62.3c-2.2-15.2-15.3-26.1-30.1-26.1s-3.9.2-5.9.6c-17.1,3.4-27.9,20.4-23.6,37.3l2.3,9.3,10.3,41.2M96.1,141.2l19.5-3.8"/>
  <path class="st0" d="M375.9,411H74.1v-226.4l15.1-15.1,15.1,15.1,15.1-15.1,15.1,15.1,15.1-15.1,15.1,15.1,15.1-15.1,15.1,15.1,15.1-15.1,15.1,15.1,15.1-15.1,15.1,15.1,15.1-15.1,15.1,15.1,15.1-15.1,15.1,15.1,15.1-15.1,15.1,15.1,15.1-15.1,15.1,15.1v226.4Z"/>
  <path class="st0" d="M330.7,176.7v189.1l-45.3,45.3v-226.4M328.3,365.7l45.3,45.3"/>
</svg>