<?xml version="1.0" encoding="UTF-8"?>
<svg id="Layer_1" xmlns="http://www.w3.org/2000/svg" version="1.1" viewBox="0 0 430 430">
  <!-- Generator: Adobe Illustrator 29.5.0, SVG Export Plug-In . SVG Version: 2.1.0 Build 137)  -->
  <defs>
    <style>
      .st0 {
        stroke: #121331;
      }

      .st0, .st1 {
        fill: none;
        stroke-linecap: round;
        stroke-linejoin: round;
        stroke-width: 12px;
      }

      .st1 {
        stroke: #00a49a;
      }
    </style>
  </defs>
  <path class="st1" d="M259.6,397c3.8-32.9-13.6-33.9-13.6-67.1s13.6-33.2,13.6-66.3-13.6-33.2-13.6-66.3,13.6-33.2,13.6-66.3-6.8-31.9-11.3-51.9c-1.8-7.9-8.8-13.7-17-13.7-11.5,0-19.8,10.9-16.9,22,3.2,12.1,6.2,27.8,6.2,43.7,0,33.2-13.6,33.2-13.6,66.3s13.6,33.2,13.6,66.3-14.6,33.4-13.6,66.5c.9,32.9,10.3,33.9,14.1,67M306.2,397c-2.2-7-3.8-15.1-4.3-28.2-1-33.2,13.6-33.4,13.6-66.5s-13.6-33.2-13.6-66.3,13.6-33.2,13.6-66.3-3.1-31.6-6.2-43.7c-2.9-11.1,5.4-22,16.9-22h.1c8.1,0,15.2,5.8,17,13.7,4.5,20,11.3,24.1,11.3,51.9s-13.6,33.2-13.6,66.3,13.6,33.2,13.6,66.3-13.6,33.2-13.6,66.3,2.8,21.5,5.9,28.5M116.2,397c2.4-16.3,9.7-22.6,12.1-40.1-8.6-9.3-17.1-13.7-26-33.6-13.7-30.2-1.2-35.9-14.9-66.1-6.6-14.5-15.7-27.5-23.7-37.2-2.7-3.3-4-7.1-4-11,0-6.6,3.7-13,10.3-16,7.5-3.3,16.2-1,21.2,5.5,12.3,16.4,20.1,17.3,31.7,42.7,0,0,6.3-14.3,6.3-29s-3.1-31.6-6.2-43.7c-2.9-11.1,5.4-22,16.9-22s15.2,5.8,17,13.7c4.5,20,11.3,24.1,11.3,51.9s-13.6,33.2-13.6,66.3,13.6,33.2,13.6,66.3v.9c-.2,26.7-9.4,31.5-12.6,51"/>
  <path class="st0" d="M79.2,397h307.7M144.8,86.1c14.7,0,26.6-11.9,26.6-26.6s-11.9-26.6-26.6-26.6-26.6,11.9-26.6,26.6,11.9,26.6,26.6,26.6M84.1,139.1c8.9,0,16.2-7.2,16.2-16.2s-7.2-16.2-16.2-16.2-16.2,7.2-16.2,16.2,7.2,16.2,16.2,16.2"/>
</svg>