<?xml version="1.0" encoding="UTF-8"?>
<svg id="Layer_1" xmlns="http://www.w3.org/2000/svg" version="1.1" viewBox="0 0 430 430">
  <!-- Generator: Adobe Illustrator 29.5.0, SVG Export Plug-In . SVG Version: 2.1.0 Build 137)  -->
  <defs>
    <style>
      .st0 {
        stroke: #121331;
      }

      .st0, .st1 {
        fill: none;
        stroke-linecap: round;
        stroke-linejoin: round;
        stroke-width: 12px;
      }

      .st1 {
        stroke: #00a49a;
      }
    </style>
  </defs>
  <path class="st1" d="M329.6,117.7c29.2-33,31-65.5,25.8-83.8-16.1-3.5-50.8,2.8-80,35.9-29.2,33.1-30.8,63.9-25.8,83.8,18.5,3,50.8-2.8,80-35.9M166.5,109.8c19.5,17.2,29.1,40.2,26.2,58.5-17.7,5.1-41.7-1.6-61.3-18.8-19.5-17.3-29.1-40.2-26.2-58.5,17.8-5.1,41.7,1.6,61.3,18.8"/>
  <path class="st1" d="M155.8,134.5c16.4,8.8,50.5,37.8,59.1,84.4,1.6,8.8,2.1,17.2,1.7,24.9-.9-10.4-1.4-31,8.3-54,4-9.6,9-16.9,24.6-36.3,10.9-13.4,25.9-31.6,44.9-52.6"/>
  <path class="st0" d="M30.8,269.3v129.1h370.2v-129.1M61.7,366h17.9M256.3,366h-17.9M315.2,366h-17.9M179.5,366h17.9M374.1,366h-17.9M120.5,366h17.9M91.2,333.8h17.9M285.7,333.8h-17.9M344.6,333.8h-17.8M209,333.8h17.9M150,333.8h17.9M61.7,301.7h17.9M256.3,301.7h-17.9M315.2,301.7h-17.9M179.5,301.7h17.9M374.1,301.7h-17.9M120.5,301.7h17.9M401,244.2H30.8v25h370.2v-25Z"/>
</svg>