<?xml version="1.0" encoding="UTF-8"?>
<svg id="Layer_1" xmlns="http://www.w3.org/2000/svg" version="1.1" viewBox="0 0 430 430">
  <!-- Generator: Adobe Illustrator 29.5.0, SVG Export Plug-In . SVG Version: 2.1.0 Build 137)  -->
  <defs>
    <style>
      .st0 {
        stroke: #121331;
      }

      .st0, .st1 {
        fill: none;
        stroke-linecap: round;
        stroke-linejoin: round;
        stroke-width: 12px;
      }

      .st1 {
        stroke: #00a49a;
      }
    </style>
  </defs>
  <path class="st0" d="M201.1,26h-101.6v52.3h101.6V26Z"/>
  <path class="st0" d="M188.5,78.3c0,23,8.1,45.1,23,62.6l23.1,27.4c9.9,11.6,15.3,26.5,15.3,41.8v164.2c0,16.5-13.3,29.6-29.6,29.6H80.5c-16.5,0-29.6-13.3-29.6-29.6v-164.2c0-15.3,5.4-30.2,15.3-41.8l23.1-27.4c14.8-17.4,23-39.7,23-62.7M112.3,78.3h76.2M249.9,210.4H50.9M249.9,349.7H50.9"/>
  <path class="st1" d="M150.5,249.5v61M181,280h-61.1"/>
  <path class="st0" d="M379.1,103.6c0,25.2-9.9,40.7-24.3,47.7v157.3c0,11.2-9.1,20.3-20.3,20.3s-20.3-9.1-20.3-20.3v-157.3c-14.5-7-24.3-22.6-24.3-47.7,0-35.7,20-77.6,44.5-77.6s44.5,41.8,44.5,77.6"/>
</svg>