<?xml version="1.0" encoding="UTF-8"?>
<svg id="Layer_1" data-name="Layer 1" xmlns="http://www.w3.org/2000/svg" xmlns:xlink="http://www.w3.org/1999/xlink" viewBox="0 0 368.33 384.74">
  <defs>
    <style>
      .cls-1, .cls-2 {
        stroke: #000;
        stroke-width: 12px;
      }

      .cls-1, .cls-2, .cls-3, .cls-4 {
        fill: none;
        stroke-linejoin: round;
      }

      .cls-1, .cls-3, .cls-4 {
        stroke-linecap: round;
      }

      .cls-5 {
        mask: url(#mask);
      }

      .cls-3 {
        stroke-width: 6px;
      }

      .cls-3, .cls-4 {
        stroke: #00a49a;
      }

      .cls-6 {
        fill: #d9d9d9;
        fill-rule: evenodd;
      }

      .cls-4 {
        stroke-width: 9px;
      }
    </style>
    <mask id="mask" x="6.07" y="172.83" width="361.02" height="217.93" maskUnits="userSpaceOnUse">
      <g id="_7o20Jknp98a" data-name="7o20Jknp98a">
        <path class="cls-6" d="M367.08,172.83H6.07v217.93h361.02v-217.93ZM229,228.74c0,24.85-20.15,45-45,45s-45-20.15-45-45,20.15-45,45-45,45,20.15,45,45M149,298.74c-30.38,0-55,24.62-55,55v25h180v-25c0-30.38-24.62-55-55-55h-70Z"/>
      </g>
    </mask>
  </defs>
  <g class="cls-5">
    <g>
      <path class="cls-1" d="M84,273.74c16.57,0,30-13.43,30-30s-13.43-30-30-30-30,13.43-30,30,13.43,30,30,30"/>
      <path class="cls-2" d="M19,343.74c0-24.85,20.15-45,45-45h40c24.85,0,45,20.15,45,45v15H19v-15Z"/>
      <path class="cls-1" d="M284,273.74c16.57,0,30-13.43,30-30s-13.43-30-30-30-30,13.43-30,30,13.43,30,30,30"/>
      <path class="cls-2" d="M219,343.74c0-24.85,20.15-45,45-45h40c24.85,0,45,20.15,45,45v15h-130v-15Z"/>
    </g>
  </g>
  <path class="cls-1" d="M184,273.74c24.85,0,45-20.15,45-45s-20.15-45-45-45-45,20.15-45,45,20.15,45,45,45"/>
  <path class="cls-2" d="M94,353.74c0-30.38,24.62-55,55-55h70c30.38,0,55,24.62,55,55v25H94v-25Z"/>
  <path class="cls-4" d="M203.1,210.74l-37.54,37.54M203.1,248.28l-37.54-37.54"/>
  <path class="cls-3" d="M92.94,234.81l-17.87,17.87M92.94,252.68l-17.87-17.87"/>
  <path class="cls-3" d="M292.94,234.81l-17.87,17.87M292.94,252.68l-17.87-17.87"/>
  <g>
    <path class="cls-4" d="M184,158.25c42.46,0,76.88-34.42,76.88-76.88S226.46,4.5,184,4.5s-76.88,34.42-76.88,76.88,34.42,76.88,76.88,76.88"/>
    <path class="cls-4" d="M216.13,121.11c5.74-7.09,9.18-16.13,9.18-25.96v-27.54c0-22.81-18.49-41.31-41.31-41.31-8.49,0-16.38,2.56-22.95,6.96M206.95,129.49c-6.56,4.39-14.46,6.96-22.95,6.96-22.81,0-41.31-18.49-41.31-41.31v-27.54c0-9.84,3.44-18.87,9.18-25.96"/>
    <path class="cls-4" d="M174.82,121.11c2.95,1.04,6.05,1.57,9.18,1.57,15.21,0,27.54-12.33,27.54-27.54v-27.54c0-8.16-3.55-15.48-9.18-20.53M165.64,115.67c-5.63-5.04-9.18-12.37-9.18-20.53v-27.54c0-15.21,12.33-27.54,27.54-27.54,3.13,0,6.23.53,9.18,1.57"/>
    <path class="cls-4" d="M170.23,95.14c0,7.6,6.16,13.77,13.77,13.77s13.77-6.16,13.77-13.77v-13.77M197.77,67.61c0-7.6-6.16-13.77-13.77-13.77s-13.77,6.16-13.77,13.77v13.77M184,67.61v27.54"/>
  </g>
</svg>