<?xml version="1.0" encoding="UTF-8"?>
<svg id="Layer_1" data-name="Layer 1" xmlns="http://www.w3.org/2000/svg" xmlns:xlink="http://www.w3.org/1999/xlink" viewBox="0 0 368 352.67">
  <defs>
    <style>
      .cls-1, .cls-2 {
        stroke: #000;
      }

      .cls-1, .cls-2, .cls-3 {
        stroke-width: 12px;
      }

      .cls-1, .cls-2, .cls-3, .cls-4, .cls-5 {
        fill: none;
        stroke-linejoin: round;
      }

      .cls-1, .cls-3, .cls-4, .cls-5 {
        stroke-linecap: round;
      }

      .cls-6 {
        mask: url(#mask);
      }

      .cls-3, .cls-4, .cls-5 {
        stroke: #00a49a;
      }

      .cls-4 {
        stroke-width: 6px;
      }

      .cls-7 {
        fill: #d9d9d9;
        fill-rule: evenodd;
      }

      .cls-5 {
        stroke-width: 9px;
      }
    </style>
    <mask id="mask" x="6.07" y="140.75" width="361.02" height="217.93" maskUnits="userSpaceOnUse">
      <g id="_7o20Jknp98a" data-name="7o20Jknp98a">
        <path class="cls-7" d="M367.08,140.75H6.07v217.93h361.02v-217.93ZM229,196.67c0,24.85-20.15,45-45,45s-45-20.15-45-45,20.15-45,45-45,45,20.15,45,45M149,266.67c-30.38,0-55,24.62-55,55v25h180v-25c0-30.38-24.62-55-55-55h-70Z"/>
      </g>
    </mask>
  </defs>
  <g class="cls-6">
    <g>
      <path class="cls-1" d="M84,241.67c16.57,0,30-13.43,30-30s-13.43-30-30-30-30,13.43-30,30,13.43,30,30,30"/>
      <path class="cls-2" d="M19,311.67c0-24.85,20.15-45,45-45h40c24.85,0,45,20.15,45,45v15H19v-15Z"/>
      <path class="cls-1" d="M284,241.67c16.57,0,30-13.43,30-30s-13.43-30-30-30-30,13.43-30,30,13.43,30,30,30"/>
      <path class="cls-2" d="M219,311.67c0-24.85,20.15-45,45-45h40c24.85,0,45,20.15,45,45v15h-130v-15Z"/>
    </g>
  </g>
  <path class="cls-1" d="M184,241.67c24.85,0,45-20.15,45-45s-20.15-45-45-45-45,20.15-45,45,20.15,45,45,45"/>
  <path class="cls-2" d="M94,321.67c0-30.38,24.62-55,55-55h70c30.38,0,55,24.62,55,55v25H94v-25Z"/>
  <path class="cls-5" d="M203.1,178.67l-37.54,37.54M203.1,216.21l-37.54-37.54"/>
  <path class="cls-4" d="M92.94,202.73l-17.87,17.87M92.94,220.6l-17.87-17.87"/>
  <path class="cls-4" d="M292.94,202.73l-17.87,17.87M292.94,220.6l-17.87-17.87"/>
  <path class="cls-3" d="M6,54h356M54,102L6,54,54,6"/>
</svg>