<?xml version="1.0" encoding="UTF-8"?>
<svg id="Layer_1" data-name="Layer 1" xmlns="http://www.w3.org/2000/svg" xmlns:xlink="http://www.w3.org/1999/xlink" viewBox="0 0 368.33 384.74">
  <defs>
    <style>
      .cls-1, .cls-2 {
        stroke: #000;
        stroke-width: 12px;
      }

      .cls-1, .cls-2, .cls-3, .cls-4, .cls-5 {
        fill: none;
        stroke-linejoin: round;
      }

      .cls-1, .cls-3, .cls-4, .cls-5 {
        stroke-linecap: round;
      }

      .cls-6 {
        mask: url(#mask);
      }

      .cls-3 {
        stroke-width: 8px;
      }

      .cls-3, .cls-4, .cls-5 {
        stroke: #00a49a;
      }

      .cls-4 {
        stroke-width: 6px;
      }

      .cls-7 {
        fill: #d9d9d9;
        fill-rule: evenodd;
      }

      .cls-5 {
        stroke-width: 9px;
      }
    </style>
    <mask id="mask" x="6.07" y="172.83" width="361.02" height="217.93" maskUnits="userSpaceOnUse">
      <g id="_7o20Jknp98a" data-name="7o20Jknp98a">
        <path class="cls-7" d="M367.08,172.83H6.07v217.93h361.02v-217.93ZM229,228.74c0,24.85-20.15,45-45,45s-45-20.15-45-45,20.15-45,45-45,45,20.15,45,45M149,298.74c-30.38,0-55,24.62-55,55v25h180v-25c0-30.38-24.62-55-55-55h-70Z"/>
      </g>
    </mask>
  </defs>
  <g class="cls-6">
    <g>
      <path class="cls-1" d="M84,273.74c16.57,0,30-13.43,30-30s-13.43-30-30-30-30,13.43-30,30,13.43,30,30,30"/>
      <path class="cls-2" d="M19,343.74c0-24.85,20.15-45,45-45h40c24.85,0,45,20.15,45,45v15H19v-15Z"/>
      <path class="cls-1" d="M284,273.74c16.57,0,30-13.43,30-30s-13.43-30-30-30-30,13.43-30,30,13.43,30,30,30"/>
      <path class="cls-2" d="M219,343.74c0-24.85,20.15-45,45-45h40c24.85,0,45,20.15,45,45v15h-130v-15Z"/>
    </g>
  </g>
  <path class="cls-1" d="M184,273.74c24.85,0,45-20.15,45-45s-20.15-45-45-45-45,20.15-45,45,20.15,45,45,45"/>
  <path class="cls-2" d="M94,353.74c0-30.38,24.62-55,55-55h70c30.38,0,55,24.62,55,55v25H94v-25Z"/>
  <path class="cls-5" d="M203.1,210.74l-37.54,37.54M203.1,248.28l-37.54-37.54"/>
  <path class="cls-4" d="M92.94,234.81l-17.87,17.87M92.94,252.68l-17.87-17.87"/>
  <path class="cls-4" d="M292.94,234.81l-17.87,17.87M292.94,252.68l-17.87-17.87"/>
  <g>
    <path class="cls-3" d="M184.33,155.6c40.99,0,74.23-33.23,74.23-74.23S225.33,7.15,184.33,7.15s-74.23,33.23-74.23,74.23,33.23,74.23,74.23,74.23"/>
    <path class="cls-3" d="M184.4,133.47c28.91,0,52.34-23.44,52.34-52.34s-23.44-52.34-52.34-52.34-52.34,23.44-52.34,52.34,23.44,52.34,52.34,52.34"/>
    <path class="cls-3" d="M153,74.47h34.19M153,87.78h34.19M203.11,100.02c-4.35,3.73-10.01,5.97-16.16,5.97-13.74,0-24.87-11.13-24.87-24.87s11.13-24.87,24.87-24.87c6.15,0,11.81,2.24,16.16,5.97"/>
  </g>
</svg>