<?xml version="1.0" encoding="UTF-8"?>
<svg id="Layer_1" data-name="Layer 1" xmlns="http://www.w3.org/2000/svg" xmlns:xlink="http://www.w3.org/1999/xlink" viewBox="0 0 368.33 384.74">
  <defs>
    <style>
      .cls-1, .cls-2 {
        stroke: #000;
        stroke-width: 12px;
      }

      .cls-1, .cls-2, .cls-3, .cls-4 {
        fill: none;
        stroke-linejoin: round;
      }

      .cls-1, .cls-3, .cls-4 {
        stroke-linecap: round;
      }

      .cls-5 {
        mask: url(#mask-1);
      }

      .cls-6 {
        mask: url(#mask);
      }

      .cls-7 {
        mask: url(#mask-2);
      }

      .cls-3 {
        stroke-width: 6px;
      }

      .cls-3, .cls-4 {
        stroke: #00a49a;
      }

      .cls-8 {
        fill: #d6d6d6;
      }

      .cls-9 {
        fill: #d9d9d9;
        fill-rule: evenodd;
      }

      .cls-4 {
        stroke-width: 9px;
      }
    </style>
    <mask id="mask" x="6.07" y="172.83" width="361.02" height="217.93" maskUnits="userSpaceOnUse">
      <g id="_7o20Jknp98a" data-name="7o20Jknp98a">
        <path class="cls-9" d="M367.08,172.83H6.07v217.93h361.02v-217.93ZM229,228.74c0,24.85-20.15,45-45,45s-45-20.15-45-45,20.15-45,45-45,45,20.15,45,45M149,298.74c-30.38,0-55,24.62-55,55v25h180v-25c0-30.38-24.62-55-55-55h-70Z"/>
      </g>
    </mask>
    <mask id="mask-1" x="179.48" y="8.34" width="51.68" height="110.08" maskUnits="userSpaceOnUse">
      <g id="vxtE8m4T6ha">
        <path class="cls-8" d="M201.59,13.35c-1.71-4.04-6.37-5.92-10.41-4.21-.06.03-.12.05-.19.08-5.15,2.26-8.4,6.69-10.02,11.26-1.62,4.58-1.79,9.79-.28,14.11.03.09.07.18.1.27l10,23.57c.8-.22,1.63-.33,2.46-.33,4.73,0,8.7,3.54,9.25,8.23l4.02,29.43,18.02,2.73,4.57,1.04-6.17-35h0c-.19-1.07-.5-2.11-.93-3.1l-20.41-48.08h0Z"/>
      </g>
    </mask>
    <mask id="mask-2" x="136.84" y="8.34" width="51.68" height="110.08" maskUnits="userSpaceOnUse">
      <g id="n3LOtIS6kZb">
        <path class="cls-8" d="M166.41,13.35c1.71-4.04,6.37-5.92,10.41-4.21.06.03.12.05.19.08,5.15,2.26,8.4,6.69,10.02,11.26,1.62,4.58,1.79,9.79.28,14.11-.03.09-.07.18-.1.27l-10,23.57c-.8-.22-1.63-.33-2.46-.33-4.73,0-8.7,3.54-9.25,8.23l-4.02,29.43-18.02,2.73-4.57,1.04,6.17-35h0c.19-1.07.5-2.11.93-3.1l20.41-48.08h0Z"/>
      </g>
    </mask>
  </defs>
  <g class="cls-6">
    <g>
      <path class="cls-1" d="M84,273.74c16.57,0,30-13.43,30-30s-13.43-30-30-30-30,13.43-30,30,13.43,30,30,30"/>
      <path class="cls-2" d="M19,343.74c0-24.85,20.15-45,45-45h40c24.85,0,45,20.15,45,45v15H19v-15Z"/>
      <path class="cls-1" d="M284,273.74c16.57,0,30-13.43,30-30s-13.43-30-30-30-30,13.43-30,30,13.43,30,30,30"/>
      <path class="cls-2" d="M219,343.74c0-24.85,20.15-45,45-45h40c24.85,0,45,20.15,45,45v15h-130v-15Z"/>
    </g>
  </g>
  <path class="cls-1" d="M184,273.74c24.85,0,45-20.15,45-45s-20.15-45-45-45-45,20.15-45,45,20.15,45,45,45"/>
  <path class="cls-2" d="M94,353.74c0-30.38,24.62-55,55-55h70c30.38,0,55,24.62,55,55v25H94v-25Z"/>
  <path class="cls-4" d="M203.1,210.74l-37.54,37.54M203.1,248.28l-37.54-37.54"/>
  <path class="cls-3" d="M92.94,234.81l-17.87,17.87M92.94,252.68l-17.87-17.87"/>
  <path class="cls-3" d="M292.94,234.81l-17.87,17.87M292.94,252.68l-17.87-17.87"/>
  <g>
    <g class="cls-5">
      <path class="cls-4" d="M192.87,13.13c1.83-.78,3.95.08,4.73,1.91l20.42,48.11c.3.67.51,1.39.64,2.13l8,45.36-18.61,3.28-7.81-44.3-15.47-36.45c-2.29-6.55.33-16.74,8.1-20.04h0Z"/>
    </g>
    <path class="cls-4" d="M206.51,95.76l-4.02-29.43c-.55-4.69-4.52-8.23-9.25-8.23-5.14,0-9.31,4.17-9.31,9.31l-.02,41.11c0,8.45,5.96,15.72,14.25,17.37l38.33,7.64v-32.32l-11.97-2.72M223.43,92.5l1.05,5.95"/>
    <path class="cls-4" d="M257.5,138.78h-21.01v-42l21.01,5.25v36.75Z"/>
    <g class="cls-7">
      <path class="cls-4" d="M175.13,13.13c-1.83-.78-3.95.08-4.73,1.91l-20.42,48.11c-.3.67-.51,1.39-.64,2.13l-8,45.36,18.61,3.28,7.81-44.3,15.47-36.45c2.29-6.55-.33-16.74-8.1-20.04h0Z"/>
    </g>
    <path class="cls-4" d="M161.49,95.76l4.02-29.43c.55-4.69,4.52-8.23,9.25-8.23,5.14,0,9.31,4.17,9.31,9.31l.02,41.11c0,8.45-5.96,15.72-14.25,17.37l-38.33,7.64v-32.32l11.97-2.72M144.57,92.5l-1.05,5.95"/>
    <path class="cls-4" d="M110.5,138.78h21.01v-42l-21.01,5.25v36.75Z"/>
  </g>
</svg>