<svg xmlns="http://www.w3.org/2000/svg" width="430" height="430" fill="none" viewBox="0 0 430 430"><g stroke-linejoin="round" stroke-width="12"><path stroke="#121331" d="M30 110c0-16.568 13.432-30 30-30h310c16.569 0 30 13.432 30 30v210c0 16.569-13.431 30-30 30H60c-16.568 0-30-13.431-30-30z"/><path stroke="#00a49a" stroke-linecap="round" d="M216 165v100m-35 0h70m-70-100h70m30 65.278h38.889c15.341 0 27.778-12.437 27.778-27.778v-9.722c0-15.341-12.437-27.778-27.778-27.778H281v100M73 165l38.572 100h8.571l38.571-100"/></g></svg>