<?xml version="1.0" encoding="UTF-8"?>
<svg id="Layer_2" data-name="Layer 2" xmlns="http://www.w3.org/2000/svg" viewBox="0 0 356.02 311">
  <defs>
    <style>
      .cls-1 {
        fill: #00a69a;
        stroke: #00a69a;
        stroke-linecap: round;
        stroke-width: 8px;
      }

      .cls-1, .cls-2 {
        stroke-linejoin: round;
      }

      .cls-2 {
        fill: none;
        stroke: #2e2e2e;
        stroke-width: 20px;
      }
    </style>
  </defs>
  <g id="Dangerous_substances" data-name="Dangerous substances">
    <g>
      <path class="cls-1" d="M172.07,113.87c.11,9.14-1.04,23.15-8.74,37-11.92,21.42-28.26,22.16-37,43-1.21,2.89-8.99,22.28-.19,42.02,8.66,19.42,29.14,29.7,47.37,30.86,5.59,.36,28.33,.96,44.5-17.23,.86-.96,16.79-19.5,12.2-44.5-1.85-10.1-6.36-17.44-9.33-21.53-.02,9.58-6.18,17.17-13.55,18.38-7.24,1.18-14.69-3.96-17-10-3.13-8.2,5.04-13.24,7-30,.33-2.84,1.14-10.74-1-19-4.28-16.47-18.6-25.76-24.26-29Z"/>
      <polygon class="cls-2" points="178.01 10 10 301 346.02 301 178.01 10"/>
    </g>
  </g>
</svg>