<?xml version="1.0" encoding="UTF-8"?>
<svg id="Layer_1" xmlns="http://www.w3.org/2000/svg" version="1.1" viewBox="0 0 430 430">
  <!-- Generator: Adobe Illustrator 29.5.0, SVG Export Plug-In . SVG Version: 2.1.0 Build 137)  -->
  <defs>
    <style>
      .st0 {
        stroke: #121331;
      }

      .st0, .st1 {
        fill: none;
        stroke-linecap: round;
        stroke-linejoin: round;
        stroke-width: 12px;
      }

      .st1 {
        stroke: #00a49a;
      }
    </style>
  </defs>
  <path class="st1" d="M335.3,166.5s-49.5,11.1-122.2,11.1-122.2-11.1-122.2-11.1M191.6,300.7c0-10,47.4-10,47.4,0"/>
  <path class="st0" d="M402.3,191.7c0,18.1-84.6,32.9-189.1,32.9s-189.1-14.7-189.1-32.9,26.1-19.1,66.9-25l24.3-76.3c4.2-12.8,16.8-20.9,30.2-19.1l32.5,4.3c23.3,3.2,46.9,3.2,70.3,0l32.5-4.3c13.4-1.8,26.1,6.3,30.2,19.1l24.2,76.3c41,5.9,67,15.1,67,25"/>
  <path class="st1" d="M115.2,358h28.5c24.5,0,44.9-12.9,46.2-37.4l1.5-27.3c0-7.1-5.8-12.9-12.9-12.9h-84.9c-6.2,0-11.4,5.1-11.4,11.4l4.9,41.1c1.6,14.3,13.7,25.2,28.1,25.2M314.8,358h-28.5c-24.5,0-44.9-12.9-46.2-37.4l-1.5-27.3c0-7.1,5.8-12.9,12.9-12.9h84.9c6.2,0,11.4,5.1,11.4,11.4l-4.9,41.1c-1.5,14.3-13.7,25.2-28.1,25.2"/>
</svg>