<svg xmlns="http://www.w3.org/2000/svg" width="430" height="430" fill="none" viewBox="0 0 430 430"><g stroke-linecap="round" stroke-linejoin="round" stroke-width="12"><path stroke="#121331" d="m94.45 263.009 44.411-.021s9.021 4.092 24.397 7.423m104.937-33.429h75.19c9.177 0 16.718 8.004 17.467 17.298.92 11.489-8.761 20.3-20.097 20.3-29.983 0-59.966.021-89.949.035m10.847-113.85 108.022-.041c11.122 0 20.135-9.024 20.135-20.155-.011-9.917-8.058-17.954-17.975-17.954H222.559"/><path stroke="#121331" d="m94.394 127.813 44.474.001 17.794-20.453a94.8 94.8 0 0 1 48.116-30.665l60.078-21.29c6.323-1.694 12.823 2.059 14.517 8.382 5.083 18.97-4.218 34.847-25.144 43.552l-31.666 15.275s-.672 38.376-48.193 52.179m87.529 24.083 109.767-.004c9.917 0 17.964 8.037 17.975 17.954 0 11.131-9.014 20.154-20.135 20.154h-31.181"/><path stroke="#121331" d="m261.747 160.765 121.189.001c10.518 0 19.054 8.525 19.064 19.043 0 10.519-8.525 19.055-19.044 19.065H261.767"/><path stroke="#00a49a" d="M42 104.293v171.291h52.397V104.293z"/><ellipse cx="215" cy="350" stroke="#00a49a" rx="55" ry="30"/><path stroke="#00a49a" d="M215 410c30.376 0 55-13.431 55-30v-30c0 16.569-24.624 30-55 30s-55-13.431-55-30v30c0 16.569 24.624 30 55 30m47.016-196.023c4.289 16.004-16.02 35.351-45.361 43.212s-56.602 1.262-60.89-14.742m106.251-28.47c-4.288-16.004-31.549-22.605-60.89-14.743s-49.65 27.209-45.361 43.213m106.251-28.47 7.765 28.977c4.288 16.004-16.021 35.351-45.361 43.213-29.341 7.862-56.603 1.261-60.891-14.743l-7.764-28.977"/></g></svg>