<svg xmlns="http://www.w3.org/2000/svg" width="430" height="430" fill="none" viewBox="0 0 430 430"><g stroke-linecap="round" stroke-linejoin="round" stroke-width="12"><path stroke="#121331" d="M285 360h110M200.5 65c73.812 0 134.961 54.217 145.795 125m-291.59 45c6.786 44.336 33.313 82.173 70.326 104.257"/><path stroke="#00a49a" d="M53 212.5c0-72.766 52.691-133.225 122-145.304M348 212.5c0 81.462-66.038 147.5-147.5 147.5H20"/><path stroke="#121331" d="m375 325 35 35-35 35M235 100l-35-35 35-35"/><path stroke="#00a49a" d="m88 178-35 35-35-35m295 69.5 35-35 35 35"/></g></svg>