<svg xmlns="http://www.w3.org/2000/svg" width="430" height="430" fill="none" viewBox="0 0 430 430"><g stroke-linecap="round" stroke-linejoin="round" stroke-miterlimit="10" stroke-width="12"><path stroke="#121331" d="M181.5 212.4H93.7c-9.8 0-17.7 7.9-17.7 17.7v2c0 9.8 7.9 17.7 17.7 17.7H265"/><path stroke="#00a49a" d="m257 249.9-24.9-43.1c-5.6-9.8-18.1-13.1-27.9-7.5l-87.6 50.6"/><path stroke="#121331" d="M76 230.1v150.6c0 11.4 9.3 20.7 20.7 20.7h175.7v-56.8m-.099-94.7v56.9"/><path stroke="#00a49a" d="M220.201 344.6h62.2v-37.9h-62.2c-10.1 0-18.2 8.2-18.2 18.2v1.4c-.1 10.2 8.1 18.3 18.2 18.3"/><path stroke="#00a49a" stroke-dasharray="0.1 0.1" d="m193.6 231.6 27.9-16.2"/><path stroke="#121331" d="M229 55.1c14.1-2.2 29-3.3 52.5-1.4L306 29l48 46.9-25.2 28.5-.8.9m-53.3 29.3c-16-9-38.3-8.4-45.2-8-1.4.1-2.1.2-2.1.2m-54.1-62.9c-2.2-3.2-3.1-7.3-2.2-11.4l.8-3.6c.8-3.7 4.4-6.1 8.1-5.3l10.6 2.4 15.9 3.4 22.8 4.8m-6.499 14.5-19.8-1.9-29.7-2.8h-.3l-22.3-2.1c-4.2-.4-8 2.7-8.4 6.9l-.1 1c-.9 9.2 5.9 17.4 15.1 18.3l13.2 1.3.6.1"/><path stroke="#121331" d="m225.001 84.7-29.8-.7-24.1 5.3-9.5 2.1-21.8 14.7c-2.3 1.5-3.5 4.1-3.5 6.6 0 1.5.5 3.1 1.4 4.5 5.4 8 16.2 10.1 24.2 4.7l10-6.7 25.8-5.7 11.1.3"/><path stroke="#121331" d="m229.5 126.6-19.8 11.2-14.2 19.3-2.2 9.6c-2.2 9.4-11.5 15.3-20.9 13.1-4.3-1-7-5.3-6-9.6l5.5-24 19.5-28.2 31.3-14.8m103.7-5.5c5.3 16.4-2.9 33.8-2.9 33.8-6.9 16.3-19.6 29.6-35.6 37.2l-33.4 15.9c-4.1 1.9-8.9.3-11.1-3.6-5.7-10.6-1.1-20.7 9.1-29.2l22.6-17.5m-2.8 115.6H104m121.75 75.825h.1"/></g></svg>