<svg xmlns="http://www.w3.org/2000/svg" width="430" height="430" fill="none" viewBox="0 0 430 430"><g stroke-linecap="round" stroke-linejoin="round" stroke-miterlimit="10" stroke-width="12"><path stroke="#121331" d="m191.8 356.6-.2.1c-6 3.5-13.7 1.4-17.2-4.6l-12.1-21c-3.5-6-1.4-13.7 4.6-17.2l.2-.1c6-3.5 13.7-1.4 17.2 4.6l12.1 21c3.4 6 1.4 13.7-4.6 17.2"/><path stroke="#121331" d="m194.199 367.7-.1-.2c-3.5-6-1.4-13.7 4.6-17.2l21-12.1c6-3.5 13.7-1.4 17.2 4.6l.1.2c3.5 6 1.4 13.7-4.6 17.2l-21 12.1c-6 3.5-13.7 1.4-17.2-4.6M99.899 168c22.699 0 41.1-18.401 41.1-41.1s-18.401-41.1-41.1-41.1-41.1 18.401-41.1 41.1 18.4 41.1 41.1 41.1"/><path stroke="#121331" d="M62.4 65.6c-32.7 20-44 62.8-25.4 96.3 11.7 21 32.2 33.8 54.3 36.5 2.7.3 5.1 2 6.4 4.3l9.199 15.9c2.4 4.2 7.7 5.6 11.9 3.2l1-.5c3.6-2.1 8.3-.9 10.4 2.8 2.1 3.6 6.8 4.9 10.4 2.8l25.4-14.7c3.6-2.1 4.9-6.8 2.8-10.4s-.9-8.3 2.8-10.4l1-.5c4.2-2.4 5.6-7.7 3.2-11.9l-9.2-15.9c-1.4-2.4-1.5-5.3-.4-7.9 8.5-20.1 7.8-43.7-3.9-64.1-20.3-35-65.3-46.7-99.9-25.5m59.899 95.8c-20.5 13.3-47.9 5.9-59-15.8-9.6-18.6-3.4-41.8 14.2-53.1 20.5-13.3 47.9-5.9 59 15.8 9.5 18.6 3.3 41.8-14.2 53.1"/><path stroke="#121331" d="M99.899 168c22.699 0 41.1-18.401 41.1-41.1s-18.401-41.1-41.1-41.1-41.1 18.401-41.1 41.1 18.4 41.1 41.1 41.1"/><path stroke="#00a49a" d="m134.199 192.9 5.7-3.3"/><path stroke="#121331" d="m97.499 202.1-4.2-7.2c-4-6.9-1.6-15.8 5.3-19.8l21.8-12.6M63.9 64.6c-7.4 4.3-9.9 13.7-5.6 21.1s13.7 9.9 21 5.6"/><path stroke="#00a49a" d="M329.7 331c22.699 0 41.1-18.401 41.1-41.1s-18.401-41.1-41.1-41.1-41.1 18.401-41.1 41.1 18.401 41.1 41.1 41.1"/><path stroke="#00a49a" d="M391.099 252.4c-20-32.7-62.8-44-96.3-25.4-21 11.7-33.8 32.2-36.5 54.3-.3 2.7-2 5.1-4.3 6.4l-15.9 9.2c-4.2 2.4-5.6 7.7-3.2 11.9l.5 1c2.1 3.6.9 8.3-2.8 10.4-3.6 2.1-4.9 6.8-2.8 10.4l14.7 25.4c2.1 3.6 6.8 4.9 10.4 2.8s8.3-.9 10.4 2.8l.5 1c2.4 4.2 7.7 5.6 11.9 3.2l15.9-9.2c2.4-1.4 5.3-1.5 7.9-.4 20.1 8.5 43.7 7.8 64.1-3.9 34.9-20.3 46.6-65.3 25.5-99.9m-95.9 59.9c-13.3-20.5-5.9-47.9 15.8-59 18.6-9.5 41.8-3.3 53.2 14.2 13.3 20.5 5.9 47.9-15.8 59-18.7 9.6-41.9 3.4-53.2-14.2"/><path stroke="#00a49a" d="M329.7 331c22.699 0 41.1-18.401 41.1-41.1s-18.401-41.1-41.1-41.1-41.1 18.401-41.1 41.1 18.401 41.1 41.1 41.1"/><path stroke="#121331" d="m263.699 324.2 3.3 5.7"/><path stroke="#00a49a" d="m254.5 287.6 7.2-4.2c6.9-4 15.8-1.6 19.8 5.3l12.6 21.8m97.899-56.6c-4.3-7.4-13.7-9.9-21.1-5.6s-9.9 13.7-5.6 21"/><path stroke="#121331" d="m177.8 262.3-.2.1c-6 3.5-13.7 1.4-17.2-4.6l-12.1-21c-3.5-6-1.4-13.7 4.6-17.2l.2-.1c6-3.5 13.7-1.4 17.2 4.6l12.1 21c3.5 6.1 1.4 13.7-4.6 17.2"/><path stroke="#121331" d="m168.2 311.2-.3-.1c-6.7-1.8-10.7-8.7-8.9-15.4l6.3-23.4c1.8-6.7 8.7-10.7 15.4-8.9l.3.1c6.7 1.8 10.7 8.7 8.9 15.4l-6.3 23.4c-1.8 6.7-8.7 10.7-15.4 8.9"/></g></svg>