<?xml version="1.0" encoding="UTF-8"?>
<svg id="Layer_1" data-name="Layer 1" xmlns="http://www.w3.org/2000/svg" viewBox="0 0 430 430">
  <defs>
    <style>
      .cls-1, .cls-2 {
        fill: none;
      }

      .cls-1, .cls-2, .cls-3 {
        stroke-linecap: round;
        stroke-linejoin: round;
        stroke-width: 12px;
      }

      .cls-1, .cls-3 {
        stroke: #121331;
      }

      .cls-2 {
        stroke: #00a49a;
      }
    </style>
  </defs>
  <path class="cls-1" d="M336.36,126.2v52.38c0,52.69-15.39,87.82-15.39,87.82v63.61l-177.88-.16v-63.61l-.76-13.14"/>
  <path class="cls-1" d="M232.86,119.55c3.19-28.79,4.9-57.7,6.82-86.59"/>
  <path class="cls-1" d="M239.36,34.73c4.43-4.91,10.92-8.07,18.04-7.91,7.6,0,14.4,3.17,19.46,8.07,4.91,5.06,8.07,11.87,8.07,19.46v64.09c0,14.4-11.87,26.11-26.27,25.95-13.77-.16-25-11.08-25.79-24.69"/>
  <path class="cls-1" d="M310.88,144.08c-14.4.16-26.11-11.24-26.27-25.64l-.32-55.23c0-14.4,11.71-25.95,26.11-25.95s25.95,11.71,25.95,26.11v55.07c0,13.93-11.39,25.48-25.48,25.64"/>
  <path class="cls-1" d="M160.96,132.71c35.7,5.5,63.77,36.69,73.33,71.98"/>
  <path class="cls-1" d="M161.27,132.52c2.07.13,4.19,0,6.15-.72-1.28-.63-2.69-.93-4.11-.96"/>
  <path class="cls-1" d="M172.13,59.43c13.62-8.55,32.33-.76,33.89,16.4,1.56,18.71-10.92,32.75-24.45,43.01"/>
  <path class="cls-1" d="M142.64,252.95c-16.3-32.09-39.76-58.6-45.34-99.15-3.35-18.71,0-35.87,7.82-51.46,15.64-26.51,39.09-29.63,60.2-40.66"/>
  <path class="cls-2" d="M123.06,405.65h214.57v-75.8H89.83l33.23,75.8Z"/>
  <path class="cls-1" d="M179,57.71c.01-12.34,2.84-26.05,15.34-31.47,13.02-5.65,25.82,2.14,32.08,13.69,13.63,25.15,8.91,57.95,4.25,84.93-2.03,11.77-8.77,25.84-22.79,24.85"/>
  <path class="cls-1" d="M207.89,149.7c-16.02-.27-24.54-16-27.16-29.93"/>
  <path class="cls-1" d="M168.68,127.55c-4.08,6.77-11.01,12.05-19.12,12.38"/>
  <path class="cls-1" d="M120.21,76.98c-1.29-14.49-3.59-32.41,7.82-43.71,9.26-9.17,26.67-11.41,36.09-1.25,6.82,7.35,6.72,18.08,8.82,27.31"/>
  <line class="cls-3" x1="153.78" y1="136.57" x2="178.07" y2="120.94"/>
</svg>