<svg xmlns="http://www.w3.org/2000/svg" width="430" height="430" fill="none" viewBox="0 0 430 430"><g stroke-linecap="round" stroke-linejoin="round" stroke-width="12"><path stroke="#121331" d="M193.74 270.7v138h-52c-8-12.61 16.83-24.78 16.83-24.78l-3.07-149.68m38.25 36.46v138h52c8-12.61-16.83-24.78-16.83-24.78L232 234.23M190.36 56.55h3a21.047 21.047 0 0 1 21.05 21.05v29.5a6.303 6.303 0 0 1-6.3 6.3h-17.8a21.05 21.05 0 0 1-14.885-6.165 21.05 21.05 0 0 1-6.165-14.885V77.61a21.05 21.05 0 0 1 21.05-21.05z"/><path stroke="#00a49a" d="M231.99 167.09v67.14h-76.47l-.03-70.7m-.01 0-79.34-111S97 30.14 112.35 56.68L173.48 138"/><path stroke="#121331" d="M321.35 127.74 306.87 89.3m40.28 106.91-15.85-42.06"/><path stroke="#00a49a" d="M232.169 138.04h-58.69m58.661-.04 56.31 6.28 51.849-26.12s16.761 14.48 1.441 30.71l-46 23.13-63.74-4.91"/><path stroke="#121331" d="m333.549 21.28-93.963 39.634 20.314 48.161 93.963-39.634z"/></g></svg>