<svg xmlns="http://www.w3.org/2000/svg" width="430" height="430" fill="none" viewBox="0 0 430 430"><g stroke-linecap="round" stroke-linejoin="round" stroke-width="12"><path stroke="#121331" d="M89.2 340.09v-22.82l-48.46-54.68A26.8 26.8 0 0 1 34 244.82v-89.99c0-9.71 7.87-17.58 17.58-17.58 9.72 0 17.6 7.89 17.58 17.62l-.18 85.17 35.98 40.43s-16.21-18.22-35.98-40.43c-.58-8.74 4.78-12.77 11.13-14.52 9.7-2.67 20.08.58 26.94 7.94l48.28 51.81v54.82m-5.25 50.37H81.83a6.68 6.68 0 0 1-6.68-6.68v-37.01a6.68 6.68 0 0 1 6.68-6.68h77.32c4.33 0 7.52 4.06 6.49 8.27l-9.06 37c-.74 3-3.42 5.1-6.5 5.1m190.061-50.37v-22.82l48.46-54.68c4.34-4.9 6.74-11.22 6.74-17.77v-89.99c0-9.71-7.87-17.58-17.58-17.58-9.72 0-17.6 7.89-17.58 17.62l.18 85.17m0 0-35.98 40.43s16.21-18.22 35.98-40.43m0 0c.58-8.74-4.78-12.77-11.13-14.52-9.7-2.67-20.08.58-26.94 7.94l-48.28 51.81v54.82m5.24 50.37h68.25a6.68 6.68 0 0 0 6.68-6.68v-37.01a6.68 6.68 0 0 0-6.68-6.68h-77.32c-4.33 0-7.52 4.06-6.49 8.27l9.06 37c.74 3 3.42 5.1 6.5 5.1"/><path stroke="#00a49a" stroke-miterlimit="8" d="M212.83 232.765c-34.06 0-61.67-44.77-61.67-100s27.61-100 61.67-100"/><path stroke="#00a49a" stroke-miterlimit="8" d="M212.83 232.765c.17-17.5.33-44.77.33-100s-.17-68.5-.33-100"/><path stroke="#00a49a" stroke-miterlimit="8" d="M212.83 232.765c35.16 0 63.67-44.77 63.67-100s-28.51-100-63.67-100m-100 100h200"/><path stroke="#00a49a" stroke-miterlimit="8" d="M277.48 56.484c-17.42 9.12-39.98 14.62-64.64 14.62s-47.22-5.5-64.66-14.62m0 152.561c17.42-9.12 39.98-14.62 64.64-14.62s47.22 5.5 64.66 14.62"/><path stroke="#00a49a" stroke-miterlimit="8" d="M312.91 132.765c0 55.23-44.77 100-100 100s-100-44.77-100-100 44.77-100 100-100 100 44.77 100 100"/></g></svg>