<?xml version="1.0" encoding="UTF-8"?>
<svg id="Layer_1" data-name="Layer 1" xmlns="http://www.w3.org/2000/svg" viewBox="0 0 430 430">
  <defs>
    <style>
      .cls-1 {
        stroke: #121331;
      }

      .cls-1, .cls-2 {
        fill: none;
        stroke-linecap: round;
        stroke-linejoin: round;
        stroke-width: 12px;
      }

      .cls-2 {
        stroke: #00a49a;
      }
    </style>
  </defs>
  <path class="cls-1" d="M159.49,29.55c.14,31.1-17.86,31.18-17.71,62.38.14,31.1,18.14,31.02,18.29,62.22.14,31.1-17.86,31.18-17.71,62.38.14,31.1,18.14,31.02,18.29,62.22.14,31.1-17.86,31.18-17.71,62.38.14,31.1,18.14,31.02,18.29,62.22"/>
  <path class="cls-1" d="M209.29,29.32c.14,31.1-17.86,31.18-17.71,62.38.14,31.1,18.14,31.02,18.29,62.22.14,31.1-17.86,31.18-17.71,62.38s18.14,31.02,18.29,62.22c.14,31.1-17.86,31.18-17.71,62.38.14,31.2,18.14,31.02,18.29,62.22"/>
  <line class="cls-1" x1="106.49" y1="29.79" x2="108.19" y2="398.29"/>
  <path class="cls-2" d="M257.8,26.65c.14,31.1-17.86,31.18-17.71,62.38.14,31.1,18.14,31.02,18.29,62.22.14,31.1-17.86,31.18-17.71,62.38.14,31.1,18.14,31.02,18.29,62.22.14,31.1-17.86,31.18-17.71,62.38.14,31.2,18.14,31.02,18.29,62.22"/>
  <path class="cls-1" d="M308.52,29.55c.14,31.1-17.86,31.18-17.71,62.38.14,31.1,18.14,31.02,18.29,62.22.14,31.1-17.86,31.18-17.71,62.38.14,31.1,18.14,31.02,18.29,62.22.14,31.1-17.86,31.18-17.71,62.38.14,31.2,18.14,31.02,18.29,62.22"/>
  <line class="cls-1" x1="350.71" y1="29.79" x2="352.41" y2="398.29"/>
</svg>