<?xml version="1.0" encoding="UTF-8"?>
<svg id="Layer_1" data-name="Layer 1" xmlns="http://www.w3.org/2000/svg" viewBox="0 0 430 430">
  <defs>
    <style>
      .cls-1, .cls-2 {
        stroke-width: 12px;
      }

      .cls-1, .cls-2, .cls-3, .cls-4 {
        fill: none;
        stroke-linecap: round;
        stroke-linejoin: round;
      }

      .cls-1, .cls-3 {
        stroke: #121331;
      }

      .cls-2, .cls-4 {
        stroke: #00a49a;
      }

      .cls-3, .cls-4 {
        stroke-width: 6px;
      }
    </style>
  </defs>
  <path class="cls-2" d="M266.36,311.32c10.64-6.48,17.85-18.22,17.85-31.55M357.96,279.77c0,20.3-16.51,36.81-36.81,36.81s-36.81-16.51-36.81-36.81"/>
  <path class="cls-2" d="M402.23,315.97c-2.45.49-4.89.73-7.46.73-20.3,0-36.81-16.51-36.81-36.81M328,201.14c0,20.3-16.51,36.81-36.81,36.81s-36.81-16.51-36.81-36.81M223.32,237.58c17.49-2.81,30.94-18.1,30.94-36.32M401.74,201.02c0,20.3-16.51,36.81-36.81,36.81s-36.81-16.51-36.81-36.81"/>
  <path class="cls-1" d="M34.21,201.08c49.73.19,99.24-.87,148.75,3.35,2.11,0,4.21,1.05,7.37,2.11,7.37,4.21,15.8,8.43,21.07,15.8,14.75,21.07,22.12,42.14,35.82,64.26,13.7,23.18,30.55,42.14,54.78,55.83,14.75,8.43,30.55,13.7,47.41,17.91,17.91,3.16,34.76,2.11,52.21,2.11"/>
  <g>
    <path class="cls-4" d="M142.35,193.01h-42.91l6.27-11.19h30.38l6.27,11.19ZM116.49,181.82v-82.64M125.3,99.18v82.64"/>
    <path class="cls-3" d="M87.33,86.52h67.12v7.72c0,2.72-2.21,4.93-4.93,4.93h-57.26c-2.72,0-4.93-2.21-4.93-4.93v-7.72h0ZM154.45,86.52h33.91v7.72c0,2.72-2.21,4.93-4.93,4.93h-24.05c-2.72,0-4.93-2.21-4.93-4.93v-7.72ZM53.42,86.52h33.91v7.72c0,2.72-2.21,4.93-4.93,4.93h-24.05c-2.72,0-4.93-2.21-4.93-4.93v-7.72Z"/>
    <path class="cls-3" d="M53.42,86.52s38.66-22.13,57.94-22.13h19.07c14.47,0,57.94,22.13,57.94,22.13M120.89,64.39v-6.07"/>
    <path class="cls-3" d="M154.45,86.52s-11.19-10.98-33.56-22.13M87.33,86.49s11.19-10.98,33.56-22.13"/>
  </g>
</svg>