<?xml version="1.0" encoding="UTF-8"?>
<svg id="Layer_1" xmlns="http://www.w3.org/2000/svg" version="1.1" viewBox="0 0 430 430">
  <!-- Generator: Adobe Illustrator 29.5.0, SVG Export Plug-In . SVG Version: 2.1.0 Build 137)  -->
  <defs>
    <style>
      .st0, .st1 {
        stroke-linejoin: round;
      }

      .st0, .st1, .st2 {
        fill: none;
        stroke-linecap: round;
        stroke-width: 12px;
      }

      .st0, .st2 {
        stroke: #121331;
      }

      .st1 {
        stroke: #00a49a;
      }
    </style>
  </defs>
  <path class="st0" d="M26,271.7v132.3h379.2v-132.3M217,26.1l74.5,20M152.4,246c-2.4-11.1-2.1-23,.9-34.2l16.3-61,34.5,9.2M236,168.6l34.3,9.2-16.3,61c-.7,2.5-1.4,4.9-2.4,7.2"/>
  <path class="st0" d="M270.3,40.3l-40.3,150.5c-2.4,8.8-11.5,14.1-20.3,11.7s-14.1-11.5-11.7-20.3L238.3,31.8"/>
  <path class="st1" d="M405.2,246H26v47.4h379.2v-47.4Z"/>
  <path class="st2" d="M66,331h35.5M154.8,331h35.5M243.7,331h35.5M332.5,331h35.5M109,367.1h35.5M197.8,367.1h35.5M286.7,367.1h35.5"/>
</svg>