<svg xmlns="http://www.w3.org/2000/svg" width="430" height="430" fill="none" viewBox="0 0 430 430"><g stroke-linecap="round" stroke-linejoin="round" stroke-miterlimit="10" stroke-width="12"><path stroke="#00a49a" d="M264.7 305.5c8.7-5.3 14.6-14.9 14.6-25.8m60.3 0c0 16.6-13.5 30.1-30.1 30.1s-30.1-13.5-30.1-30.1"/><path stroke="#00a49a" d="M375.8 309.3c-2 .4-4 .6-6.1.6-16.6 0-30.1-13.5-30.1-30.1m-24.5-64.4c0 16.6-13.5 30.1-30.1 30.1s-30.1-13.5-30.1-30.1m-25.4 29.8c14.3-2.3 25.3-14.8 25.3-29.7m120.6-.2c0 16.6-13.5 30.1-30.1 30.1s-30.1-13.5-30.1-30.1"/><path stroke="#121331" d="M55 215.3h127.4c19.5 0 37.4 10.9 46.4 28.2l19.6 37.8c21 40.6 62.9 66 108.5 66h18.4"/><path stroke="#00a49a" d="M107.4 215.3v-53.1h32.1v53.1"/><path stroke="#121331" d="M147 104.1V88.4h19.4v34m12.2 11.5v81.4H68.2v-81.4"/><path stroke="#121331" d="M189.8 144.4 123.5 82l-66.4 62.4"/></g></svg>