<?xml version="1.0" encoding="UTF-8"?>
<svg id="Layer_1" data-name="Layer 1" xmlns="http://www.w3.org/2000/svg" viewBox="0 0 430 430">
  <defs>
    <style>
      .cls-1 {
        stroke: #121331;
        stroke-width: 12px;
      }

      .cls-1, .cls-2, .cls-3 {
        fill: none;
        stroke-linecap: round;
        stroke-linejoin: round;
      }

      .cls-2 {
        stroke-width: 6px;
      }

      .cls-2, .cls-3 {
        stroke: #00a49a;
      }

      .cls-3 {
        stroke-width: 5px;
      }
    </style>
  </defs>
  <path class="cls-1" d="M334.5,359.84c-18.82-13.04-72.72-203.22-91.91-216.77,0-30.49,0-60.97,0-91.46-22.58-9.03-46.3-15.81-68.88-23.71,0,.37.02.74.06,1.1,0-.37-.01-.74-.06-1.1,0,29.47,0,58.94,0,88.4"/>
  <path class="cls-1" d="M17.33,359.06l13.93-195.86,16.19-44.43h38.43s-9.79-60.26-9.79-60.26h97.93v59.5s19.58,30.13,19.58,30.13v60.27s19.59,15.06,19.59,15.06v135.6"/>
  <path class="cls-1" d="M138.62,178.26v75.34s11.94,30.13,11.94,30.13v75.34M85.88,209.16v-90.4M77.6,286.33v73.51"/>
  <g>
    <path class="cls-2" d="M326.86,134.89l-3.73-24.56-12.25-3.42-21.2-10.53-10.92,13.19-8.28,6.2-1.26,8.96,3.73,8.6,28.34,19.23,5.56-3.98,11.67,1.42,8.33-15.13Z"/>
    <path class="cls-2" d="M289.68,96.38l4.11,15.89,5.28,3.58,2.22,36.71M299.07,115.85l13.59,10.44,14.2,8.6"/>
    <path class="cls-2" d="M293.79,112.27l-5.25,2.15-4.62,11.07-10.96,7.84M323.13,110.33l-10.47,15.96"/>
  </g>
  <g>
    <path class="cls-3" d="M409.78,299.99l-2.42-17.23-8.51-2.31-14.71-7.25-7.71,9.35-5.82,4.42-.94,6.31,2.54,6.02,19.62,13.31,3.9-2.84,8.13.92,5.92-10.69Z"/>
    <path class="cls-3" d="M384.14,273.19l2.75,11.14,3.66,2.48,1.29,25.79M390.54,286.81l9.4,7.24,9.84,5.94"/>
    <path class="cls-3" d="M386.89,284.33l-3.67,1.55-3.3,7.82-7.7,5.59M407.36,282.75l-7.42,11.29"/>
  </g>
  <g>
    <path class="cls-2" d="M353.1,222.87l-13.98-16.39-10.52,3.15-20.32,2.06-1.93,14.8-3.21,8.41,3.19,7.2,6.67,4.62,29.52,1.05,2.24-5.51,9.18-4.36-.84-15.02Z"/>
    <path class="cls-2" d="M308.28,211.69l10.28,9.82,5.5.2,18.45,26.06M324.07,221.71l14.72,1.4,14.31-.24"/>
    <path class="cls-2" d="M318.56,221.51l-2.85,4.02,1.7,10.31-4.42,10.87M339.12,206.48l-.34,16.63"/>
  </g>
</svg>