<?xml version="1.0" encoding="UTF-8"?>
<svg id="Layer_1" xmlns="http://www.w3.org/2000/svg" version="1.1" viewBox="0 0 430 430">
  <!-- Generator: Adobe Illustrator 29.5.0, SVG Export Plug-In . SVG Version: 2.1.0 Build 137)  -->
  <defs>
    <style>
      .st0 {
        stroke: #121331;
      }

      .st0, .st1 {
        fill: none;
        stroke-linecap: round;
        stroke-linejoin: round;
        stroke-width: 12px;
      }

      .st1 {
        stroke: #00a49a;
      }
    </style>
  </defs>
  <path class="st1" d="M216,404.5v-84.4M173.8,362.3h84.4M186.2,332.4l59.7,59.7M186.2,392.1l59.7-59.7M300.9,341c0,10.2,8.3,18.5,18.5,18.5s18.5-8.3,18.5-18.5-18.5-40.8-18.5-40.8c0,0-18.5,30.6-18.5,40.8M93.9,341c0,10.2,8.3,18.5,18.5,18.5s18.5-8.3,18.5-18.5-18.5-40.8-18.5-40.8c0,0-18.5,30.6-18.5,40.8"/>
  <path class="st0" d="M147.1,137.4c5.6-21.5-9.8-42.4-30.7-47.4-25.8-6.1-49.8,16.8-46,43.1-21.8,12.3-36.6,35.6-36.6,62.4,0,39.6,32.1,71.5,71.5,71.5h206.1c47.9,0,86.6-38.8,86.6-86.6s-23.2-68.6-55.8-81"/>
  <path class="st0" d="M351.7,174.6c4.5-25.3,1.3-51.8-9.4-75.1-19.9-43.7-64-74-115.2-74s-88.7,26.5-110.6,64.5"/>
</svg>