<?xml version="1.0" encoding="UTF-8"?>
<svg id="Layer_1" xmlns="http://www.w3.org/2000/svg" version="1.1" viewBox="0 0 430 430">
  <!-- Generator: Adobe Illustrator 29.5.0, SVG Export Plug-In . SVG Version: 2.1.0 Build 137)  -->
  <defs>
    <style>
      .st0 {
        fill: none;
        stroke: #00a49a;
        stroke-linecap: round;
        stroke-linejoin: round;
        stroke-width: 12px;
      }
    </style>
  </defs>
  <path class="st0" d="M218.6,408.7V29M28.8,218.8h379.7M84.4,84.6l268.4,268.4M84.4,353.1L352.9,84.6M218.6,76.4l-47.4-47.4M218.6,76.4l47.4-47.4M319.1,118.4V51.3M319.1,118.4h67.1M118.2,118.4V51.3M118.2,118.4H51.1M118.2,319.3v67.1M118.2,319.3H51.1M319.1,319.3v67.1M319.1,319.3h67.1M218.6,151.5l-47.4-47.4M218.6,151.5l47.4-47.4M285.9,218.8l47.4-47.4M285.9,218.8l47.4,47.4M151.8,218.8l-47.4,47.4M151.8,218.8l-47.4-47.4M266.1,171.4v-67.1M266.1,171.4h67.2M171.2,171.4h-67.1M171.2,171.4v-67.1M218.6,285.9l47.4,47.5M218.6,285.9l-47.4,47.5M171.2,266.3v67.2M171.2,266.3h-67.1M266.1,266.3h67.2M266.1,266.3v67.2M218.6,361.2l47.4,47.4M218.6,361.2l-47.4,47.4M76.2,218.8l-47.4,47.4M76.2,218.8l-47.4-47.4M361.3,218.8l47.5-47.4M361.3,218.8l47.5,47.4"/>
</svg>