<?xml version="1.0" encoding="UTF-8"?>
<svg id="Layer_1" xmlns="http://www.w3.org/2000/svg" version="1.1" viewBox="0 0 430 430">
  <!-- Generator: Adobe Illustrator 29.5.0, SVG Export Plug-In . SVG Version: 2.1.0 Build 137)  -->
  <defs>
    <style>
      .st0 {
        stroke: #121331;
      }

      .st0, .st1 {
        fill: none;
        stroke-linecap: round;
        stroke-linejoin: round;
        stroke-width: 12px;
      }

      .st1 {
        stroke: #00a49a;
      }
    </style>
  </defs>
  <path class="st1" d="M215,403.1c16.3,0,29.5-13.2,29.5-29.5s-13.2-29.5-29.5-29.5-29.5,13.2-29.5,29.5,13.2,29.5,29.5,29.5M108.5,346.2c10.4,0,18.8-8.4,18.8-18.8s-8.4-18.8-18.8-18.8-18.8,8.4-18.8,18.8,8.4,18.8,18.8,18.8M321.1,346.2c10.4,0,18.8-8.4,18.8-18.8s-8.4-18.8-18.8-18.8-18.8,8.4-18.8,18.8,8.4,18.8,18.8,18.8"/>
  <path class="st0" d="M144.2,142.1c5.7-22.1-10.1-43.6-31.6-48.8-26.6-6.3-51.3,17.3-47.3,44.4-22.5,12.6-37.7,36.6-37.7,64.2,0,40.7,33,73.6,73.6,73.6h212c49.3,0,89.1-39.9,89.1-89.1s-23.9-70.6-57.5-83.3"/>
  <path class="st0" d="M354.6,180.4c4.7-26,1.3-53.2-9.7-77.2-20.5-44.9-65.9-76.2-118.5-76.2s-91.3,27.3-113.7,66.4"/>
</svg>