<?xml version="1.0" encoding="UTF-8"?>
<svg id="Layer_1" xmlns="http://www.w3.org/2000/svg" version="1.1" viewBox="0 0 430 430">
  <!-- Generator: Adobe Illustrator 29.5.0, SVG Export Plug-In . SVG Version: 2.1.0 Build 137)  -->
  <defs>
    <style>
      .st0 {
        stroke: #121331;
      }

      .st0, .st1 {
        fill: none;
        stroke-linecap: round;
        stroke-linejoin: round;
        stroke-width: 12px;
      }

      .st1 {
        stroke: #00a49a;
      }
    </style>
  </defs>
  <path class="st0" d="M342,103.3c32.8,12.5,56.2,44.3,56.2,81.5s-39,87.1-87.1,87.1h-52.2M166.1,272h-62.4c-39.7,0-72-32.3-72-72.1s14.9-50.6,36.8-62.8c-3.9-26.4,20.3-49.6,46.3-43.4,21.1,5,36.5,26.1,30.9,47.7"/>
  <path class="st0" d="M351.5,178.8c4.6-25.4,1.3-52.1-9.5-75.5-20-43.9-64.4-74.5-115.9-74.5s-89.3,26.7-111.2,64.9"/>
  <path class="st1" d="M259.1,186.8l-26,54.4h40.6c0-.1-76.7,160-76.7,160l-.7-108.7h-39.9l50.5-105.6h52.2Z"/>
</svg>