<?xml version="1.0" encoding="UTF-8"?>
<svg id="Layer_1" xmlns="http://www.w3.org/2000/svg" version="1.1" viewBox="0 0 430 430">
  <!-- Generator: Adobe Illustrator 29.5.0, SVG Export Plug-In . SVG Version: 2.1.0 Build 137)  -->
  <defs>
    <style>
      .st0 {
        stroke: #121331;
      }

      .st0, .st1 {
        fill: none;
        stroke-linecap: round;
        stroke-linejoin: round;
        stroke-width: 12px;
      }

      .st1 {
        stroke: #00a49a;
      }
    </style>
  </defs>
  <path class="st0" d="M113.1,32h-51.5v363.7h51.5V32Z"/>
  <path class="st1" d="M253.2,186v-110.4M322.2,173.1v-84.7"/>
  <path class="st0" d="M61.5,95.5l122.7-32.9M61.5,166l122.7,32.9M345.7,168.7l-161.5,30.2V62.6l161.5,30.2c27.9,5.2,39.8,21.7,39.8,37.9.1,16.3-11.8,32.8-39.8,38M184.2,130.7h-71.2"/>
  <path class="st1" d="M175.3,289.5h171.5c21.4,0,38.8,17.4,38.8,38.8s-17.4,38.8-38.8,38.8-20.1-4.2-27-10.9"/>
  <path class="st1" d="M284.4,245.3h37.1M186.7,336.2h88.7"/>
</svg>