<?xml version="1.0" encoding="UTF-8"?>
<svg id="Layer_1" data-name="Layer 1" xmlns="http://www.w3.org/2000/svg" viewBox="0 0 349.5 392.44">
  <defs>
    <style>
      .cls-1 {
        fill: none;
        stroke: #00a49a;
        stroke-linecap: round;
        stroke-miterlimit: 10;
        stroke-width: 12px;
      }
    </style>
  </defs>
  <path d="M23.1,114.06C7.9,123.8,0,134.97,0,147.04c0,19.61,20.43,36.62,59.07,49.17,17.83,5.79,38.57,10.29,61.12,13.33,25.18,19.6,50.63,40.03,62.61,65.99.57,1.24,1.1,2.49,1.6,3.75-19.08,2.24-39.98,3.51-62.33,3.51-3.8,0-6.88,3.08-6.88,6.87s3.08,6.88,6.88,6.88c23,0,45.38-1.34,66.33-3.91,2.6,12.91,1.89,26.67-2.15,41.43-10.6-1.3-20.33-3.2-28.66-5.65-18.09-5.31-22.16-11.03-22.16-12.61,0-3.8-3.08-6.87-6.87-6.87s-6.88,3.08-6.88,6.87c0,16.94,27.03,27.2,60.12,31.56-4.29,10.96-10.26,22.43-17.95,34.49-1.7,2.66-1.37,6.15.81,8.44,1.33,1.4,3.15,2.14,4.99,2.14,1.16,0,2.33-.29,3.4-.9,21.91-12.48,40.28-26.33,55.32-41.77,45.66-1.03,92.1-11.75,92.1-33.96,0-18.27-31.26-26.67-51.45-30.2,1.66-4.52,3.16-9.14,4.49-13.86,26.87-11.63,40.95-26.1,40.95-42.37,0-10.13-5.88-24.88-33.1-38.68-.18-3.39-.43-6.84-.71-10.31-.46-4.58-.91-9.17-1.37-13.75-.28-2.36-.57-4.73-.89-7.13-1.83-13.53,6.82-19.28,23.57-29.07,21.08-12.33,49.9-29.2,47.37-78.86.11-.86.17-1.72.17-2.6,0-14.78-16.25-27.37-46.98-36.39-20.98-6.16-47.11-10.22-75.47-11.83-5.82-.22-11.65-.45-17.47-.67-3.47-.07-6.96-.12-10.48-.12-38.97,0-75.71,4.48-103.43,12.62-30.26,8.88-46.46,21.22-46.96,35.71-3.1,18.99-4.06,36.32-2.94,51.97M281.56,206.93c12.28,7.36,18.91,15.27,18.91,22.76,0,8.46-8.24,17.24-23.14,25.19,2.87-14.96,4.27-30.91,4.23-47.94ZM99.3,26.11c26.5-7.78,61.86-12.07,99.56-12.07,4.42,0,8.81.06,13.16.18.36.04.72.04,1.08.03,32.3.94,62.18,5.07,85.32,11.86,27.39,8.04,37.1,17.52,37.1,23.2s-9.72,15.15-37.1,23.18c-26.5,7.77-61.85,12.05-99.56,12.05s-73.06-4.28-99.56-12.05c-27.39-8.03-37.1-17.51-37.1-23.18s9.72-15.16,37.1-23.2ZM13.52,147.34c0-10.25,12.29-21.11,34.03-30.32,3.64,19.81,11.24,36.38,22.78,49.57,7.93,9.05,17.25,17.4,27.32,25.65-52.1-10.26-84.14-28.21-84.14-44.9ZM145.55,212.61c15.05,1.24,30.66,1.89,46.57,1.89,3.8,0,6.88-3.08,6.88-6.88s-3.08-6.88-6.88-6.88c-24.05,0-46.43-1.47-66.66-4.04-.02-.02-.04-.03-.06-.05-16.86-13.11-32.78-25.49-44.72-39.12-17.51-20-24.54-49.7-20.98-88.45,7.9,6.36,19.89,11.95,35.73,16.6,27.72,8.13,64.45,12.61,103.43,12.61s75.71-4.48,103.43-12.61c13.61-3.99,24.37-8.68,32.14-13.95-4.49,26.58-22.31,37.02-39.65,47.16-16.42,9.6-33.4,19.53-30.26,42.78,1.6,11.82,2.62,23.16,3.06,34.06,0,.03,0,.06,0,.09.97,24.17-.93,46.11-5.82,66.11-16.7,6.48-38.25,12.02-63.58,15.8-.93-2.57-1.96-5.13-3.13-7.65-10.45-22.66-29.17-40.77-49.5-57.47ZM188.8,365.44c2.68-5.53,4.99-10.95,6.94-16.27,4.18.33,8.41.58,12.65.74-6.05,5.4-12.58,10.57-19.59,15.53ZM222.11,336.39c-.42,0-.84,0-1.27,0-7.14,0-14.14-.25-20.91-.71,4.02-15.71,4.65-30.54,1.92-44.62,19.53-2.99,37.54-7.09,53.29-12.21.61-.2,1.21-.4,1.81-.61-1.18,3.4-2.47,6.75-3.85,10.03-.15.29-.28.59-.39.9-7.4,17.32-17.57,32.98-30.6,47.21ZM284.33,328.73c-12.1,3.55-27.14,5.95-43.56,7.03,8.87-11.14,16.24-23.04,22.17-35.78.16-.34.31-.68.46-1.02,32.71,5.12,43.08,14.25,43.08,17.16,0,1.58-4.07,7.3-22.16,12.61ZM85.36,111.11,44.64,121.91,47.54,117.02"/>
  <path class="cls-1" d="M230.94,363.56c46.48,32.01-87.92,5.24-98-2.45"/>
  <path class="cls-1" d="M283.12,162.74c111.31,21.13-150.75,84.6-175.57,78.6"/>
</svg>