<?xml version="1.0" encoding="UTF-8"?>
<svg id="Layer_1" data-name="Layer 1" xmlns="http://www.w3.org/2000/svg" viewBox="0 0 385.98 316.94">
  <defs>
    <style>
      .cls-1, .cls-2 {
        stroke: #000;
      }

      .cls-1, .cls-2, .cls-3 {
        fill: none;
        stroke-width: 12px;
      }

      .cls-1, .cls-3 {
        stroke-linecap: round;
        stroke-linejoin: round;
      }

      .cls-2 {
        stroke-miterlimit: 10;
      }

      .cls-3 {
        stroke: #00a49a;
      }
    </style>
  </defs>
  <path d="M302.61,38.05C250.48-7.29,191.04-12.13,125.94,23.64c-.03.02-.06.04-.09.06-.18.1-.35.22-.52.34-.05.03-.1.07-.15.1-.2.15-.38.31-.56.48-.03.03-.06.06-.09.09-.14.15-.28.3-.41.46-.04.05-.09.11-.13.16-.13.17-.25.35-.37.54-.01.02-.03.04-.04.07-.13.22-.24.44-.34.67-.02.04-.04.09-.05.14-.08.19-.14.38-.2.58-.02.06-.03.12-.05.18-.06.23-.11.47-.14.71,0,.01,0,.02,0,.03-.03.21-.04.42-.05.64,0,.04,0,.08,0,.12,0,.03,0,.05,0,.08,0,.05,0,.09.01.14,0,.2.02.39.05.59,0,.06.01.12.02.18.08.51.22,1,.42,1.46.02.04.04.08.06.13.09.2.19.4.31.59.02.03.04.06.05.09.13.22.28.42.44.62.02.02.04.04.06.07.14.17.29.33.45.48.04.04.08.08.13.12.37.34.79.64,1.24.88.02,0,.03.02.05.03,41.66,21.89,65.84,47.06,71.87,74.81,5.24,24.11-3.03,51.34-24.56,81.01,4.31.37,5.97,4.25,5.28,7.57.3.36.55.75.75,1.17.97-1.82,2.82-3.13,5.48-3-.15-.02-.31-.04-.46-.06,22.84-32.06,31.43-62.07,25.52-89.3-5.58-25.68-24.13-49.02-55.24-69.6,43.85,5.64,76.61,23.19,93.6,50.63,16.13,26.04,16.82,59.42,2.12,94.61-.07-.03-.13-.04-.2-.07-.1.18-.2.36-.33.53,2.6.54,4.09,2.44,4.5,4.62.17.02.31.07.47.09.99-.66,2.24-1.03,3.76-.93,1.1.07,2.03.38,2.8.85.16-.38.36-.75.6-1.08,15.96-38.68,14.89-75.74-3.29-105.09-19.5-31.48-56.81-51.24-106.34-56.8,52.49-22.07,99.17-14.5,142.13,22.86,41.29,36.33,52.98,85.22,35.7,149.26.57-.12,1.18-.18,1.85-.13l11.05-.58c16.77-66.31,3.19-119.34-40.51-157.79Z"/>
  <path d="M102.71,155.68c-6.17,9.34-3.73,18.44,1.43,23.32,2.75,2.59,6.09,3.93,9.31,3.93,2.36,0,4.65-.71,6.61-2.17,4.27-3.21,4.79-7.5,5.21-10.95.35-2.89.65-5.39,2.94-8.04,3.39-3.93,9.89-8.38,16.76-9.46,2.38-.37,4.14-2.4,4.18-4.81.04-2.4-1.66-4.49-4.02-4.94-14.41-2.76-34.72,1.48-42.42,13.13ZM120.72,155.3c-4.25,4.94-4.84,9.78-5.27,13.31-.37,3.02-.56,3.66-1.32,4.22-.66.49-2.06.04-3.2-1.03-2.09-1.97-3.18-5.81.03-10.67,2.02-3.05,6.08-5.57,11.04-7.25-.45.46-.88.93-1.29,1.41Z"/>
  <path d="M162.99,89.42c.04-2.4-1.66-4.49-4.02-4.94-18.95-3.61-45.61,1.87-55.61,17.02-7.8,11.81-4.77,23.24,1.7,29.34,3.37,3.18,7.46,4.82,11.38,4.82,2.82,0,5.56-.85,7.87-2.59,5.21-3.89,5.84-9.08,6.39-13.65.49-4.01.95-7.8,4.37-11.78,4.81-5.56,14.01-11.87,23.75-13.41,2.38-.38,4.14-2.41,4.17-4.81ZM127.57,101.18c-5.39,6.26-6.15,12.5-6.7,17.05-.5,4.12-.82,5.67-2.5,6.92-1.89,1.41-4.71.21-6.54-1.51-3.35-3.16-5.17-9.2-.23-16.68,3.93-5.95,12.89-10.46,23.17-12.5-2.68,2.04-5.12,4.3-7.21,6.72Z"/>
  <g>
    <path class="cls-3" d="M379.5,260.94h-.03c-22.66,0-43.93-8.71-62.24-23.95-18.32,15.24-39.58,23.95-62.25,23.95s-43.93-8.65-62.25-23.95c-18.32,15.24-39.54,23.95-62.24,23.95s-43.93-8.71-62.24-23.95c-18.32,15.24-39.59,23.95-62.25,23.95"/>
    <path class="cls-1" d="M379.98,310.94c-22.67,0-43.94-8.65-62.25-23.95-18.32,15.24-39.54,23.95-62.25,23.95s-43.93-8.71-62.24-23.95c-18.32,15.24-39.58,23.95-62.24,23.95s-43.93-8.65-62.25-23.95h-.04c-18.32,15.24-39.54,23.95-62.24,23.95"/>
    <path class="cls-1" d="M379.98,210.94c-22.67,0-43.94-8.65-62.25-23.95-18.32,15.24-39.54,23.95-62.25,23.95s-43.93-8.71-62.24-23.95c-18.31,15.24-39.58,23.95-62.24,23.95s-43.93-8.65-62.25-23.95h-.04c-18.31,15.24-39.54,23.95-62.24,23.95"/>
  </g>
  <path class="cls-2" d="M258.49,180.67c-3.69,4.22-5.31,9.81-7.78,14.85-2.02,5.06-6.64,9.05-7.92,14.32"/>
  <path class="cls-2" d="M192.17,171.48c-4.12,3.8-6.32,9.19-9.31,13.93-2.55,4.81-7.56,8.29-9.4,13.4"/>
</svg>