<?xml version="1.0" encoding="UTF-8"?>
<svg id="Layer_1" xmlns="http://www.w3.org/2000/svg" version="1.1" viewBox="0 0 430 430">
  <!-- Generator: Adobe Illustrator 29.5.0, SVG Export Plug-In . SVG Version: 2.1.0 Build 137)  -->
  <defs>
    <style>
      .st0 {
        stroke: #121331;
      }

      .st0, .st1 {
        fill: none;
        stroke-linecap: round;
        stroke-linejoin: round;
        stroke-width: 12px;
      }

      .st1 {
        stroke: #00a49a;
      }
    </style>
  </defs>
  <path class="st1" d="M114.7,240.6c7.5,3.8,11,10.5,23.4,10.5s17.3-13,34.5-13,17.3,13,34.5,13,17.3-13,34.5-13,17.3,13,34.5,13,16.1-7.1,24-10.8M197.5,127.8l-12.6,51M219.9,127.3l12.6,51"/>
  <path class="st0" d="M28,407c40.9-59.8,113.5-225.8,135.6-273.1,3.9-8.4,11.7-12.4,19-9.8,16.1,5.7,33.1,5.7,49.2,0h.4c7.1-2.7,14.7,1.1,18.7,9.1,23.2,46.5,94,213.7,135.5,273.7"/>
  <path class="st1" d="M64.3,152.7l-10.2,19.4M193.6,83.3s-52.6-76.1-117.5,47M350.1,152.7l10.2,19.4M220.8,83.3s52.6-76.1,117.5,47M120.7,134.4l-16,31.7M293.8,134.4l16,31.7"/>
  <path class="st0" d="M304.4,406.2s-20.5-57.6-41.1-104.7M110,406.2s20.5-57.6,41.1-104.7M207.2,406.7v-72.9M28,407h358.4"/>
</svg>