<svg xmlns="http://www.w3.org/2000/svg" width="430" height="430" fill="none" viewBox="0 0 430 430"><g stroke-linejoin="round" stroke-width="12"><path stroke="#121331" stroke-linecap="round" d="M132.302 150.486c23.79-24.443 51.577-52.992 67.747-120.486 43.139 24.906 70.294 66.853 77.885 112.428 3.735 22.424 2.734 45.726-3.43 68.309a171.5 171.5 0 0 0 44.126-35.744 136.4 136.4 0 0 1 24.85 43.258c4.957 14.143 7.652 29.348 7.652 45.183 0 75.423-61.143 136.566-136.566 136.566S78 338.857 78 263.434v-.221a139 139 0 0 1 .034-2.864c.466-21.036 5.69-40.899 14.636-58.556a136.7 136.7 0 0 1 16.154-24.788c6.814-9.398 14.885-17.691 23.478-26.519"/><path stroke="#00a49a" d="M272.358 340.5c0 32.86-26.639 59.5-59.5 59.5s-59.5-26.64-59.5-59.5 59.5-110.5 59.5-110.5 59.5 77.639 59.5 110.5Z"/></g></svg>