<?xml version="1.0" encoding="UTF-8"?>
<svg id="Layer_1" xmlns="http://www.w3.org/2000/svg" version="1.1" viewBox="0 0 430 430">
  <!-- Generator: Adobe Illustrator 29.5.0, SVG Export Plug-In . SVG Version: 2.1.0 Build 137)  -->
  <defs>
    <style>
      .st0 {
        stroke-width: 12px;
      }

      .st0, .st1, .st2 {
        stroke-linecap: round;
      }

      .st0, .st1, .st2, .st3 {
        fill: none;
        stroke-linejoin: round;
      }

      .st0, .st2 {
        stroke: #00a49a;
      }

      .st1, .st2, .st3 {
        stroke-width: 12px;
      }

      .st1, .st3 {
        stroke: #121331;
      }
    </style>
  </defs>
  <path class="st1" d="M86.5,406.4V88.9c0-21.7,17.6-39.2,39.2-39.2h142.8c21.7,0,39.2,17.6,39.2,39.2v317.5"/>
  <path class="st1" d="M307.8,330.5h23.1c21.5,0,39-17.5,39-39v-28.2"/>
  <path class="st3" d="M307.8,303.4h-51.7c0,17.2,0,34.4,0,51.7h51.7"/>
  <path class="st1" d="M359.3,406.4H35M257.3,183.3h-120.3c-9,0-16.3-7.3-16.3-16.3h0v-64.8c0-9,7.3-16.3,16.3-16.3h120.3c9,0,16.3,7.3,16.3,16.3v64.8c0,6.6-4,12.5-10,15-2,.8-4.1,1.2-6.2,1.2"/>
  <path class="st0" d="M197.4,151.2l-33.8-33.7"/>
  <path class="st1" d="M307.6,100s43.8,33.2,51.8,60.6"/>
  <path class="st2" d="M408,194.2l-23.8,13.6-.2,53.6h-26c0-.1.2-57.4.2-57.4h0l-17.5-30.6,41.7-23.9,25.6,44.7Z"/>
</svg>