<svg xmlns="http://www.w3.org/2000/svg" width="430" height="430" fill="none" viewBox="0 0 430 430"><g stroke-linecap="round" stroke-linejoin="round" stroke-miterlimit="10" stroke-width="12"><path stroke="#121331" d="M362 292.4h25.2v-62.9H362"/><path stroke="#00a49a" d="M72 264.3H59.2c-9.5 0-17.2-7.7-17.2-17.2V72"/><path stroke="#121331" d="M125.1 195.5h187.2c29.4 0 53.2 23.8 53.2 53.2v24.6c0 29.4-23.8 53.2-53.2 53.2H125.1c-29.4 0-53.2-23.8-53.2-53.2v-24.6c.1-29.4 23.9-53.2 53.2-53.2m80.3 0v-28.4h100.4v28.4m-66.9-28.4v28.4m33.5-28.4v28.4m-34.4 131v30.8h-38.5v-30.8m-38.6 0-12 30.9h-22.5v-30.9m184.6 0v30.9h-22.5l-12-30.9"/><path stroke="#00a49a" d="M200.2 271.4c0-10.2 18.5-39.5 18.5-39.5s18.5 29.3 18.5 39.5-8.3 18.5-18.5 18.5c-10.2.1-18.5-8.2-18.5-18.5"/><path stroke="#121331" d="M146.4 195.5v-17.2"/></g></svg>