<svg xmlns="http://www.w3.org/2000/svg" width="430" height="430" fill="none" viewBox="0 0 430 430"><g stroke-linecap="round" stroke-linejoin="round" stroke-width="12"><path stroke="#121331" stroke-miterlimit="10" d="M262 108.2V70.4h46.8v81.8m29.3 27.6V244M72.7 179.8v195.8H244"/><path stroke="#121331" stroke-miterlimit="10" d="M364.9 205 205.5 55 46 205"/><path stroke="#00a49a" stroke-miterlimit="10" d="M213.5 199.4c0 20.2-16 20.2-16 40.5 0 20.2 16 20.2 16 40.5s-16 20.2-16 40.5m-32.2-121.5c0 20.2-16 20.2-16 40.5 0 20.2 16 20.2 16 40.5s-16 20.2-16 40.5m112.4-121.5c0 20.2-16 20.2-16 40.5 0 10.025 3.941 15.075 7.911 20.1"/><path stroke="#00a49a" d="M315.016 302.454a25.07 25.07 0 0 1 24.587 29.959 25.068 25.068 0 0 1-49.655-4.89 25.08 25.08 0 0 1 25.068-25.069m60.485 37.281-8.518-4.926c.693-4.833.693-9.74 0-14.573l8.518-4.926a9.04 9.04 0 0 0 3.298-12.279l-10.687-18.505a9.04 9.04 0 0 0-12.325-3.287l-8.529 4.925a52 52 0 0 0-12.574-7.343v-9.84a9.036 9.036 0 0 0-9.037-8.981h-21.318a9.04 9.04 0 0 0-9.038 8.981v9.84a52 52 0 0 0-12.618 7.298l-8.518-4.926a9.036 9.036 0 0 0-12.292 3.288l-10.675 18.504a9.04 9.04 0 0 0 3.287 12.28l8.518 4.926a52.5 52.5 0 0 0 0 14.573l-8.518 4.926a9.036 9.036 0 0 0-3.287 12.279l10.675 18.494a9.04 9.04 0 0 0 12.292 3.299l8.518-4.926a52.5 52.5 0 0 0 12.618 7.298v9.828a9.04 9.04 0 0 0 9.038 9.038h21.363a9.04 9.04 0 0 0 9.038-9.038v-9.828a52.3 52.3 0 0 0 12.618-7.298l8.53 4.926a9.04 9.04 0 0 0 12.28-3.299l10.687-18.494a9.037 9.037 0 0 0-3.344-12.234"/></g></svg>