<svg xmlns="http://www.w3.org/2000/svg" width="430" height="430" fill="none" viewBox="0 0 430 430"><path stroke="#121331" stroke-linecap="round" stroke-linejoin="round" stroke-miterlimit="10" stroke-width="12" d="M215 390v-85m0 85-35-34.857M215 390l35-34.857"/><mask id="psF2oFFEeYa" width="398" height="185" x="15" y="80" maskUnits="userSpaceOnUse" style="mask-type:alpha"><path fill="#D9D9D9" fill-rule="evenodd" d="M413 80H15v185h70V165h260v100h68z" clip-rule="evenodd"/></mask><g mask="url(#psF2oFFEeYa)"><rect width="370" height="140" x="30" y="95" stroke="#121331" stroke-linecap="round" stroke-linejoin="round" stroke-miterlimit="10" stroke-width="12" rx="20"/></g><mask id="ci0zyqQeznb" width="290" height="155" x="70" y="165" maskUnits="userSpaceOnUse" style="mask-type:alpha"><path fill="#fff" d="M70 165h290v155H70z"/></mask><g stroke="#00a49a" stroke-linecap="round" stroke-linejoin="round" mask="url(#ci0zyqQeznb)"><path stroke-width="12" d="M85 135h260v170H85z"/><path stroke-width="12" d="M290 165H140c0 13.807-11.193 25-25 25v60c13.807 0 25 11.193 25 25h150c0-13.807 11.193-25 25-25v-60c-13.807 0-25-11.193-25-25"/><circle cx="215" cy="220" r="30" stroke-width="12"/><path stroke-miterlimit="10" stroke-width="15" d="M155 220v.1m120-.1v.1"/></g><path stroke="#121331" stroke-linecap="round" stroke-linejoin="round" stroke-miterlimit="10" stroke-width="12" d="M360 165H70"/></svg>