<svg xmlns="http://www.w3.org/2000/svg" width="430" height="430" fill="none" viewBox="0 0 430 430"><mask id="Ka2sxI1o3Ja" width="397" height="303" x="18" y="64" maskUnits="userSpaceOnUse" style="mask-type:alpha"><path fill="#fff" fill-rule="evenodd" d="M415 64.067H18.243V366.45H415zM360 80H35v230h325z" clip-rule="evenodd"/></mask><g mask="url(#Ka2sxI1o3Ja)"><path stroke="#00a49a" stroke-linecap="round" stroke-linejoin="round" stroke-width="12" d="M75 120h325v230H75z"/></g><path stroke="#121331" stroke-linecap="round" stroke-linejoin="round" stroke-width="12" d="M35 80h325v230H35z"/><path stroke="#121331" stroke-linecap="round" stroke-linejoin="round" stroke-width="12" d="M100 115c0 16.569-13.431 30-30 30v100c16.569 0 30 13.431 30 30h195c0-16.569 13.431-30 30-30V145c-16.569 0-30-13.431-30-30z"/><path stroke="#00a49a" stroke-linecap="round" stroke-linejoin="round" stroke-width="15" d="M127.49 195h.01m140 0h.01"/><circle cx="197.5" cy="195" r="35" stroke="#00a49a" stroke-linecap="round" stroke-linejoin="round" stroke-width="12"/></svg>