<?xml version="1.0" encoding="UTF-8"?>
<svg id="Layer_1" xmlns="http://www.w3.org/2000/svg" version="1.1" viewBox="0 0 430 430">
  <!-- Generator: Adobe Illustrator 29.5.0, SVG Export Plug-In . SVG Version: 2.1.0 Build 137)  -->
  <defs>
    <style>
      .st0 {
        stroke: #121331;
      }

      .st0, .st1 {
        fill: none;
        stroke-linecap: round;
        stroke-linejoin: round;
        stroke-width: 12px;
      }

      .st1 {
        stroke: #00a49a;
      }
    </style>
  </defs>
  <path class="st0" d="M243.4,173.3v48.1h-48.5M304.5,173.3v48.5c0,33.5-27.2,60.8-60.8,60.8h-48.9M243.4,144.6v-45.8c0-33.5,27.2-60.8,60.8-60.8h64M304.5,144.6v-45.4h63.5M60,376.5v-94.4c0-33.5,27.2-60.8,60.8-60.8h45.4"/>
  <path class="st0" d="M121.1,376.5v-93.9h45.1"/>
  <path class="st1" d="M195,297.5v-92h-28.8v92h28.8ZM228.2,173.3h92v-28.8h-92v28.8ZM44.6,405.4h92v-28.8H44.6v28.8ZM368.1,24.6v92h28.8V24.6h-28.8Z"/>
</svg>