<svg xmlns="http://www.w3.org/2000/svg" width="430" height="430" fill="none" viewBox="0 0 430 430"><path stroke="#00a49a" stroke-linecap="round" stroke-width="12" d="M283.423 189.948c12.15-27.401 6.994-60.617-15.47-83.081-29.157-29.156-76.429-29.156-105.586 0-22.463 22.464-27.62 55.68-15.47 83.081"/><path stroke="#00a49a" stroke-linecap="round" stroke-width="12" d="M255.639 164.148c1.307-11.862-2.587-24.188-11.682-33.283-15.903-15.903-41.688-15.903-57.592 0-9.095 9.095-12.988 21.421-11.681 33.283"/><path stroke="#121331" stroke-linecap="round" stroke-linejoin="round" stroke-width="12" d="M212.33 370.24v-17.111l-7.648-6.413a119.05 119.05 0 0 1-38.498-60.408l-9.921-37.027c-1.396-5.209 1.696-10.564 6.905-11.96 15.629-4.188 31.694 5.087 35.882 20.716l1.561 5.826v-12.296M309.987 370.24v-17.11l4.13-10.325a160.7 160.7 0 0 0 11.495-59.688v-31.55"/><path stroke="#121331" stroke-linecap="round" stroke-linejoin="round" stroke-width="12" d="m208.101 291.786-5.543-20.684-2.771-10.342m.826-9.197v-85.938c0-8.629 6.996-15.625 15.625-15.625 8.63 0 15.626 6.996 15.626 15.625v85.938-27.344c0-8.63 6.995-15.625 15.625-15.625s15.625 6.995 15.625 15.625v27.344-19.532c0-8.629 6.995-15.625 15.625-15.625s15.625 6.996 15.625 15.625v19.532-7.813c0-8.629 6.996-15.625 15.625-15.625 8.63 0 15.625 6.996 15.625 15.625v7.813"/><path stroke="#00a49a" stroke-linejoin="round" stroke-width="12" d="M207.438 370.238h107.143V400H207.438z"/><path fill="#00a49a" d="M376 160c0-11.598-9.402-21-21-21v12a9 9 0 0 1 9 9zm-21-21c-11.598 0-21 9.402-21 21h12a9 9 0 0 1 9-9zm-21 21c0 11.598 9.402 21 21 21v-12a9 9 0 0 1-9-9zm21 21c11.598 0 21-9.402 21-21h-12a9 9 0 0 1-9 9zm-65.18-15H340v-12h-50.18zm-149.32 0a6 6 0 0 0 0-12zm0-12H90v12h50.5zM96 160c0-11.598-9.402-21-21-21v12a9 9 0 0 1 9 9zm-21-21c-11.598 0-21 9.402-21 21h12a9 9 0 0 1 9-9zm-21 21c0 11.598 9.402 21 21 21v-12a9 9 0 0 1-9-9zm21 21c11.598 0 21-9.402 21-21H84a9 9 0 0 1-9 9zm134-96a6 6 0 1 0 12 0zm12 0V50h-12v35zm15-50c0-11.598-9.402-21-21-21v12a9 9 0 0 1 9 9zm-21-21c-11.598 0-21 9.402-21 21h12a9 9 0 0 1 9-9zm-21 21c0 11.598 9.402 21 21 21V44a9 9 0 0 1-9-9zm21 21c11.598 0 21-9.402 21-21h-12a9 9 0 0 1-9 9zm55.118 55.513a6 6 0 0 0 1.395 8.369 6 6 0 0 0 8.369-1.395zM300 80v-6a6 6 0 0 0-4.882 2.513zm-20.118 38.487 25-35-9.764-6.974-25 35zM300 86h40V74h-40zm76-6c0-11.598-9.402-21-21-21v12a9 9 0 0 1 9 9zm-21-21c-11.598 0-21 9.402-21 21h12a9 9 0 0 1 9-9zm-21 21c0 11.598 9.402 21 21 21V89a9 9 0 0 1-9-9zm21 21c11.598 0 21-9.402 21-21h-12a9 9 0 0 1-9 9zm-204.882 17.487a6 6 0 0 0 8.369 1.395 6 6 0 0 0 1.395-8.369zM130 80l4.882-3.487A6 6 0 0 0 130 74zm29.882 31.513-25-35-9.764 6.974 25 35zM130 74H90v12h40zm-64 6a9 9 0 0 1 9-9V59c-11.598 0-21 9.402-21 21zm9-9a9 9 0 0 1 9 9h12c0-11.598-9.402-21-21-21zm9 9a9 9 0 0 1-9 9v12c11.598 0 21-9.402 21-21zm-9 9a9 9 0 0 1-9-9H54c0 11.598 9.402 21 21 21z"/></svg>