<svg xmlns="http://www.w3.org/2000/svg" width="430" height="430" style="width:100%;height:100%;transform:translate3d(0,0,0);content-visibility:visible" viewBox="0 0 430 430"><defs><clipPath id="a"><path d="M0 0h430v430H0z"/></clipPath><clipPath id="d"><path d="M0 0h430v430H0z"/></clipPath><clipPath id="c"><path d="M0 0h430v430H0z"/></clipPath><clipPath id="b"><path d="M0 0h430v430H0z"/></clipPath></defs><g clip-path="url(#a)"><g clip-path="url(#b)" style="display:none"><path fill="none" class="secondary" style="display:none"/><g style="display:none"><path class="secondary"/><path fill="none" class="secondary"/></g><g fill="none" style="display:none"><path class="primary"/><path class="primary"/></g><g fill="none" style="display:none"><path class="secondary"/><path class="secondary"/></g><path fill="none" class="secondary" style="display:none"/></g><g fill="none" clip-path="url(#c)" style="display:block"><path stroke="#00A39A" stroke-linecap="round" stroke-linejoin="round" stroke-width="12" d="M-35-.005h70M-.005 35v-70" class="secondary" style="display:block" transform="translate(155 180)"/><g style="display:block"><path stroke="#00A39A" stroke-linejoin="round" stroke-width="12" d="M205 105V82.5c0-9.665 7.835-17.5 17.5-17.5S240 72.835 240 82.5V105" class="secondary"/><path d="M205 105V82.5c0-9.665 7.835-17.5 17.5-17.5S240 72.835 240 82.5V105" class="secondary"/></g><g stroke="#121330" stroke-linecap="round" stroke-linejoin="round" stroke-width="12" style="display:block"><path d="M139 310h162m-239 0H35V125c0-11.046 8.954-20 20-20h240.627a20 20 0 0 1 16.348 8.479L334.19 145 380 215l5.4.108c10.888.218 19.6 9.106 19.6 19.996V310h-27" class="primary"/><path d="M334.19 145H270v70h110" class="primary"/></g><path stroke="#00A39A" stroke-linejoin="round" stroke-width="12" d="M340 347.5c20.711 0 37.5-16.789 37.5-37.5s-16.789-37.5-37.5-37.5-37.5 16.789-37.5 37.5 16.789 37.5 37.5 37.5zm-240-75c20.711 0 37.5 16.789 37.5 37.5s-16.789 37.5-37.5 37.5-37.5-16.789-37.5-37.5 16.789-37.5 37.5-37.5z" class="secondary" style="display:block"/><path stroke="#00A39A" stroke-linecap="round" stroke-linejoin="round" stroke-width="12" d="M0 0" class="secondary" style="display:none" transform="translate(215 217)"/><path class="secondary" style="display:none"/><path stroke="#00A39A" stroke-linecap="round" stroke-linejoin="round" stroke-width="12" d="M0 0" class="secondary" style="display:block" transform="translate(215 217)"/></g><g fill="none" clip-path="url(#d)" style="display:none"><path class="secondary" style="display:none"/><path class="secondary" style="display:none"/><g style="display:none"><path class="primary"/><path class="primary"/><path class="primary"/></g><g style="display:none"><path class="secondary"/><path class="secondary"/></g></g></g></svg>