<svg xmlns="http://www.w3.org/2000/svg" width="430" height="430" style="width:100%;height:100%;transform:translate3d(0,0,0);content-visibility:visible" viewBox="0 0 430 430"><defs><clipPath id="a"><path d="M0 0h430v430H0z"/></clipPath><clipPath id="e"><path d="M0 0h430v430H0z"/></clipPath><clipPath id="d"><path d="M0 0h430v430H0z"/></clipPath><clipPath id="c"><path d="M0 0h430v430H0z"/></clipPath><clipPath id="b"><path d="M0 0h430v430H0z"/></clipPath></defs><g fill="none" clip-path="url(#a)"><g clip-path="url(#b)" style="display:none"><path class="primary" style="display:none"/><path class="secondary" style="display:none"/><path class="secondary" style="display:none"/><path class="secondary" style="display:none"/><path class="secondary" style="display:none"/><path class="secondary" style="display:none"/><path class="secondary" style="display:none"/><path class="secondary" style="display:none"/></g><g clip-path="url(#c)" style="display:none"><path class="primary" style="display:none"/><g style="display:none"><path class="secondary"/><path class="secondary"/><path class="secondary"/></g><g style="display:none"><path class="secondary"/><path class="secondary"/><path class="secondary"/></g><path class="secondary" style="display:none"/><path class="secondary" style="display:none"/><path class="secondary" style="display:none"/></g><g clip-path="url(#d)" style="display:block"><path stroke="#121330" stroke-linecap="round" stroke-linejoin="round" stroke-width="12.6" d="M35.246-25.413h-70.489v-63.574c0-19.465 15.779-35.245 35.244-35.245q0 0 0 0c19.465 0 35.245 15.78 35.245 35.245zm50.978 63.555H-86.224C-64.34 15.734-33.793 1.829 0 1.829s64.34 13.905 86.224 36.313M0 67.966V38.351m180.395-63.764H71.907a8.106 8.106 0 0 1-8.106-8.105v-46.768a8.107 8.107 0 0 1 8.106-8.106h108.488a8.106 8.106 0 0 1 8.105 8.106v46.768a8.105 8.105 0 0 1-8.105 8.105M63.801-56.902H188.5m-62.349-31.49v62.979m-198.058 0h-108.488a8.105 8.105 0 0 1-8.105-8.105v-46.768a8.106 8.106 0 0 1 8.105-8.106h108.488a8.107 8.107 0 0 1 8.106 8.106v46.768a8.106 8.106 0 0 1-8.106 8.105M-188.5-56.902h124.699m-62.35-31.49v62.979" class="primary" style="display:block" transform="translate(215 191)"/><g stroke="#00A39A" stroke-linecap="round" stroke-linejoin="round" stroke-width="12.6" style="display:block"><path d="M276.688 289.255c-34.069 34.069-89.307 34.069-123.376 0" class="secondary" opacity="0"/><path d="M297.206 309.774c-45.401 45.401-119.011 45.401-164.412 0" class="secondary" opacity="0"/><path d="M317.43 329.997c-56.57 56.57-148.29 56.57-204.86 0" class="secondary" opacity="0"/></g><g stroke="#00A39A" stroke-linecap="round" stroke-linejoin="round" stroke-width="12.6" style="display:block"><path d="M276.688 289.255c-34.069 34.069-89.307 34.069-123.376 0" class="secondary"/><path d="M297.206 309.774c-45.401 45.401-119.011 45.401-164.412 0" class="secondary"/><path d="M317.43 329.997c-56.57 56.57-148.29 56.57-204.86 0" class="secondary"/></g><path class="secondary" style="display:none"/><path class="secondary" style="display:none"/><path class="secondary" style="display:none"/></g><g clip-path="url(#e)" style="display:none"><path class="primary" style="display:none"/><path class="primary" style="display:none"/><g style="display:none"><path class="secondary"/><path class="secondary"/><path class="secondary"/></g></g></g></svg>