<svg xmlns="http://www.w3.org/2000/svg" width="430" height="430" style="width:100%;height:100%;transform:translate3d(0,0,0);content-visibility:visible" viewBox="0 0 430 430"><defs><clipPath id="e"><path d="M0 0h430v430H0z"/></clipPath><clipPath id="f"><path d="M0 0h430v430H0z"/></clipPath><filter id="a" width="100%" height="100%" x="0%" y="0%" filterUnits="objectBoundingBox"><feComponentTransfer in="SourceGraphic"><feFuncA tableValues="1.0 0.0" type="table"/></feComponentTransfer></filter><filter id="c" width="100%" height="100%" x="0%" y="0%" filterUnits="objectBoundingBox"><feComponentTransfer in="SourceGraphic"><feFuncA tableValues="1.0 0.0" type="table"/></feComponentTransfer></filter><mask id="g" mask-type="alpha"><g filter="url(#a)"><path fill="#fff" d="M0 0h430v430H0z" opacity="0"/><use xmlns:ns1="http://www.w3.org/1999/xlink" ns1:href="#b"/></g></mask><mask id="h" mask-type="alpha"><g filter="url(#c)"><path fill="#fff" d="M0 0h430v430H0z" opacity="0"/><use xmlns:ns2="http://www.w3.org/1999/xlink" ns2:href="#d"/></g></mask><g id="b" style="display:block"><path fill="#121330" d="M135.256 225.03a105.5 105.5 0 0 1-13.727-11.594c-.002 0-90.412-90.586-90.412-90.586m328.846.016-90.419 90.576a105 105 0 0 1-8.89 7.956M31.102 122.85l136.974 136.77c15.153 15.13 39.76 15.131 54.915.002l136.956-136.725m-331.193-2.895V341.1h333.832V120.03z" class="primary"/><path fill-opacity="0" stroke="#00A39A" stroke-linecap="round" stroke-linejoin="round" stroke-opacity="0" stroke-width="0" d="M135.256 225.03a105.5 105.5 0 0 1-13.727-11.594c-.002 0-90.412-90.586-90.412-90.586m328.846.016-90.419 90.576a105 105 0 0 1-8.89 7.956" class="secondary"/><path fill-opacity="0" stroke="#121330" stroke-linecap="round" stroke-linejoin="round" stroke-width="0" d="m31.102 122.85 136.974 136.77c15.153 15.13 39.76 15.131 54.915.002l136.956-136.725" class="primary"/><path fill-opacity="0" stroke="#121330" stroke-linecap="round" stroke-linejoin="round" stroke-width="0" d="M28.754 120.002V341.1h333.832V120.03z" class="primary"/></g><g id="d" style="display:block"><path fill="#121330" d="M97.558 138.046c-25.69-.63-31.844 13.661-13.735 31.893l79.872 80.413c18.109 18.232 47.139 17.867 64.784-.814l67.988-71.98c17.645-18.68 11.114-34.36-14.576-34.99z" class="primary"/><path fill-opacity="0" stroke="#00A39A" stroke-width="0" d="M97.558 138.046c-25.69-.63-31.844 13.661-13.735 31.893l79.872 80.413c18.109 18.232 47.139 17.867 64.784-.814l67.988-71.98c17.645-18.68 11.114-34.36-14.576-34.99z" class="secondary"/></g></defs><g clip-path="url(#e)"><g clip-path="url(#f)" style="display:block"><g mask="url(#g)" style="display:block"><path fill="none" stroke="#00A39A" stroke-linecap="round" stroke-linejoin="round" stroke-width="13.3084" d="M67.554 152.117V302.3h333.832V81.23l-333.832-.028q0 0 0 0z" class="secondary"/></g><g fill="none" style="display:block"><path d="M135.256 225.03a105.5 105.5 0 0 1-13.727-11.594c-.002 0-90.412-90.586-90.412-90.586m328.846.016-90.419 90.576a105 105 0 0 1-8.89 7.956" class="secondary"/><path stroke="#121330" stroke-linecap="round" stroke-linejoin="round" stroke-width="13.3084" d="m31.102 122.85 136.974 136.77c15.153 15.13 39.76 15.131 54.915.002l136.956-136.725" class="primary"/><path stroke="#121330" stroke-linecap="round" stroke-linejoin="round" stroke-width="13.3084" d="M28.754 120.002V341.1h333.832V120.03z" class="primary"/></g><g mask="url(#h)" style="display:block"><path fill="none" stroke="#121330" stroke-linecap="round" stroke-linejoin="round" stroke-width="13.3088" d="M197.892 214.39c27.988.44 55.823 9.944 77.143 28.508 0-.002 82.488 71.81 82.488 71.81m-322.05-1.41 81.391-70.564c22.33-19.36 51.76-28.803 81.028-28.344" class="primary"/></g></g></g></svg>