<svg xmlns="http://www.w3.org/2000/svg" width="430" height="431" fill="none" viewBox="0 0 430 431"><path fill="#121331" d="M263.4 196.5c-2.2 0-4.2-1.4-4.8-3.6-.8-2.7.8-5.4 3.4-6.2 2.7-.8 5.4.8 6.2 3.4.8 2.7-.8 5.4-3.4 6.2-.5.1-.9.2-1.4.2m-8.2-14.2c-1.4 0-2.9-.6-3.8-1.8-1.8-2.1-1.5-5.3.6-7 2.1-1.8 5.3-1.5 7 .6 1.8 2.1 1.5 5.3-.6 7-.9.9-2 1.2-3.2 1.2m-12.5-10.5c-.8 0-1.7-.2-2.5-.7-2.4-1.4-3.2-4.4-1.9-6.8 1.4-2.4 4.4-3.2 6.8-1.9 2.4 1.4 3.2 4.4 1.9 6.8-.9 1.7-2.5 2.6-4.3 2.6m-15.3-5.5c-.5 0-.9-.1-1.4-.2-2.7-.8-4.2-3.5-3.4-6.2s3.5-4.2 6.2-3.4 4.2 3.5 3.4 6.2c-.6 2.1-2.6 3.6-4.8 3.6m-16.4 0c-2.4 0-4.6-1.8-4.9-4.3-.4-2.7 1.5-5.3 4.2-5.7s5.3 1.5 5.7 4.2-1.5 5.3-4.2 5.7c-.3 0-.5.1-.8.1m-15.3 5.5c-1.9 0-3.8-1.1-4.6-3-1.1-2.5.1-5.5 2.6-6.6s5.5.1 6.6 2.6-.1 5.5-2.6 6.6c-.7.3-1.3.4-2 .4m-12.5 10.5c-1.3 0-2.6-.5-3.5-1.5-2-2-2-5.1 0-7.1s5.1-2 7.1 0 2 5.1 0 7.1c-1.1 1.1-2.3 1.5-3.6 1.5m-8.2 14.2c-.5 0-.9-.1-1.4-.2-2.7-.8-4.2-3.5-3.4-6.2s3.5-4.2 6.2-3.4 4.2 3.5 3.4 6.2c-.6 2.2-2.6 3.6-4.8 3.6m-2.8 16.1c-2.8 0-5-2.2-5-5s2.2-5 5-5 5 2.2 5 5-2.3 5-5 5m2.8 16.1c-2.2 0-4.2-1.4-4.8-3.6-.8-2.7.8-5.4 3.4-6.2 2.7-.8 5.4.8 6.2 3.4.8 2.7-.8 5.4-3.4 6.2-.5.1-.9.2-1.4.2m8.2 14.1c-1.3 0-2.6-.5-3.5-1.5-2-2-2-5.1 0-7.1s5.1-2 7.1 0 2 5.1 0 7.1q-1.65 1.5-3.6 1.5m12.5 10.5c-.7 0-1.3-.1-2-.4-2.5-1.1-3.7-4-2.6-6.6 1.1-2.5 4-3.7 6.6-2.6 2.5 1.1 3.7 4 2.6 6.6-.8 1.9-2.7 3-4.6 3m15.4 5.6c-.2 0-.5 0-.7-.1-2.7-.4-4.6-2.9-4.2-5.7.4-2.7 2.9-4.6 5.7-4.2 2.7.4 4.6 2.9 4.2 5.7-.5 2.5-2.6 4.3-5 4.3m16.3 0c-2.2 0-4.2-1.4-4.8-3.6-.8-2.7.8-5.4 3.4-6.2 2.7-.8 5.4.8 6.2 3.4.8 2.7-.8 5.4-3.4 6.2-.5.1-1 .2-1.4.2m15.3-5.6c-1.7 0-3.4-.9-4.3-2.5-1.4-2.4-.5-5.5 1.9-6.8 2.4-1.4 5.5-.5 6.8 1.9 1.4 2.4.5 5.5-1.9 6.8-.8.4-1.6.6-2.5.6m12.5-10.5c-1.1 0-2.3-.4-3.2-1.2-2.1-1.8-2.4-4.9-.6-7s4.9-2.4 7-.6 2.4 4.9.6 7c-.9 1.2-2.3 1.8-3.8 1.8m8.2-14.1c-.5 0-.9-.1-1.4-.2-2.7-.8-4.2-3.5-3.4-6.2s3.5-4.2 6.2-3.4 4.2 3.5 3.4 6.2c-.6 2.1-2.6 3.6-4.8 3.6m2.8-16.1c-2.8 0-5-2.2-5-5s2.2-5 5-5 5 2.2 5 5-2.2 5-5 5"/><path stroke="#00a49a" stroke-linecap="round" stroke-linejoin="round" stroke-miterlimit="14.8" stroke-width="12" d="M285.3 183.5s1.1-.4 3.2-1.2m-15.4-19.9s4.4-3.7 11.6-9.7m-30.3-6s7.3-12.7 17.7-30.6m-40.7 22.2s5-28.2 10.8-61.3M207 138.3s-8.3-47.2-16.1-91.2m-6.8 99.6s-41.8-72.4-66.5-115.2m47.8 130.9L36.4 54.2m116.8 129.3s-59.9-21.8-106-38.6m101.7 62.7H21m132.2 24s-36.4 13.3-74.4 27.1m86.6-5.9s-59.9 50.2-98 82.2m116.7-66.5s-28.4 49.2-52.2 90.4m75.1-82.1s-13 73.6-21.6 122.7m46-122.7s11.3 64.2 19.9 112.7m3.1-121s53 91.9 74.9 129.8m-56.2-145.5 129 108.2M285.3 231.6s71.8 26.1 118.7 43.2m-114.5-67.2H409"/></svg>