<?xml version="1.0" encoding="UTF-8"?>
<svg id="Layer_1" data-name="Layer 1" xmlns="http://www.w3.org/2000/svg" viewBox="0 0 357.45 364.94">
  <defs>
    <style>
      .cls-1 {
        stroke: #000;
      }

      .cls-1, .cls-2 {
        fill: none;
        stroke-linecap: round;
        stroke-linejoin: round;
        stroke-width: 12px;
      }

      .cls-2 {
        stroke: #00a49a;
      }
    </style>
  </defs>
  <line class="cls-1" x1="166.37" y1="72.43" x2="166.37" y2="163.06"/>
  <line class="cls-1" x1="56.22" y1="297.19" x2="139.9" y2="223.07"/>
  <line class="cls-1" x1="265.22" y1="300.61" x2="196.55" y2="224.72"/>
  <path class="cls-1" d="M166.37,72.43c18.34,0,33.22-14.87,33.22-33.22s-14.87-33.22-33.22-33.22-33.22,14.87-33.22,33.22,14.87,33.22,33.22,33.22"/>
  <path class="cls-2" d="M166.37,278.58c41.42,0,74.99-33.58,74.99-74.99s-33.58-74.99-74.99-74.99-74.99,33.58-74.99,74.99,33.58,74.99,74.99,74.99"/>
  <path class="cls-1" d="M288.66,358.94c18.34,0,33.22-14.87,33.22-33.22s-14.87-33.22-33.22-33.22-33.22,14.87-33.22,33.22,14.87,33.22,33.22,33.22"/>
  <path class="cls-1" d="M39.22,358.94c18.35,0,33.22-14.87,33.22-33.22s-14.87-33.22-33.22-33.22-33.22,14.87-33.22,33.22,14.87,33.22,33.22,33.22"/>
  <path class="cls-1" d="M133.91,204.04c0,18.34,14.87,33.22,33.22,33.22"/>
  <path class="cls-1" d="M167.12,237.26c18.34,0,33.22-14.87,33.22-33.22s-14.87-33.22-33.22-33.22-33.22,14.87-33.22,33.22"/>
</svg>