<svg xmlns="http://www.w3.org/2000/svg" width="430" height="430" fill="none" viewBox="0 0 430 430"><g stroke-linecap="round" stroke-linejoin="round" stroke-miterlimit="10" stroke-width="12"><path stroke="#00a49a" d="M160.9 202v34.2M374.7 202h-71.3v34.2h71.3z"/><path stroke="#121331" d="M61.1 236.2v-89h57.6v89"/><path stroke="#00a49a" d="M303.4 236.2H160.9m107.3-102.5h-71.3v34.2h71.3zm35.2 34.2H160.9v34.2h142.5zm-71.2-.1v102.6m-142.3 0H19"/><path stroke="#121331" d="M118.8 147.2H61.1L34.5 108h110.9zm184.6 89v18.4c0 8.7-7.1 15.8-15.8 15.8H176.7c-8.7 0-15.8-7.1-15.8-15.8v-18.4H19v34.1c0 28.3 22.9 51.2 51.2 51.2h287.4l54.3-85.3z"/><path stroke="#00a49a" d="M92.2 175.8h-4.5m4.5 28.2h-4.5"/></g></svg>