<svg xmlns="http://www.w3.org/2000/svg" width="430" height="430" fill="none" viewBox="0 0 430 430"><g stroke-linecap="round" stroke-linejoin="round" stroke-width="12"><path stroke="#00a49a" d="M370.77 260.9 74.01 310.65"/><path stroke="#121331" d="M302.32 364.79c35.17-23.57 60.48-60.69 68.44-103.89 1.75-9.47 2.66-19.23 2.66-29.21 0-.97-.02-1.93-.03-2.88l-312.4 52.37c3.35 10.32 7.73 20.18 13.01 29.47a160.7 160.7 0 0 0 50.29 54.14m8.96-99.73V66"/><path stroke="#00a49a" d="M106.56 78.88S57 117.6 57 255.37c19.52-3.14 49.139-9.174 49.56-9.6zm53.37-10.34s133.43 9.04 133.43 146.8c-61.07 8.98-133.47 20.16-133.43 20.08 40.03-77.52 0-166.88 0-166.88"/><path stroke="#121331" d="M302.71 364.79H124.29"/></g></svg>