<svg xmlns="http://www.w3.org/2000/svg" width="430" height="430" fill="none" viewBox="0 0 430 430"><g stroke-linecap="round" stroke-linejoin="round" stroke-miterlimit="10" stroke-width="12"><path stroke="#121331" d="M54.9 229.9H28.2v-37h26.7m290.4 0H84.7m260.6 37H84.7m290.4-37h26.7v37h-26.7M84.7 269.4V88.5H54.9v203.9m290.4-5.6V88.5h29.8v198.6M84.7 88.5c130.3 93.4 260.6 0 260.6 0M149.9 192.9v-71.8m65.1 71.8V130m65.1 62.9v-73.8"/><path stroke="#00a49a" d="M147.3 261.6c0 17-13.8 30.8-30.8 30.8-4.1 0-8-.8-11.6-2.2m227.3-28.6c0 17 13.8 30.8 30.8 30.8 4.1 0 8-.8 11.6-2.2"/><path stroke="#00a49a" d="M208.9 261.6c0 17-13.8 30.8-30.8 30.8s-30.8-13.8-30.8-30.8m123.3 0c0 17-13.8 30.8-30.8 30.8S209 278.6 209 261.6m123.2 0c0 17-13.8 30.8-30.8 30.8s-30.8-13.8-30.8-30.8m-184.9 0c0 17 13.8 30.8 30.8 30.8 4.1 0 8-.8 11.6-2.2m-42.4-28.6c0 17-13.8 30.8-30.8 30.8M184 325.9c0 17-13.8 30.8-30.8 30.8s-30.8-13.8-30.8-30.8"/><path stroke="#00a49a" d="M122.4 325.9c0 17-13.8 30.8-30.8 30.8s-30.7-13.8-30.7-30.8m184.6 0c0 17-13.8 30.8-30.8 30.8S184 342.9 184 325.9"/><path stroke="#00a49a" d="M307 325.9c0 17-13.8 30.8-30.8 30.8s-30.8-13.8-30.8-30.8m123.1 0c0 17-13.8 30.8-30.8 30.8S307 342.9 307 325.9"/></g></svg>