<?xml version="1.0" encoding="UTF-8"?>
<svg id="Layer_1" data-name="Layer 1" xmlns="http://www.w3.org/2000/svg" viewBox="0 0 430 430">
  <defs>
    <style>
      .cls-1 {
        stroke: #121331;
      }

      .cls-1, .cls-2 {
        fill: none;
        stroke-linecap: round;
        stroke-linejoin: round;
        stroke-width: 12px;
      }

      .cls-2 {
        stroke: #00a49a;
      }
    </style>
  </defs>
  <path class="cls-2" d="M176.96,216.57c0,15.56-12.77,28.27-28.64,28.27s-28.64-12.6-28.64-28.27"/>
  <path class="cls-2" d="M234.25,216.57c0,15.56-12.77,28.27-28.64,28.27s-28.64-12.6-28.64-28.27"/>
  <path class="cls-2" d="M143.82,290.31c2.25-4.06,3.53-8.65,3.53-13.28"/>
  <path class="cls-2" d="M204.64,277.02c0,15.56-12.77,28.27-28.64,28.27s-28.64-12.6-28.64-28.27"/>
  <path class="cls-2" d="M204.64,277.02c0,15.56,12.87,28.27,28.64,28.27h1.07"/>
  <path class="cls-2" d="M292.05,216.57c0,15.56-12.77,28.27-28.64,28.27s-28.64-12.6-28.64-28.27M349.33,216.57c0,15.56-12.77,28.27-28.64,28.27s-28.64-12.6-28.64-28.27M222.32,302.86c3.54,1.59,7.4,2.43,11.48,2.43,15.77,0,28.64-12.6,28.64-28.27M319.73,277.02c0,15.56-12.77,28.27-28.64,28.27s-28.64-12.6-28.64-28.27M319.73,277.02c0,15.56,12.87,28.27,28.64,28.27h1.07"/>
  <path class="cls-2" d="M349.61,216.57c0,15.56-12.77,28.27-28.64,28.27s-28.64-12.6-28.64-28.27M406.89,216.57c0,15.56-12.77,28.27-28.64,28.27s-28.64-12.6-28.64-28.27M279.88,302.86c3.54,1.59,7.4,2.43,11.48,2.43,15.77,0,28.64-12.6,28.64-28.27M377.28,277.02c0,15.56-12.77,28.27-28.64,28.27s-28.64-12.6-28.64-28.27M377.28,277.02c0,15.56,12.87,28.27,28.64,28.27h1.07"/>
  <path class="cls-2" d="M168.09,96.34c0,15.56-12.77,28.27-28.64,28.27s-28.64-12.6-28.64-28.27"/>
  <path class="cls-2" d="M225.38,96.34c0,15.56-12.77,28.27-28.64,28.27s-28.64-12.6-28.64-28.27"/>
  <path class="cls-2" d="M109.88,185.06c15.38-.08,28.62-13.07,28.61-28.27"/>
  <path class="cls-2" d="M195.77,156.79c0,15.56-12.77,28.27-28.64,28.27s-28.64-12.6-28.64-28.27"/>
  <path class="cls-2" d="M195.77,156.79c0,15.56,12.87,28.27,28.64,28.27h1.07"/>
  <path class="cls-2" d="M283.18,96.34c0,15.56-12.77,28.27-28.64,28.27s-28.64-12.6-28.64-28.27M340.46,96.34c0,15.56-12.77,28.27-28.64,28.27s-28.64-12.6-28.64-28.27M213.45,182.62c3.54,1.59,7.4,2.43,11.48,2.43,15.77,0,28.64-12.6,28.64-28.27M310.85,156.79c0,15.56-12.77,28.27-28.64,28.27s-28.64-12.6-28.64-28.27M310.85,156.79c0,15.56,12.87,28.27,28.64,28.27h1.07"/>
  <path class="cls-2" d="M340.74,96.34c0,15.56-12.77,28.27-28.64,28.27s-28.64-12.6-28.64-28.27M398.02,96.34c0,15.56-12.77,28.27-28.64,28.27s-28.64-12.6-28.64-28.27M271.01,182.62c3.54,1.59,7.4,2.43,11.48,2.43,15.77,0,28.64-12.6,28.64-28.27M368.41,156.79c0,15.56-12.77,28.27-28.64,28.27s-28.64-12.6-28.64-28.27M368.41,156.79c0,15.56,12.87,28.27,28.64,28.27h1.07"/>
  <path class="cls-1" d="M102.8,148.3c4.72,34.22,14.91,80.28,36.9,132.14,6.33,14.83,13.52,30.16,21.88,45.82.32.66.75,1.41,1.07,2.07H33.93V86.16h65.33s3.11,48.27,3.97,65.17"/>
</svg>