<?xml version="1.0" encoding="UTF-8"?>
<svg id="Layer_1" data-name="Layer 1" xmlns="http://www.w3.org/2000/svg" viewBox="0 0 430 430">
  <defs>
    <style>
      .cls-1 {
        stroke: #121331;
      }

      .cls-1, .cls-2 {
        fill: none;
        stroke-linecap: round;
        stroke-linejoin: round;
        stroke-width: 12px;
      }

      .cls-2 {
        stroke: #00a49a;
      }
    </style>
  </defs>
  <path class="cls-2" d="M216.71,145.86c14.12,5.81,25.15,18.03,29.06,33.45l11.39,44.25M240.43,335.31c2.14.47,4.27.71,6.52.71,17.44,0,31.67-14.24,31.67-31.67"/>
  <path class="cls-2" d="M341.86,304.23c0,17.44-14.12,31.67-31.67,31.67s-31.67-14.12-31.67-31.67M405.21,304.23c0,17.44-14.12,31.67-31.67,31.67s-31.67-14.12-31.67-31.67M92.27,304.23c0,17.44-14.12,31.67-31.67,31.67s-31.67-14.12-31.67-31.67M92.27,304.23c0,17.32,14,31.44,31.2,31.67M92.27,169.23c0,17.44-14.12,31.67-31.67,31.67s-31.67-14.24-31.67-31.67M92.27,169.23c0,17.32,14,31.44,31.2,31.67M264.75,400.92c3.91,1.78,8.19,2.73,12.69,2.73,17.44,0,31.67-14.12,31.67-31.67M372.47,371.97c0,17.44-14.12,31.67-31.67,31.67s-31.67-14.12-31.67-31.67M372.47,371.97c0,17.44,14.24,31.67,31.67,31.67h1.19M61.78,372.33c0,17.44,14.24,31.67,31.67,31.67,14,0,25.86-9.13,30.01-21.71M30.1,404c17.44,0,31.67-14.12,31.67-31.67M61.78,236.85c0,17.44,14.24,31.67,31.67,31.67,14,0,25.86-9.13,30.01-21.71M30.1,268.41c17.44,0,31.67-14.12,31.67-31.67M61.78,101.49c0,17.44,14.24,31.67,31.67,31.67,14,0,25.86-9.13,30.01-21.71M30.1,133.17c17.44,0,31.67-14.24,31.67-31.67"/>
  <path class="cls-1" d="M199.63,146.1c5.22,48.99,16.49,114.95,40.81,189.21,7,21.23,14.95,43.18,24.2,65.6.36.95.83,2.02,1.19,2.97H123.47V57.13h72.25s-.83,13.76.12,37.96M211.01,28.66h-100.95v28.47h100.95v-28.47Z"/>
  <path class="cls-2" d="M264.75,254.53l3.56,16.96"/>
  <path class="cls-1" d="M216.83,146.1h-93.36v-51.01h85.06l8.19,50.77.12.24Z"/>
</svg>