<?xml version="1.0" encoding="UTF-8"?>
<svg id="Layer_1" xmlns="http://www.w3.org/2000/svg" version="1.1" viewBox="0 0 430 430">
  <!-- Generator: Adobe Illustrator 29.5.0, SVG Export Plug-In . SVG Version: 2.1.0 Build 137)  -->
  <defs>
    <style>
      .st0 {
        stroke: #121331;
      }

      .st0, .st1 {
        fill: none;
        stroke-linecap: round;
        stroke-linejoin: round;
        stroke-width: 12px;
      }

      .st1 {
        stroke: #00a49a;
      }
    </style>
  </defs>
  <path class="st1" d="M178,368.2v-60.9M254.2,368.2v-60.9M216,368.2v-38.5"/>
  <path class="st0" d="M328.1,152.7H104v-6.5c0-15.3,12.4-27.8,27.8-27.8h168.7c15.3,0,27.8,12.4,27.8,27.8v6.5h-.1Z"/>
  <path class="st1" d="M103.6,244.5h-28.1v-28.1h28.1M328.5,216h28.1v28h-28.1M202,55.1V21h28v34.1"/>
  <path class="st0" d="M346.1,411H86.1c0-23.6,19.1-42.8,42.8-42.8h174.5c23.6.1,42.8,19.2,42.8,42.8M140.7,368.2v-215.6M140.7,279l-37-13.8v-69.5l37-13.8M291.6,152.7v215.6M137.4,118.6c0-35.1,28.4-63.5,63.3-63.5h30.7c35,0,63.3,28.4,63.3,63.3M291.6,278.6l36.9-13.8v-69.5l-36.9-13.8M216,278.6c26.6,0,48.1-21.5,48.1-48.1s-21.5-48.1-48.1-48.1-48.1,21.5-48.1,48.1,21.5,48.1,48.1,48.1"/>
  <path class="st1" d="M216,248.4c9.9,0,17.9-8,17.9-17.9s-8-17.9-17.9-17.9-17.9,8-17.9,17.9,8,17.9,17.9,17.9"/>
</svg>