<?xml version="1.0" encoding="UTF-8"?>
<svg id="Layer_1" data-name="Layer 1" xmlns="http://www.w3.org/2000/svg" viewBox="0 0 430 430">
  <defs>
    <style>
      .cls-1 {
        fill: none;
        stroke: #00a49a;
        stroke-linecap: round;
        stroke-linejoin: round;
        stroke-width: 12px;
      }

      .cls-2 {
        fill: #2e2e2e;
      }
    </style>
  </defs>
  <path class="cls-2" d="M194.58,417h-95.7c-8.35.12-15.19-8.68-15.28-19.66,0-.96.04-1.91.13-2.86L119.19,53.07c.72-6.95,27.44,17.63,24.47-7.1-.64-5.33-4.19-.38-4.91,6.57h0l-35.24,339.07h86.9V50.73c0-7.01,4.32-12.69,9.66-12.69s9.66,5.68,9.66,12.69v346.33c.02,11-6.76,19.93-15.12,19.95,0,0-.02,0-.03,0Z"/>
  <path class="cls-2" d="M230.31,417s96.68,0,96.68,0c8.44.12,15.35-8.5,15.44-19.25.17-4.06-36.22-337.09-36.38-340.92-2.51-16.66-20.68-12.64-19.35,3.34h0l35.6,331.97h-87.79V58.4c0-6.86-4.37-12.43-9.76-12.43s-9.76,5.56-9.76,12.43c0,0,0,339.07,0,339.07-.01,10.78,6.84,19.53,15.31,19.53Z"/>
  <path class="cls-1" d="M392,307.21v-144.95c0-68.59-78.49-124.23-175.5-124.23S41,93.67,41,162.26v144.95"/>
  <polyline class="cls-2" points="215 43.57 215.04 57.36 234.52 58.4 235.32 43.57"/>
</svg>