<?xml version="1.0" encoding="UTF-8"?>
<svg id="Layer_1" xmlns="http://www.w3.org/2000/svg" version="1.1" viewBox="0 0 430 430">
  <!-- Generator: Adobe Illustrator 29.5.0, SVG Export Plug-In . SVG Version: 2.1.0 Build 137)  -->
  <defs>
    <style>
      .st0 {
        stroke: #121331;
      }

      .st0, .st1 {
        fill: none;
        stroke-linecap: round;
        stroke-linejoin: round;
        stroke-width: 12px;
      }

      .st1 {
        stroke: #00a49a;
      }
    </style>
  </defs>
  <path class="st0" d="M98.4,71.3h220c7.4,0,13.4-6,13.4-13.4s-6-13.4-13.4-13.4H98.4c-7.4,0-13.4,6-13.4,13.4s6,13.4,13.4,13.4M279.4,209.5H98.4c-3.7,0-7-1.5-9.4-3.9s-4-5.8-4-9.4c0-7.4,6-13.4,13.4-13.4h193.7M108.2,347.1h132.3M108.2,287.7v-78.2M312.1,166.6v-95.3M108.2,182.7v-111.3M312.1,44.5H108.2M91.1,347.1h149.3M160.7,347.1h71.2l20.3,59.4h-112l20.5-59.4ZM48.6,347.1h71.1l20.5,59.4H28.2l20.5-59.4ZM104.7,287.7h71.1l20.5,59.4h-112l20.5-59.4Z"/>
  <path class="st1" d="M335.1,379.2v27.3h-47.5v-26.9"/>
  <path class="st0" d="M357.6,260.5c-4-25.1-11.1-47.4-18.6-63.9-8.5-18.4-17.4-29.8-26.8-30h-.3c-6.8,0-13.4,5.9-19.7,16-2.5,4-5,8.6-7.4,14-1.8,4-3.6,8.3-5.3,12.8-5.7,15.1-10.7,33.3-13.6,53.3"/>
  <path class="st1" d="M311.3,378c10.5,1.7,41.8,5.5,60-13.5,13.3-13.7,15.5-34.8,15.9-52.4.6-19.4-4.4-40.3,4.7-58.4,4.2-8.4,9.8-14.3,13.9-17.8-15.5,0-33.5,4.2-43.6,16.9-10,12.7-10.3,30.6-12.3,45.9-3.1,24.3-5.2,33.7-7.7,40.4-.6,1.5-1.6,4.1-3.2,7.2-4.2,8.6-12.2,20.7-27.6,31.7"/>
  <path class="st1" d="M311.3,378c-10.2,1.8-41.8,6-60-12.6-13.3-13.6-15.5-34.5-15.9-52.4-.6-19.4,4.4-40.3-4.7-58.4-4.2-8.4-9.8-14.3-13.9-17.8,15.5,0,33.5,4.2,43.6,16.9,10,12.7,10.3,30.6,12.3,45.9,3.1,24.2,5.1,33.6,7.7,40.4.6,1.6,1.7,4.1,3.2,7.2,7.3,14.4,18,24.2,27.6,30.8"/>
  <path class="st0" d="M301.1,233c1.6,1,5.5,3.1,10.9,3.1s9.1-2,10.7-3M301.1,272.4c1.6,1,5.5,3.1,10.9,3.1s9.1-2,10.7-3M301.1,311.9c1.6,1,5.5,3.1,10.9,3.1s9.1-2,10.7-3"/>
  <path class="st1" d="M188.7,138.1c0-11,19.9-42.4,19.9-42.4,0,0,19.9,31.4,19.9,42.4s-8.9,19.9-19.9,19.9-19.9-8.9-19.9-19.9"/>
</svg>