<svg xmlns="http://www.w3.org/2000/svg" width="430" height="430" fill="none" viewBox="0 0 430 430"><g stroke-linecap="round" stroke-linejoin="round" stroke-width="12"><path stroke="#000" d="M260.33 374.89h-91.17v-90.61h91.16v90.61z"/><path stroke="#000" d="M321.49 374.89H108V55h213.49zM214.9 286.84v85.62m.31-85.62v85.5"/><path stroke="#00a49a" d="M161.37 82.15v24.78m26.69-24.78v24.78m26.69-24.78v24.78m53.37-24.78v24.78m-106.75 24.78v24.78m26.69-24.78v24.78m26.69-24.78v24.78m53.37-24.78v24.78m-106.75 24.78v24.78m26.69-24.78v24.78m26.69-24.78v24.78m53.37-24.78v24.78m-106.75 24.78v24.78m26.69-24.78v24.78m26.69-24.78v24.78m26.68-173.46v24.78m0 24.78v24.78m0 24.78v24.78m0 24.78v24.78m53.38-173.46v24.78m0 24.78v24.78m0 24.78v24.78m0 24.78v24.78M134.69 82.15v24.78m0 24.78v24.78m0 24.78v24.78m0 24.78v24.78m133.43-24.78v24.78"/></g></svg>