<svg xmlns="http://www.w3.org/2000/svg" width="430" height="430" fill="none" viewBox="0 0 430 430"><g stroke-linecap="round" stroke-linejoin="round" stroke-width="12"><path stroke="#00a49a" stroke-miterlimit="10" d="M345.11 109.248v41.504h-44.248V195h-41.614v-44.248H215v-41.504h44.248V65h41.614v44.248z"/><path stroke="#000" stroke-miterlimit="16" d="M103.963 56.019c-4.275-5.986-26.507 15.024-49.471 46.784-22.965 31.759-2.81 96.255 44.83 143.895l74.268 74.268c47.639 47.639 112.013 67.55 143.528 44.341s53.014-44.952 48.006-48.616-20.155-14.659-33.836-24.675-28.217-20.522-32.371-23.575c-4.153-3.054-15.757 2.565-25.774 12.581-10.016 10.017-21.865 14.414-26.384 9.895l-57.9-57.9-59.61-59.61c-5.497-5.497-1.833-18.079 8.184-28.095 10.016-10.017 15.391-21.988 11.971-26.629-3.421-4.764-13.193-18.201-21.988-30.172-8.55-11.849-19.055-26.507-23.453-32.492"/></g></svg>