<svg xmlns="http://www.w3.org/2000/svg" width="430" height="430" fill="none" viewBox="0 0 430 430"><g stroke-width="12"><path stroke="#000" stroke-linecap="round" d="M120 185h180m0 65h-89.834"/><path stroke="#000" stroke-linecap="round" stroke-linejoin="round" d="M405 342h-37.5l-21.885-77.439A20 20 0 0 0 326.369 250H303"/><path stroke="#000" stroke-linecap="round" d="M120 235V70c0-11.046-8.954-20-20-20H55m65 80h150c16.569 0 30 13.431 30 30v145"/><circle cx="300" cy="340" r="35" stroke="#00a49a"/><circle cx="120" cy="280" r="95" stroke="#00a49a"/><circle cx="120" cy="280.002" r="25" stroke="#00a49a"/><path stroke="#00a49a" stroke-linecap="round" stroke-linejoin="round" d="m187.175 212.824-49.499 49.499m-84.851 84.852 49.496-49.497m84.854 49.497-49.496-49.497m-84.854-84.854 49.499 49.499M120 185v70m0 120v-69.998M215 280l-70-.001M25 280l70-.001"/></g></svg>