<?xml version="1.0" encoding="UTF-8"?>
<svg id="Layer_1" xmlns="http://www.w3.org/2000/svg" version="1.1" viewBox="0 0 430 430">
  <!-- Generator: Adobe Illustrator 29.5.0, SVG Export Plug-In . SVG Version: 2.1.0 Build 137)  -->
  <defs>
    <style>
      .st0 {
        stroke: #000;
      }

      .st0, .st1 {
        fill: none;
        stroke-linecap: round;
        stroke-linejoin: round;
        stroke-width: 12px;
      }

      .st1 {
        stroke: #00a49a;
      }
    </style>
  </defs>
  <path class="st0" d="M155.2,301.7v-27.1c0-8.2,6.7-15,15-15h85.8c8.2,0,15,6.7,15,15v27.1"/>
  <path class="st1" d="M80,301.7v-18.2c0-10,8.2-18.2,18.2-18.2s18.2,8.2,18.2,18.2v18.2M309.7,301.7v-18.2c0-10,8.2-18.2,18.2-18.2s18.2,8.2,18.2,18.2v18.2"/>
  <path class="st0" d="M370.5,301.7H55.6c-7.7,0-14,6.3-14,14v76.3c0,7.7,6.3,14,14,14h314.9c7.7,0,14-6.3,14-14v-76.3c0-7.7-6.3-14-14-14M231.3,259.6v-119.1M194.7,259.6v-119.1"/>
  <path class="st1" d="M213.1,143.7c30.8,0,55.8-25,55.8-55.8s-25-55.8-55.8-55.8-55.8,25-55.8,55.8,25,55.8,55.8,55.8"/>
</svg>