<svg xmlns="http://www.w3.org/2000/svg" width="430" height="430" fill="none" viewBox="0 0 430 430"><g stroke-linecap="round" stroke-linejoin="round" stroke-width="12"><path stroke="#000" d="M126.87 117.83V89.57m40.63 28.26V89.57m182.73 75.65V89.57m-38.85 37.82H206.97"/><path stroke="#00a49a" d="M167.5 165.22h190a29.503 29.503 0 0 1 29.5 29.5H103.66C70.12 194.72 43 168.56 43 127c0-37.41 27.15-67.74 60.63-67.74H387a30.32 30.32 0 0 1-8.878 21.442 30.3 30.3 0 0 1-21.442 8.878H112.87a37.831 37.831 0 0 0-27.147 64.791 37.82 37.82 0 0 0 27.147 10.859h14"/><path stroke="#000" d="M167.5 114.5v74l-20.32-22.84-20.31 22.84v-74"/><path stroke="#00a49a" d="M79.77 341.25v-75.64m38.85 37.82h104.41m43 0h46.06"/><path stroke="#000" d="M326.34 370.75c33.54 0 60.66-26.15 60.66-67.75 0-37.4-27.15-67.73-60.63-67.73H43a30.32 30.32 0 0 0 30.32 30.32h243.81a37.83 37.83 0 0 1 34.989 23.351 37.828 37.828 0 0 1-34.949 52.309H72.53a29.5 29.5 0 0 0-20.882 8.627A29.5 29.5 0 0 0 43 370.75z"/></g></svg>