<?xml version="1.0" encoding="UTF-8"?>
<svg id="Layer_1" xmlns="http://www.w3.org/2000/svg" version="1.1" viewBox="0 0 430 430">
  <!-- Generator: Adobe Illustrator 29.5.1, SVG Export Plug-In . SVG Version: 2.1.0 Build 141)  -->
  <defs>
    <style>
      .st0 {
        stroke: #000;
        stroke-width: 12px;
      }

      .st0, .st1 {
        fill: none;
        stroke-linecap: round;
        stroke-linejoin: round;
      }

      .st1 {
        stroke: #00a49a;
        stroke-width: 9px;
      }
    </style>
  </defs>
  <path class="st0" d="M104,56c-4.3-6-26.5,15-49.5,46.8-23,31.8-2.8,96.3,44.8,143.9l74.3,74.3c47.6,47.6,112,67.5,143.5,44.3s53-45,48-48.6-20.2-14.7-33.8-24.7-28.2-20.5-32.4-23.6c-4.2-3.1-15.8,2.6-25.8,12.6-10,10-21.9,14.4-26.4,9.9l-57.9-57.9-59.6-59.6c-5.5-5.5-1.8-18.1,8.2-28.1,10-10,15.4-22,12-26.6-3.4-4.8-13.2-18.2-22-30.2-8.6-11.8-19.1-26.5-23.5-32.5"/>
  <path class="st1" d="M359.3,125c8-8,12-18.5,12-29s-4-21-12-29c-6.8-6.9-15.4-10.8-24.4-11.8-12-1.4-24.4,2.6-33.6,11.8h0s0,0,0,0c-8-8-18.5-12-29-12s-21,4-29,12c-16,16-16,41.9,0,57.9l58,58,58-58Z"/>
</svg>