<svg xmlns="http://www.w3.org/2000/svg" width="430" height="430" fill="none" viewBox="0 0 430 430"><g stroke-linecap="round" stroke-linejoin="round" stroke-width="12"><path stroke="#000" d="M89.2 340.091v-22.82l-48.46-54.68a26.8 26.8 0 0 1-6.74-17.77v-89.99c0-9.71 7.87-17.58 17.58-17.58 9.72 0 17.6 7.89 17.58 17.62l-.18 85.17 35.98 40.43s-16.21-18.22-35.98-40.43c-.58-8.74 4.78-12.77 11.13-14.52 9.7-2.67 20.08.58 26.94 7.94l48.28 51.81v54.82m-5.25 50.37H81.83a6.68 6.68 0 0 1-6.68-6.68v-37.01a6.68 6.68 0 0 1 6.68-6.68h77.32c4.33 0 7.52 4.06 6.49 8.27l-9.06 37c-.74 3-3.42 5.1-6.5 5.1m190.061-50.37v-22.82l48.46-54.68c4.34-4.9 6.74-11.22 6.74-17.77v-89.99c0-9.71-7.87-17.58-17.58-17.58-9.72 0-17.6 7.89-17.58 17.62l.18 85.17m0 0-35.98 40.43s16.21-18.22 35.98-40.43m0 0c.58-8.74-4.78-12.77-11.13-14.52-9.7-2.67-20.08.58-26.94 7.94l-48.28 51.81v54.82m5.24 50.37h68.25a6.68 6.68 0 0 0 6.68-6.68v-37.01a6.68 6.68 0 0 0-6.68-6.68h-77.32c-4.33 0-7.52 4.06-6.49 8.27l9.06 37c.74 3 3.42 5.1 6.5 5.1"/><path stroke="#00a49a" d="M305.35 148.95c12.4-12.4 18.7-28.7 18.7-45s-6.2-32.6-18.7-45c-10.6-10.6-24-16.7-37.9-18.3-18.6-2.1-37.9 4-52.2 18.3l-.1.1-.1-.1c-12.4-12.4-28.7-18.7-45-18.7s-32.6 6.3-45 18.7c-24.9 24.9-24.9 65.2 0 90.1l90.1 90.1z"/></g></svg>