<svg xmlns="http://www.w3.org/2000/svg" width="430" height="430" fill="none" viewBox="0 0 430 430"><mask id="rb3-bi0XkHa" width="317" height="189" x="74" y="201" maskUnits="userSpaceOnUse" style="mask-type:alpha"><path fill="#fff" d="M390.992 389.495v-188H156.809v1.938l17.476 14.655a69.8 69.8 0 0 1 22.568 35.413l12.823 47.854a9.21 9.21 0 0 1-6.512 11.278c-14.737 3.949-29.885-4.797-33.833-19.534l-1.472-5.493v11.593h-.002v54.512c0 8.137-6.596 14.733-14.733 14.733-7.991 0-14.497-6.362-14.727-14.297v10.615c0 8.137-6.596 14.733-14.733 14.733s-14.734-6.596-14.734-14.733l-.006-6.631c0 8.137-6.596 14.733-14.733 14.733s-14.734-6.596-14.734-14.733v-13.139a14.7 14.7 0 0 1-4.465 10.446v34.057z"/></mask><g stroke="#000" stroke-linecap="round" stroke-linejoin="round" stroke-width="12" mask="url(#rb3-bi0XkHa)"><path d="m261.775 269.19 19.504-5.226 6.727-1.802"/><path d="M299.704 380h-40.789a94.2 94.2 0 0 1-34.991-6.739l-19.987-7.994h-68.484v-92.084h68.485l14.655-17.476a69.8 69.8 0 0 1 35.413-22.569l47.854-12.822c4.912-1.316 9.962 1.599 11.278 6.511 3.949 14.737-4.797 29.885-19.534 33.834l-5.493 1.472h11.593"/><path d="M299.702 291.601h54.514c8.137 0 14.733-6.596 14.733-14.733s-6.596-14.734-14.733-14.734h-54.514"/><path d="M299.703 321.061h65.564c8.137 0 14.733-6.596 14.733-14.733s-6.596-14.733-14.733-14.733h-65.564m-.001 58.939h58.934c8.137 0 14.733-6.596 14.733-14.733s-6.596-14.734-14.733-14.734h-58.934m0 58.933h45.674c8.137 0 14.733-6.596 14.733-14.733s-6.596-14.733-14.733-14.733h-45.673"/></g><mask id="ODTN5h85Kvb" width="189" height="316" x="35" y="75" maskUnits="userSpaceOnUse" style="mask-type:alpha"><path fill="#fff" d="M35.002 391h188V156.817h-1.938l-14.655 17.476a69.8 69.8 0 0 1-35.413 22.568l-47.854 12.822a9.207 9.207 0 0 1-11.278-6.511c-3.949-14.737 4.797-29.885 19.534-33.834l5.493-1.471h-11.593v-.002H70.786c-8.137 0-14.733-6.596-14.733-14.733 0-7.991 6.362-14.497 14.298-14.727H59.735c-8.137 0-14.733-6.597-14.733-14.734s6.596-14.733 14.733-14.733l6.631-.006c-8.137 0-14.733-6.596-14.733-14.733s6.596-14.734 14.733-14.734h13.139A14.7 14.7 0 0 1 69.06 75H35.002z"/></mask><g stroke="#000" stroke-linecap="round" stroke-linejoin="round" stroke-width="12" mask="url(#ODTN5h85Kvb)"><path d="M50 299.204v-40.789a94.2 94.2 0 0 1 6.739-34.991l7.994-19.987V94.953h92.084v108.484l17.476 14.656a69.8 69.8 0 0 1 22.568 35.412l12.823 47.854a9.21 9.21 0 0 1-6.511 11.278c-14.737 3.949-29.885-4.797-33.834-19.534l-1.472-5.493v11.594m-7.058-37.929 5.226 19.504 2.613 9.752"/><path d="M138.398 299.203v54.513c0 8.137 6.597 14.734 14.734 14.734s14.733-6.597 14.733-14.734v-54.513"/><path d="M108.938 299.203v65.564c0 8.137 6.596 14.733 14.733 14.733s14.733-6.596 14.733-14.733v-65.564m-58.937 0v58.933c0 8.137 6.596 14.734 14.733 14.734s14.734-6.597 14.734-14.734v-58.933m-58.934 0v45.673c0 8.138 6.596 14.734 14.733 14.734s14.734-6.597 14.734-14.734v-45.673"/></g><mask id="77yUpMDmvec" width="317" height="189" x="38" y="40" maskUnits="userSpaceOnUse" style="mask-type:alpha"><path fill="#fff" d="M38.988 40.508v188h234.184v-1.938l-17.477-14.655a69.8 69.8 0 0 1-22.568-35.413l-12.822-47.854c-1.316-4.912 1.599-9.962 6.511-11.278 14.737-3.949 29.885 4.797 33.834 19.534l1.472 5.493v-11.594h.001V76.292c0-8.137 6.596-14.733 14.733-14.733 7.992 0 14.497 6.362 14.727 14.297V65.241c0-8.137 6.597-14.733 14.734-14.733s14.733 6.596 14.733 14.733l.006 6.631c0-8.137 6.596-14.733 14.734-14.733s14.733 6.596 14.733 14.733v13.139a14.7 14.7 0 0 1 4.465-10.446V40.508z"/></mask><g stroke="#00a49a" stroke-linecap="round" stroke-linejoin="round" stroke-width="12" mask="url(#77yUpMDmvec)"><path d="M125.296 50h40.789a94.2 94.2 0 0 1 34.991 6.738l19.987 7.995h108.484v92.084H221.062l-14.655 17.476a69.8 69.8 0 0 1-35.413 22.568l-47.854 12.822a9.207 9.207 0 0 1-11.278-6.511c-3.949-14.737 4.797-29.885 19.534-33.834l5.493-1.471h-11.593"/><path d="m163.224 160.809-19.503 5.226-9.752 2.613m-8.671-30.25H70.784c-8.137 0-14.733 6.597-14.733 14.734s6.596 14.733 14.733 14.733h54.514"/><path d="M125.297 108.938H59.733c-8.137 0-14.733 6.596-14.733 14.733s6.596 14.734 14.733 14.734h65.564m.001-58.94H66.364c-8.137 0-14.733 6.597-14.733 14.734s6.596 14.733 14.733 14.733h58.934"/><path d="M125.297 50H79.624c-8.137 0-14.733 6.595-14.733 14.732s6.596 14.734 14.733 14.734h45.673"/></g><mask id="Jf_hy53gy0d" width="188" height="236" x="202" y="38" maskUnits="userSpaceOnUse" style="mask-type:alpha"><path fill="#D9D9D9" d="M390 39H202v234.183h1.938l14.655-17.476a69.8 69.8 0 0 1 35.413-22.568l47.854-12.823a9.21 9.21 0 0 1 11.278 6.511c3.949 14.737-4.797 29.885-19.534 33.834l-5.493 1.472h11.593v.001H390z"/></mask><g stroke="#000" stroke-linecap="round" stroke-linejoin="round" stroke-width="12" mask="url(#Jf_hy53gy0d)"><path d="M380 130.796v40.789a94.2 94.2 0 0 1-6.739 34.991l-7.994 19.987v108.484h-92.084V226.562l-17.476-14.655a69.8 69.8 0 0 1-22.569-35.413l-12.822-47.854c-1.316-4.912 1.599-9.962 6.511-11.278 14.737-3.949 29.885 4.797 33.834 19.534l1.472 5.493v-11.593"/><path d="m269.191 168.724-5.226-19.503-2.613-9.752m30.25-8.672V76.283c0-8.137-6.597-14.733-14.734-14.733s-14.733 6.596-14.733 14.733v54.514"/><path d="M321.062 130.796V65.233c0-8.137-6.596-14.734-14.733-14.734s-14.733 6.597-14.733 14.734v65.563m58.937.001V71.863c0-8.137-6.596-14.733-14.733-14.733s-14.734 6.596-14.734 14.733v58.934m58.934 0V85.123c0-8.137-6.596-14.733-14.733-14.733s-14.734 6.596-14.734 14.733v45.674"/></g></svg>