<svg xmlns="http://www.w3.org/2000/svg" width="430" height="430" fill="none" viewBox="0 0 430 430"><g stroke-linejoin="round" stroke-width="12"><path stroke="#000" d="M164.189 358.055v-47.778l-25.041-20.999a100 100 0 0 1-32.338-50.743l-18.373-68.568c-1.886-7.039 2.291-14.274 9.33-16.16 21.116-5.658 42.821 6.873 48.48 27.989l2.109 7.871v-16.612m147.777 185v-47.778l11.456-28.638a135 135 0 0 0 9.655-50.138v-58.446"/><path stroke="#000" stroke-linecap="round" d="m143.49 171.509 7.488 27.946 7.489 27.947m32.111-54.346V56.945c0-11.66-9.452-21.111-21.111-21.111s-21.112 9.451-21.112 21.11v116.112m84.445 0V41.111c0-11.66-9.451-21.111-21.111-21.111s-21.111 9.452-21.111 21.111v131.945m84.445 0V56.945c0-11.66-9.452-21.111-21.111-21.111s-21.111 9.451-21.111 21.11v116.112"/><path stroke="#000" stroke-linecap="round" d="M317.244 173.056V87.5c0-11.046-8.955-20-20-20h-2.223c-11.045 0-20 8.954-20 20v85.556"/><path stroke="#00a49a" d="M157 355h145v45H157z"/></g></svg>